<?xml version="1.0" standalone="no"?>
<!DOCTYPE svg PUBLIC "-//W3C//DTD SVG 1.1//EN" "http://www.w3.org/Graphics/SVG/1.1/DTD/svg11.dtd" >
<svg xmlns="http://www.w3.org/2000/svg" xmlns:xlink="http://www.w3.org/1999/xlink" version="1.1">
<metadata>
Created by FontForge 20201107 at Thu May 24 21:11:28 2018
 By Jimmy Wärting
The pan-European Cera Collection is driven by pure geometry and contains the bestselling Cera plus Cera Condensed, its stenciled counterpart Cera Stencil, the hand-crafted display companion Cera Brush and soft Cera Round.\012\012This is the updated version from 2018, featuring improvements on Greek and Cyrillic script plus overall Kerning updates.
</metadata>
<defs>
<font id="CeraPro-Black" horiz-adv-x="560" >
  <font-face 
    font-family="Cera Pro"
    font-weight="900"
    font-stretch="normal"
    units-per-em="1000"
    panose-1="0 0 10 0 0 0 0 0 0 0"
    ascent="808"
    descent="-192"
    x-height="500"
    cap-height="660"
    bbox="-495 -256 1416 1000"
    underline-thickness="100"
    underline-position="-100"
    unicode-range="U+0020-FB02"
  />
<missing-glyph horiz-adv-x="717" 
d="M66 660h585v-660h-585v660zM536 94v462h-357z" />
    <glyph glyph-name="fi" unicode="fi" horiz-adv-x="667" 
d="M258 542v-42h101v-144h-101v-356h-172v356h-70v144h70v59c0 133 78 203 210 203c33 0 60 -4 83 -12v-144c-20 1 -33 2 -39 2c-59 0 -82 -19 -82 -66zM439 0v500h172v-500h-172zM419 677c0 57 46 102 105 102s106 -45 106 -102c0 -56 -47 -101 -106 -101s-105 44 -105 101
z" />
    <glyph glyph-name="fl" unicode="fl" horiz-adv-x="667" 
d="M258 542v-42h101v-144h-101v-356h-172v356h-70v144h70v59c0 133 78 203 210 203c33 0 60 -4 83 -12v-144c-20 1 -33 2 -39 2c-59 0 -82 -19 -82 -66zM439 0v750h172v-750h-172z" />
    <glyph glyph-name=".notdef" horiz-adv-x="717" 
d="M66 660h585v-660h-585v660zM536 94v462h-357z" />
    <glyph glyph-name="space" unicode=" " horiz-adv-x="280" 
 />
    <glyph glyph-name="A" unicode="A" horiz-adv-x="659" 
d="M472 0l-24 55h-237l-24 -55h-185l300 672h55l300 -672h-185zM387 193l-57 153l-58 -153h115z" />
    <glyph glyph-name="B" unicode="B" horiz-adv-x="624" 
d="M597 196c0 -114 -96 -196 -223 -196h-308v660h238c127 0 223 -80 223 -195c0 -44 -13 -81 -40 -111c69 -28 110 -82 110 -158zM293 515h-62v-116h62c41 0 66 23 66 58s-25 58 -66 58zM429 203c0 39 -25 58 -66 58h-132v-116h132c41 0 66 19 66 58z" />
    <glyph glyph-name="C" unicode="C" horiz-adv-x="723" 
d="M32 330c-3 189 161 346 357 342c132 0 242 -65 302 -177l-131 -89c-43 72 -100 108 -172 108c-105 0 -180 -74 -180 -185c0 -55 17 -99 50 -133c34 -33 77 -50 130 -50c72 0 129 36 172 108l131 -89c-60 -112 -170 -177 -303 -177c-194 -3 -360 151 -356 342z" />
    <glyph glyph-name="D" unicode="D" horiz-adv-x="688" 
d="M66 0v660h230c202 2 363 -130 360 -328c3 -195 -158 -335 -360 -332h-230zM238 155h57c108 0 185 68 185 177c0 112 -76 172 -185 172h-57v-349z" />
    <glyph glyph-name="E" unicode="E" horiz-adv-x="577" 
d="M66 0v660h458v-155h-286v-91h204v-144h-204v-115h298v-155h-470z" />
    <glyph glyph-name="F" unicode="F" horiz-adv-x="542" 
d="M66 0v660h448v-155h-276v-126h224v-155h-224v-224h-172z" />
    <glyph glyph-name="G" unicode="G" horiz-adv-x="747" 
d="M32 330c-3 190 161 345 359 342c121 0 220 -52 284 -147l-120 -102c-43 60 -95 91 -167 91c-111 0 -180 -73 -180 -184c0 -113 73 -189 190 -189c63 0 113 22 145 59v31h-154v148h326v-208c-31 -55 -75 -99 -132 -133c-57 -33 -121 -50 -192 -50
c-198 -3 -362 151 -359 342z" />
    <glyph glyph-name="H" unicode="H" horiz-adv-x="717" 
d="M66 0v660h172v-241h241v241h172v-660h-172v264h-241v-264h-172z" />
    <glyph glyph-name="I" unicode="I" horiz-adv-x="304" 
d="M66 0v660h172v-660h-172z" />
    <glyph glyph-name="J" unicode="J" horiz-adv-x="399" 
d="M12 0v146l63 -2c63 0 86 18 86 66v450h172v-469c0 -135 -77 -203 -220 -203c-34 0 -68 4 -101 12z" />
    <glyph glyph-name="K" unicode="K" horiz-adv-x="695" 
d="M693 0h-204l-251 329v-329h-172v660h172v-299l218 299h200l-227 -314z" />
    <glyph glyph-name="L" unicode="L" horiz-adv-x="535" 
d="M66 0v660h172v-505h273v-155h-445z" />
    <glyph glyph-name="M" unicode="M" horiz-adv-x="804" 
d="M683 672h55v-672h-172v277l-137 -160h-55l-136 159v-276h-172v672h55l281 -343z" />
    <glyph glyph-name="N" unicode="N" horiz-adv-x="717" 
d="M479 660h172v-672h-55l-358 347v-335h-172v672h55l358 -342v330z" />
    <glyph glyph-name="O" unicode="O" horiz-adv-x="776" 
d="M32 330c-4 189 162 346 355 342c192 4 361 -153 357 -342c4 -191 -165 -345 -357 -342c-193 -3 -359 151 -355 342zM568 330c0 109 -78 184 -180 184c-106 0 -180 -75 -180 -184c0 -55 17 -100 50 -134c33 -33 77 -50 130 -50c102 0 180 74 180 184z" />
    <glyph glyph-name="P" unicode="P" horiz-adv-x="607" 
d="M66 0v660h259c147 0 255 -90 255 -227c0 -135 -111 -228 -255 -228h-87v-205h-172zM238 355h88c48 0 79 31 79 78s-31 77 -79 77h-88v-155z" />
    <glyph glyph-name="Q" unicode="Q" horiz-adv-x="776" 
d="M1067 -83v-135c-35 -9 -77 -14 -124 -14c-185 0 -350 77 -458 233c-30 -9 -63 -13 -98 -13c-193 -3 -359 151 -355 342c-4 189 162 346 355 342c192 4 361 -153 357 -342c0 -101 -43 -191 -116 -255c87 -111 191 -161 350 -161c23 0 52 1 89 3zM388 146
c102 0 180 74 180 184c0 109 -78 184 -180 184c-106 0 -180 -75 -180 -184c0 -55 17 -100 50 -134c33 -33 77 -50 130 -50z" />
    <glyph glyph-name="R" unicode="R" horiz-adv-x="652" 
d="M650 0h-192l-149 205h-71v-205h-172v660h259c147 0 255 -90 255 -227c0 -81 -39 -148 -104 -188zM238 510v-155h88c48 0 79 31 79 78s-31 77 -79 77h-88z" />
    <glyph glyph-name="S" unicode="S" 
d="M23 136l116 88c39 -52 80 -85 147 -85c45 0 68 16 68 48c0 29 -15 38 -67 61l-68 30c-109 48 -167 110 -167 199c0 117 96 195 231 195c109 0 186 -52 226 -133l-115 -88c-32 48 -62 70 -109 70c-36 0 -59 -14 -59 -42c0 -24 14 -37 57 -54l76 -32
c115 -48 169 -106 169 -199c0 -128 -105 -206 -242 -206c-119 0 -215 57 -263 148z" />
    <glyph glyph-name="T" unicode="T" horiz-adv-x="588" 
d="M208 0v505h-198v155h568v-155h-198v-505h-172z" />
    <glyph glyph-name="U" unicode="U" horiz-adv-x="708" 
d="M62 280v380h172v-393c0 -75 49 -121 120 -121s120 46 120 121v393h172v-380c0 -174 -125 -292 -292 -292c-169 0 -292 116 -292 292z" />
    <glyph glyph-name="V" unicode="V" horiz-adv-x="659" 
d="M462 660h195l-300 -672h-55l-300 672h195l133 -324z" />
    <glyph glyph-name="W" unicode="W" horiz-adv-x="1015" 
d="M811 660h192l-272 -672h-55l-168 345l-169 -345h-55l-272 672h192l124 -317l152 329h55l152 -329z" />
    <glyph glyph-name="X" unicode="X" horiz-adv-x="623" 
d="M621 0h-194l-116 185l-115 -185h-194l215 335l-203 325h194l103 -176l103 176h194l-200 -325z" />
    <glyph glyph-name="Y" unicode="Y" horiz-adv-x="629" 
d="M627 660l-226 -407v-253h-172v251l-227 409h190l123 -230l123 230h189z" />
    <glyph glyph-name="Z" unicode="Z" horiz-adv-x="587" 
d="M273 155h291v-155h-552v45l289 460h-246v155h508v-45z" />
    <glyph glyph-name="Aacute" unicode="&#xc1;" horiz-adv-x="659" 
d="M472 0l-24 55h-237l-24 -55h-185l300 672h55l300 -672h-185zM387 193l-57 153l-58 -153h115zM262 724l64 186h207v-30l-147 -156h-124z" />
    <glyph glyph-name="Abreve" unicode="&#x102;" horiz-adv-x="659" 
d="M472 0l-24 55h-237l-24 -55h-185l300 672h55l300 -672h-185zM387 193l-57 153l-58 -153h115zM144 901v9h133v-9c0 -37 20 -60 53 -60s53 23 53 60v9h133v-9c0 -109 -77 -186 -186 -186s-186 77 -186 186z" />
    <glyph glyph-name="Acircumflex" unicode="&#xc2;" horiz-adv-x="659" 
d="M472 0l-24 55h-237l-24 -55h-185l300 672h55l300 -672h-185zM387 193l-57 153l-58 -153h115zM536 724h-130l-77 64l-77 -64h-129l149 186h115z" />
    <glyph glyph-name="Adieresis" unicode="&#xc4;" horiz-adv-x="659" 
d="M472 0l-24 55h-237l-24 -55h-185l300 672h55l300 -672h-185zM387 193l-57 153l-58 -153h115zM95 817c0 26 10 48 29 66c20 19 43 28 68 28c55 0 98 -41 98 -94c0 -49 -45 -93 -98 -93c-25 0 -47 9 -67 28s-30 41 -30 65zM370 816c0 26 10 48 29 66c20 19 43 28 68 28
c55 0 98 -41 98 -94c0 -49 -45 -93 -98 -93c-25 0 -47 9 -67 28s-30 41 -30 65z" />
    <glyph glyph-name="Agrave" unicode="&#xc0;" horiz-adv-x="659" 
d="M472 0l-24 55h-237l-24 -55h-185l300 672h55l300 -672h-185zM387 193l-57 153l-58 -153h115zM267 724l-147 156v30h207l64 -186h-124z" />
    <glyph glyph-name="Amacron" unicode="&#x100;" horiz-adv-x="659" 
d="M472 0l-24 55h-237l-24 -55h-185l300 672h55l300 -672h-185zM387 193l-57 153l-58 -153h115zM160 745v134h340v-134h-340z" />
    <glyph glyph-name="Aogonek" unicode="&#x104;" horiz-adv-x="659" 
d="M472 0l-24 55h-237l-24 -55h-185l300 672h55l300 -672h-185zM387 193l-57 153l-58 -153h115zM432 -84c0 64 50 110 153 150l72 -66l-34 -19c-20 -12 -30 -19 -30 -31c0 -13 10 -22 29 -22c7 0 18 2 35 5v-108c-33 -11 -65 -17 -96 -17c-81 0 -129 45 -129 108z" />
    <glyph glyph-name="Aring" unicode="&#xc5;" horiz-adv-x="659" 
d="M472 0l-24 55h-237l-24 -55h-185l300 672h55l300 -672h-185zM387 193l-57 153l-58 -153h115zM193 792c0 37 13 68 38 93c26 25 59 38 98 38c80 0 137 -56 137 -131c0 -37 -13 -69 -39 -94c-25 -25 -58 -38 -98 -38c-39 0 -72 13 -98 38c-25 25 -38 57 -38 94zM365 792
c0 20 -15 35 -35 35c-21 0 -35 -15 -35 -35c0 -21 15 -36 35 -36c19 0 35 16 35 36z" />
    <glyph glyph-name="Atilde" unicode="&#xc3;" horiz-adv-x="659" 
d="M472 0l-24 55h-237l-24 -55h-185l300 672h55l300 -672h-185zM387 193l-57 153l-58 -153h115zM339 735l-28 14c-20 10 -35 15 -45 15c-17 0 -27 -12 -27 -31v-8h-128c-2 13 -3 26 -3 38c0 97 65 156 135 156c25 0 50 -7 77 -20l28 -14c20 -10 35 -15 45 -15
c17 0 27 12 27 31v8h128c2 -13 3 -25 3 -38c0 -97 -65 -156 -135 -156c-25 0 -50 7 -77 20z" />
    <glyph glyph-name="AE" unicode="&#xc6;" horiz-adv-x="873" 
d="M590 155h242v-155h-381l-10 55h-228l-28 -55h-185l334 660h486v-155h-287l15 -91h190v-144h-167zM383 415l-103 -222h137z" />
    <glyph glyph-name="AEacute" unicode="&#x1fc;" horiz-adv-x="873" 
d="M590 155h242v-155h-381l-10 55h-228l-28 -55h-185l334 660h486v-155h-287l15 -91h190v-144h-167zM383 415l-103 -222h137zM355 724l64 186h207v-30l-147 -156h-124z" />
    <glyph glyph-name="Cacute" unicode="&#x106;" horiz-adv-x="723" 
d="M32 330c-3 189 161 346 357 342c132 0 242 -65 302 -177l-131 -89c-43 72 -100 108 -172 108c-105 0 -180 -74 -180 -185c0 -55 17 -99 50 -133c34 -33 77 -50 130 -50c72 0 129 36 172 108l131 -89c-60 -112 -170 -177 -303 -177c-194 -3 -360 151 -356 342zM322 724
l64 186h207v-30l-147 -156h-124z" />
    <glyph glyph-name="Ccaron" unicode="&#x10c;" horiz-adv-x="723" 
d="M32 330c-3 189 161 346 357 342c132 0 242 -65 302 -177l-131 -89c-43 72 -100 108 -172 108c-105 0 -180 -74 -180 -185c0 -55 17 -99 50 -133c34 -33 77 -50 130 -50c72 0 129 36 172 108l131 -89c-60 -112 -170 -177 -303 -177c-194 -3 -360 151 -356 342zM466 910
h130l-149 -186h-115l-149 186h129l77 -64z" />
    <glyph glyph-name="Ccedilla" unicode="&#xc7;" horiz-adv-x="723" 
d="M32 330c-3 189 161 346 357 342c132 0 242 -65 302 -177l-131 -89c-43 72 -100 108 -172 108c-105 0 -180 -74 -180 -185c0 -55 17 -99 50 -133c34 -33 77 -50 130 -50c72 0 129 36 172 108l131 -89c-60 -112 -170 -177 -303 -177c-194 -3 -360 151 -356 342zM243 -183
v112c18 -1 39 -1 63 -1c32 0 51 19 51 51v48l66 28c43 -24 68 -64 68 -112c0 -77 -66 -135 -171 -135c-26 0 -52 3 -77 9z" />
    <glyph glyph-name="Ccircumflex" unicode="&#x108;" horiz-adv-x="723" 
d="M32 330c-3 189 161 346 357 342c132 0 242 -65 302 -177l-131 -89c-43 72 -100 108 -172 108c-105 0 -180 -74 -180 -185c0 -55 17 -99 50 -133c34 -33 77 -50 130 -50c72 0 129 36 172 108l131 -89c-60 -112 -170 -177 -303 -177c-194 -3 -360 151 -356 342zM596 724
h-130l-77 64l-77 -64h-129l149 186h115z" />
    <glyph glyph-name="Cdotaccent" unicode="&#x10a;" horiz-adv-x="723" 
d="M32 330c-3 189 161 346 357 342c132 0 242 -65 302 -177l-131 -89c-43 72 -100 108 -172 108c-105 0 -180 -74 -180 -185c0 -55 17 -99 50 -133c34 -33 77 -50 130 -50c72 0 129 36 172 108l131 -89c-60 -112 -170 -177 -303 -177c-194 -3 -360 151 -356 342zM284 818
c0 57 46 102 105 102s106 -45 106 -102c0 -56 -47 -101 -106 -101s-105 44 -105 101z" />
    <glyph glyph-name="Eth" unicode="&#xd0;" horiz-adv-x="688" 
d="M656 332c3 -195 -158 -335 -360 -332h-230v246h-76v144h76v270h230c202 2 363 -130 360 -328zM480 332c0 112 -76 172 -185 172h-57v-114h93v-144h-93v-91h57c108 0 185 68 185 177z" />
    <glyph glyph-name="Dcaron" unicode="&#x10e;" horiz-adv-x="688" 
d="M66 0v660h230c202 2 363 -130 360 -328c3 -195 -158 -335 -360 -332h-230zM238 155h57c108 0 185 68 185 177c0 112 -76 172 -185 172h-57v-349zM352 910h130l-149 -186h-115l-149 186h129l77 -64z" />
    <glyph glyph-name="Dcroat" unicode="&#x110;" horiz-adv-x="688" 
d="M656 332c3 -195 -158 -335 -360 -332h-230v246h-76v144h76v270h230c202 2 363 -130 360 -328zM480 332c0 112 -76 172 -185 172h-57v-114h93v-144h-93v-91h57c108 0 185 68 185 177z" />
    <glyph glyph-name="Eacute" unicode="&#xc9;" horiz-adv-x="577" 
d="M66 0v660h458v-155h-286v-91h204v-144h-204v-115h298v-155h-470zM221 724l64 186h207v-30l-147 -156h-124z" />
    <glyph glyph-name="Ebreve" unicode="&#x114;" horiz-adv-x="577" 
d="M66 0v660h458v-155h-286v-91h204v-144h-204v-115h298v-155h-470zM103 901v9h133v-9c0 -37 20 -60 53 -60s53 23 53 60v9h133v-9c0 -109 -77 -186 -186 -186s-186 77 -186 186z" />
    <glyph glyph-name="Ecaron" unicode="&#x11a;" horiz-adv-x="577" 
d="M66 0v660h458v-155h-286v-91h204v-144h-204v-115h298v-155h-470zM365 910h130l-149 -186h-115l-149 186h129l77 -64z" />
    <glyph glyph-name="Ecircumflex" unicode="&#xca;" horiz-adv-x="577" 
d="M66 0v660h458v-155h-286v-91h204v-144h-204v-115h298v-155h-470zM495 724h-130l-77 64l-77 -64h-129l149 186h115z" />
    <glyph glyph-name="Edieresis" unicode="&#xcb;" horiz-adv-x="577" 
d="M66 0v660h458v-155h-286v-91h204v-144h-204v-115h298v-155h-470zM54 817c0 26 10 48 29 66c20 19 43 28 68 28c55 0 98 -41 98 -94c0 -49 -45 -93 -98 -93c-25 0 -47 9 -67 28s-30 41 -30 65zM329 816c0 26 10 48 29 66c20 19 43 28 68 28c55 0 98 -41 98 -94
c0 -49 -45 -93 -98 -93c-25 0 -47 9 -67 28s-30 41 -30 65z" />
    <glyph glyph-name="Edotaccent" unicode="&#x116;" horiz-adv-x="577" 
d="M66 0v660h458v-155h-286v-91h204v-144h-204v-115h298v-155h-470zM183 818c0 57 46 102 105 102s106 -45 106 -102c0 -56 -47 -101 -106 -101s-105 44 -105 101z" />
    <glyph glyph-name="Egrave" unicode="&#xc8;" horiz-adv-x="577" 
d="M66 0v660h458v-155h-286v-91h204v-144h-204v-115h298v-155h-470zM226 724l-147 156v30h207l64 -186h-124z" />
    <glyph glyph-name="Emacron" unicode="&#x112;" horiz-adv-x="577" 
d="M66 0v660h458v-155h-286v-91h204v-144h-204v-115h298v-155h-470zM119 745v134h340v-134h-340z" />
    <glyph glyph-name="Eogonek" unicode="&#x118;" horiz-adv-x="577" 
d="M66 0v660h458v-155h-286v-91h204v-144h-204v-115h298v-155h-470zM311 -84c0 64 50 110 153 150l72 -66l-34 -19c-20 -12 -30 -19 -30 -31c0 -13 10 -22 29 -22c7 0 18 2 35 5v-108c-33 -11 -65 -17 -96 -17c-81 0 -129 45 -129 108z" />
    <glyph glyph-name="Gbreve" unicode="&#x11e;" horiz-adv-x="747" 
d="M32 330c-3 190 161 345 359 342c121 0 220 -52 284 -147l-120 -102c-43 60 -95 91 -167 91c-111 0 -180 -73 -180 -184c0 -113 73 -189 190 -189c63 0 113 22 145 59v31h-154v148h326v-208c-31 -55 -75 -99 -132 -133c-57 -33 -121 -50 -192 -50
c-198 -3 -362 151 -359 342zM205 901v9h133v-9c0 -37 20 -60 53 -60s53 23 53 60v9h133v-9c0 -109 -77 -186 -186 -186s-186 77 -186 186z" />
    <glyph glyph-name="Gcircumflex" unicode="&#x11c;" horiz-adv-x="747" 
d="M32 330c-3 190 161 345 359 342c121 0 220 -52 284 -147l-120 -102c-43 60 -95 91 -167 91c-111 0 -180 -73 -180 -184c0 -113 73 -189 190 -189c63 0 113 22 145 59v31h-154v148h326v-208c-31 -55 -75 -99 -132 -133c-57 -33 -121 -50 -192 -50
c-198 -3 -362 151 -359 342zM597 724h-130l-77 64l-77 -64h-129l149 186h115z" />
    <glyph glyph-name="uni0122" unicode="&#x122;" horiz-adv-x="747" 
d="M32 330c-3 190 161 345 359 342c121 0 220 -52 284 -147l-120 -102c-43 60 -95 91 -167 91c-111 0 -180 -73 -180 -184c0 -113 73 -189 190 -189c63 0 113 22 145 59v31h-154v148h326v-208c-31 -55 -75 -99 -132 -133c-57 -33 -121 -50 -192 -50
c-198 -3 -362 151 -359 342zM315 -220v176h156l-26 -176h-130z" />
    <glyph glyph-name="Gdotaccent" unicode="&#x120;" horiz-adv-x="747" 
d="M32 330c-3 190 161 345 359 342c121 0 220 -52 284 -147l-120 -102c-43 60 -95 91 -167 91c-111 0 -180 -73 -180 -184c0 -113 73 -189 190 -189c63 0 113 22 145 59v31h-154v148h326v-208c-31 -55 -75 -99 -132 -133c-57 -33 -121 -50 -192 -50
c-198 -3 -362 151 -359 342zM285 818c0 57 46 102 105 102s106 -45 106 -102c0 -56 -47 -101 -106 -101s-105 44 -105 101z" />
    <glyph glyph-name="Hbar" unicode="&#x126;" horiz-adv-x="741" 
d="M78 0v420h-88v144h88v96h172v-96h241v96h172v-96h88v-144h-88v-420h-172v189h-241v-189h-172zM250 334h241v86h-241v-86z" />
    <glyph glyph-name="Hcircumflex" unicode="&#x124;" horiz-adv-x="717" 
d="M66 0v660h172v-241h241v241h172v-660h-172v264h-241v-264h-172zM565 724h-130l-77 64l-77 -64h-129l149 186h115z" />
    <glyph glyph-name="IJ" unicode="&#x132;" horiz-adv-x="703" 
d="M66 0v660h172v-660h-172zM316 0v146l63 -2c63 0 86 18 86 66v450h172v-469c0 -135 -77 -203 -220 -203c-34 0 -68 4 -101 12z" />
    <glyph glyph-name="Iacute" unicode="&#xcd;" horiz-adv-x="304" 
d="M66 0v660h172v-660h-172zM84 724l64 186h207v-30l-147 -156h-124z" />
    <glyph glyph-name="Ibreve" unicode="&#x12c;" horiz-adv-x="304" 
d="M66 0v660h172v-660h-172zM-34 901v9h133v-9c0 -37 20 -60 53 -60s53 23 53 60v9h133v-9c0 -109 -77 -186 -186 -186s-186 77 -186 186z" />
    <glyph glyph-name="Icircumflex" unicode="&#xce;" horiz-adv-x="304" 
d="M66 0v660h172v-660h-172zM358 724h-130l-77 64l-77 -64h-129l149 186h115z" />
    <glyph glyph-name="Idieresis" unicode="&#xcf;" horiz-adv-x="304" 
d="M66 0v660h172v-660h-172zM-83 817c0 26 10 48 30 66c19 19 42 28 67 28c55 0 98 -41 98 -94c0 -49 -45 -93 -98 -93c-25 0 -47 9 -67 28s-30 41 -30 65zM192 816c0 26 10 48 29 66c20 19 43 28 68 28c55 0 98 -41 98 -94c0 -49 -45 -93 -98 -93c-25 0 -47 9 -67 28
s-30 41 -30 65z" />
    <glyph glyph-name="Idot" unicode="&#x130;" horiz-adv-x="304" 
d="M66 0v660h172v-660h-172zM46 818c0 57 46 102 105 102s106 -45 106 -102c0 -56 -47 -101 -106 -101s-105 44 -105 101z" />
    <glyph glyph-name="Igrave" unicode="&#xcc;" horiz-adv-x="304" 
d="M66 0v660h172v-660h-172zM89 724l-147 156v30h207l64 -186h-124z" />
    <glyph glyph-name="Imacron" unicode="&#x12a;" horiz-adv-x="304" 
d="M66 0v660h172v-660h-172zM-18 745v134h340v-134h-340z" />
    <glyph glyph-name="Iogonek" unicode="&#x12e;" horiz-adv-x="304" 
d="M66 0v660h172v-660h-172zM13 -84c0 64 50 110 153 150l72 -66l-34 -19c-20 -12 -30 -19 -30 -31c0 -13 10 -22 29 -22c7 0 18 2 35 5v-108c-33 -11 -65 -17 -96 -17c-81 0 -129 45 -129 108z" />
    <glyph glyph-name="Itilde" unicode="&#x128;" horiz-adv-x="304" 
d="M66 0v660h172v-660h-172zM161 735l-28 14c-20 10 -35 15 -45 15c-17 0 -27 -12 -27 -31v-8h-128c-2 13 -3 26 -3 38c0 97 65 156 135 156c25 0 50 -7 77 -20l28 -14c20 -10 35 -15 45 -15c17 0 27 12 27 31v8h128c2 -13 3 -25 3 -38c0 -97 -65 -156 -135 -156
c-25 0 -50 7 -77 20z" />
    <glyph glyph-name="Jcircumflex" unicode="&#x134;" horiz-adv-x="399" 
d="M12 0v146l63 -2c63 0 86 18 86 66v450h172v-469c0 -135 -77 -203 -220 -203c-34 0 -68 4 -101 12zM429 724h-130l-77 64l-77 -64h-129l149 186h115z" />
    <glyph glyph-name="uni0136" unicode="&#x136;" horiz-adv-x="695" 
d="M693 0h-204l-251 329v-329h-172v660h172v-299l218 299h200l-227 -314zM254 -220v176h156l-26 -176h-130z" />
    <glyph glyph-name="Lacute" unicode="&#x139;" horiz-adv-x="535" 
d="M66 0v660h172v-505h273v-155h-445zM84 724l64 186h207v-30l-147 -156h-124z" />
    <glyph glyph-name="Lcaron" unicode="&#x13d;" horiz-adv-x="535" 
d="M66 0v660h172v-505h273v-155h-445zM358 518v202h175l-55 -202h-120z" />
    <glyph glyph-name="uni013B" unicode="&#x13b;" horiz-adv-x="535" 
d="M66 0v660h172v-505h273v-155h-445zM209 -220v176h156l-26 -176h-130z" />
    <glyph glyph-name="Ldot" unicode="&#x13f;" horiz-adv-x="535" 
d="M66 0v660h172v-505h273v-155h-445zM311 384c0 63 47 112 114 112c64 0 111 -49 111 -112c0 -64 -47 -112 -111 -112c-67 0 -114 48 -114 112z" />
    <glyph glyph-name="Lslash" unicode="&#x141;" horiz-adv-x="535" 
d="M238 155h273v-155h-445v172l-68 -31v159l68 31v329h172v-260l185 84v-159l-185 -84v-86z" />
    <glyph glyph-name="Nacute" unicode="&#x143;" horiz-adv-x="717" 
d="M479 660h172v-672h-55l-358 347v-335h-172v672h55l358 -342v330zM291 724l64 186h207v-30l-147 -156h-124z" />
    <glyph glyph-name="Ncaron" unicode="&#x147;" horiz-adv-x="717" 
d="M479 660h172v-672h-55l-358 347v-335h-172v672h55l358 -342v330zM435 910h130l-149 -186h-115l-149 186h129l77 -64z" />
    <glyph glyph-name="uni0145" unicode="&#x145;" horiz-adv-x="717" 
d="M479 660h172v-672h-55l-358 347v-335h-172v672h55l358 -342v330zM283 -220v176h156l-26 -176h-130z" />
    <glyph glyph-name="Eng" unicode="&#x14a;" horiz-adv-x="717" 
d="M479 660h172v-649c0 -133 -78 -203 -210 -203c-33 0 -60 4 -83 12v144c20 -1 33 -2 39 -2c59 0 82 19 82 66v1l-241 272v-301h-172v672h55l358 -397v385z" />
    <glyph glyph-name="Ntilde" unicode="&#xd1;" horiz-adv-x="717" 
d="M479 660h172v-672h-55l-358 347v-335h-172v672h55l358 -342v330zM368 735l-28 14c-20 10 -35 15 -45 15c-17 0 -27 -12 -27 -31v-8h-128c-2 13 -3 26 -3 38c0 97 65 156 135 156c25 0 50 -7 77 -20l28 -14c20 -10 35 -15 45 -15c17 0 27 12 27 31v8h128
c2 -13 3 -25 3 -38c0 -97 -65 -156 -135 -156c-25 0 -50 7 -77 20z" />
    <glyph glyph-name="Oacute" unicode="&#xd3;" horiz-adv-x="776" 
d="M32 330c-4 189 162 346 355 342c192 4 361 -153 357 -342c4 -191 -165 -345 -357 -342c-193 -3 -359 151 -355 342zM568 330c0 109 -78 184 -180 184c-106 0 -180 -75 -180 -184c0 -55 17 -100 50 -134c33 -33 77 -50 130 -50c102 0 180 74 180 184zM320 724l64 186h207
v-30l-147 -156h-124z" />
    <glyph glyph-name="Obreve" unicode="&#x14e;" horiz-adv-x="776" 
d="M32 330c-4 189 162 346 355 342c192 4 361 -153 357 -342c4 -191 -165 -345 -357 -342c-193 -3 -359 151 -355 342zM568 330c0 109 -78 184 -180 184c-106 0 -180 -75 -180 -184c0 -55 17 -100 50 -134c33 -33 77 -50 130 -50c102 0 180 74 180 184zM202 901v9h133v-9
c0 -37 20 -60 53 -60s53 23 53 60v9h133v-9c0 -109 -77 -186 -186 -186s-186 77 -186 186z" />
    <glyph glyph-name="Ocircumflex" unicode="&#xd4;" horiz-adv-x="776" 
d="M32 330c-4 189 162 346 355 342c192 4 361 -153 357 -342c4 -191 -165 -345 -357 -342c-193 -3 -359 151 -355 342zM568 330c0 109 -78 184 -180 184c-106 0 -180 -75 -180 -184c0 -55 17 -100 50 -134c33 -33 77 -50 130 -50c102 0 180 74 180 184zM594 724h-130l-77 64
l-77 -64h-129l149 186h115z" />
    <glyph glyph-name="Odieresis" unicode="&#xd6;" horiz-adv-x="776" 
d="M32 330c-4 189 162 346 355 342c192 4 361 -153 357 -342c4 -191 -165 -345 -357 -342c-193 -3 -359 151 -355 342zM568 330c0 109 -78 184 -180 184c-106 0 -180 -75 -180 -184c0 -55 17 -100 50 -134c33 -33 77 -50 130 -50c102 0 180 74 180 184zM153 817
c0 26 10 48 29 66c20 19 43 28 68 28c55 0 98 -41 98 -94c0 -49 -45 -93 -98 -93c-25 0 -47 9 -67 28s-30 41 -30 65zM428 816c0 26 10 48 29 66c20 19 43 28 68 28c55 0 98 -41 98 -94c0 -49 -45 -93 -98 -93c-25 0 -47 9 -67 28s-30 41 -30 65z" />
    <glyph glyph-name="Ograve" unicode="&#xd2;" horiz-adv-x="776" 
d="M32 330c-4 189 162 346 355 342c192 4 361 -153 357 -342c4 -191 -165 -345 -357 -342c-193 -3 -359 151 -355 342zM568 330c0 109 -78 184 -180 184c-106 0 -180 -75 -180 -184c0 -55 17 -100 50 -134c33 -33 77 -50 130 -50c102 0 180 74 180 184zM325 724l-147 156v30
h207l64 -186h-124z" />
    <glyph glyph-name="Ohungarumlaut" unicode="&#x150;" horiz-adv-x="776" 
d="M32 330c-4 189 162 346 355 342c192 4 361 -153 357 -342c4 -191 -165 -345 -357 -342c-193 -3 -359 151 -355 342zM568 330c0 109 -78 184 -180 184c-106 0 -180 -75 -180 -184c0 -55 17 -100 50 -134c33 -33 77 -50 130 -50c102 0 180 74 180 184zM194 724l64 186h177
v-30l-127 -156h-114zM443 724l64 186h177v-30l-127 -156h-114z" />
    <glyph glyph-name="Omacron" unicode="&#x14c;" horiz-adv-x="776" 
d="M32 330c-4 189 162 346 355 342c192 4 361 -153 357 -342c4 -191 -165 -345 -357 -342c-193 -3 -359 151 -355 342zM568 330c0 109 -78 184 -180 184c-106 0 -180 -75 -180 -184c0 -55 17 -100 50 -134c33 -33 77 -50 130 -50c102 0 180 74 180 184zM218 745v134h340
v-134h-340z" />
    <glyph glyph-name="Oslash" unicode="&#xd8;" horiz-adv-x="776" 
d="M752 593l-69 -69c41 -59 61 -123 61 -194c4 -191 -165 -345 -357 -342c-69 0 -132 17 -188 50l-73 -73l-102 102l68 69c-40 57 -60 121 -60 194c-4 189 162 346 355 342c69 0 132 -17 189 -51l74 74zM200 330c0 -27 4 -52 12 -74l251 251c-22 10 -47 15 -75 15
c-109 0 -188 -78 -188 -192zM576 330c0 27 -4 52 -13 73l-251 -251c24 -9 49 -14 76 -14c107 0 188 78 188 192z" />
    <glyph glyph-name="Oslashacute" unicode="&#x1fe;" horiz-adv-x="776" 
d="M752 593l-69 -69c41 -59 61 -123 61 -194c4 -191 -165 -345 -357 -342c-69 0 -132 17 -188 50l-73 -73l-102 102l68 69c-40 57 -60 121 -60 194c-4 189 162 346 355 342c69 0 132 -17 189 -51l74 74zM200 330c0 -27 4 -52 12 -74l251 251c-22 10 -47 15 -75 15
c-109 0 -188 -78 -188 -192zM576 330c0 27 -4 52 -13 73l-251 -251c24 -9 49 -14 76 -14c107 0 188 78 188 192zM320 724l64 186h207v-30l-147 -156h-124z" />
    <glyph glyph-name="Otilde" unicode="&#xd5;" horiz-adv-x="776" 
d="M32 330c-4 189 162 346 355 342c192 4 361 -153 357 -342c4 -191 -165 -345 -357 -342c-193 -3 -359 151 -355 342zM568 330c0 109 -78 184 -180 184c-106 0 -180 -75 -180 -184c0 -55 17 -100 50 -134c33 -33 77 -50 130 -50c102 0 180 74 180 184zM397 735l-28 14
c-20 10 -35 15 -45 15c-17 0 -27 -12 -27 -31v-8h-128c-2 13 -3 26 -3 38c0 97 65 156 135 156c25 0 50 -7 77 -20l28 -14c20 -10 35 -15 45 -15c17 0 27 12 27 31v8h128c2 -13 3 -25 3 -38c0 -97 -65 -156 -135 -156c-25 0 -50 7 -77 20z" />
    <glyph glyph-name="OE" unicode="&#x152;" horiz-adv-x="1079" 
d="M740 155h298v-155h-470v41c-49 -35 -109 -53 -182 -53c-197 -3 -358 151 -354 342c-3 190 156 345 355 342c73 0 133 -18 181 -53v41h458v-155h-286v-91h204v-144h-204v-115zM568 329c0 111 -77 185 -181 185s-179 -74 -179 -185s75 -183 179 -183c103 0 181 73 181 183z
" />
    <glyph glyph-name="Thorn" unicode="&#xde;" horiz-adv-x="607" 
d="M66 0v660h172v-91h87c147 0 255 -90 255 -227c0 -135 -111 -228 -255 -228h-87v-114h-172zM238 264h88c48 0 79 31 79 78s-31 77 -79 77h-88v-155z" />
    <glyph glyph-name="Racute" unicode="&#x154;" horiz-adv-x="652" 
d="M650 0h-192l-149 205h-71v-205h-172v660h259c147 0 255 -90 255 -227c0 -81 -39 -148 -104 -188zM238 510v-155h88c48 0 79 31 79 78s-31 77 -79 77h-88zM198 724l64 186h207v-30l-147 -156h-124z" />
    <glyph glyph-name="Rcaron" unicode="&#x158;" horiz-adv-x="652" 
d="M650 0h-192l-149 205h-71v-205h-172v660h259c147 0 255 -90 255 -227c0 -81 -39 -148 -104 -188zM238 510v-155h88c48 0 79 31 79 78s-31 77 -79 77h-88zM342 910h130l-149 -186h-115l-149 186h129l77 -64z" />
    <glyph glyph-name="uni0156" unicode="&#x156;" horiz-adv-x="652" 
d="M650 0h-192l-149 205h-71v-205h-172v660h259c147 0 255 -90 255 -227c0 -81 -39 -148 -104 -188zM238 510v-155h88c48 0 79 31 79 78s-31 77 -79 77h-88zM260 -220v176h156l-26 -176h-130z" />
    <glyph glyph-name="Sacute" unicode="&#x15a;" 
d="M23 136l116 88c39 -52 80 -85 147 -85c45 0 68 16 68 48c0 29 -15 38 -67 61l-68 30c-109 48 -167 110 -167 199c0 117 96 195 231 195c109 0 186 -52 226 -133l-115 -88c-32 48 -62 70 -109 70c-36 0 -59 -14 -59 -42c0 -24 14 -37 57 -54l76 -32
c115 -48 169 -106 169 -199c0 -128 -105 -206 -242 -206c-119 0 -215 57 -263 148zM212 724l64 186h207v-30l-147 -156h-124z" />
    <glyph glyph-name="Scaron" unicode="&#x160;" 
d="M23 136l116 88c39 -52 80 -85 147 -85c45 0 68 16 68 48c0 29 -15 38 -67 61l-68 30c-109 48 -167 110 -167 199c0 117 96 195 231 195c109 0 186 -52 226 -133l-115 -88c-32 48 -62 70 -109 70c-36 0 -59 -14 -59 -42c0 -24 14 -37 57 -54l76 -32
c115 -48 169 -106 169 -199c0 -128 -105 -206 -242 -206c-119 0 -215 57 -263 148zM356 910h130l-149 -186h-115l-149 186h129l77 -64z" />
    <glyph glyph-name="Scedilla" unicode="&#x15e;" 
d="M23 136l116 88c39 -52 80 -85 147 -85c45 0 68 16 68 48c0 29 -15 38 -67 61l-68 30c-109 48 -167 110 -167 199c0 117 96 195 231 195c109 0 186 -52 226 -133l-115 -88c-32 48 -62 70 -109 70c-36 0 -59 -14 -59 -42c0 -24 14 -37 57 -54l76 -32
c115 -48 169 -106 169 -199c0 -128 -105 -206 -242 -206c-119 0 -215 57 -263 148zM133 -183v112c18 -1 39 -1 63 -1c32 0 51 19 51 51v48l66 28c43 -24 68 -64 68 -112c0 -77 -66 -135 -171 -135c-26 0 -52 3 -77 9z" />
    <glyph glyph-name="Scircumflex" unicode="&#x15c;" 
d="M23 136l116 88c39 -52 80 -85 147 -85c45 0 68 16 68 48c0 29 -15 38 -67 61l-68 30c-109 48 -167 110 -167 199c0 117 96 195 231 195c109 0 186 -52 226 -133l-115 -88c-32 48 -62 70 -109 70c-36 0 -59 -14 -59 -42c0 -24 14 -37 57 -54l76 -32
c115 -48 169 -106 169 -199c0 -128 -105 -206 -242 -206c-119 0 -215 57 -263 148zM486 724h-130l-77 64l-77 -64h-129l149 186h115z" />
    <glyph glyph-name="uni0218" unicode="&#x218;" 
d="M23 136l116 88c39 -52 80 -85 147 -85c45 0 68 16 68 48c0 29 -15 38 -67 61l-68 30c-109 48 -167 110 -167 199c0 117 96 195 231 195c109 0 186 -52 226 -133l-115 -88c-32 48 -62 70 -109 70c-36 0 -59 -14 -59 -42c0 -24 14 -37 57 -54l76 -32
c115 -48 169 -106 169 -199c0 -128 -105 -206 -242 -206c-119 0 -215 57 -263 148zM204 -220v176h156l-26 -176h-130z" />
    <glyph glyph-name="uni1E9E" unicode="&#x1e9e;" horiz-adv-x="744" 
d="M714 214c0 -139 -108 -226 -237 -226c-75 0 -145 29 -200 81l87 123c33 -31 67 -47 102 -47c45 0 75 28 75 72c0 49 -37 72 -117 72h-80v42l88 174h-194v-505h-172v660h598v-45l-96 -192c84 -28 146 -102 146 -209z" />
    <glyph glyph-name="uni018F" unicode="&#x18f;" horiz-adv-x="734" 
d="M702 331c4 -191 -162 -346 -351 -343c-185 0 -319 131 -319 308c0 33 4 73 11 96h477c-20 77 -82 123 -167 123c-65 0 -121 -32 -168 -96l-116 100c65 95 162 153 283 153c197 3 353 -150 350 -341zM516 257h-318c3 -36 20 -64 50 -83c31 -19 66 -28 105 -28
c77 0 138 42 163 111z" />
    <glyph glyph-name="Tbar" unicode="&#x166;" horiz-adv-x="588" 
d="M208 0v206h-164v144h164v155h-198v155h568v-155h-198v-155h164v-144h-164v-206h-172z" />
    <glyph glyph-name="Tcaron" unicode="&#x164;" horiz-adv-x="588" 
d="M208 0v505h-198v155h568v-155h-198v-505h-172zM370 910h130l-149 -186h-115l-149 186h129l77 -64z" />
    <glyph glyph-name="uni0162" unicode="&#x162;" horiz-adv-x="588" 
d="M208 0v505h-198v155h568v-155h-198v-505h-172zM147 -183v112c18 -1 39 -1 63 -1c32 0 51 19 51 51v48l66 28c43 -24 68 -64 68 -112c0 -77 -66 -135 -171 -135c-26 0 -52 3 -77 9z" />
    <glyph glyph-name="uni021A" unicode="&#x21a;" horiz-adv-x="588" 
d="M208 0v505h-198v155h568v-155h-198v-505h-172zM218 -220v176h156l-26 -176h-130z" />
    <glyph glyph-name="Uacute" unicode="&#xda;" horiz-adv-x="708" 
d="M62 280v380h172v-393c0 -75 49 -121 120 -121s120 46 120 121v393h172v-380c0 -174 -125 -292 -292 -292c-169 0 -292 116 -292 292zM286 724l64 186h207v-30l-147 -156h-124z" />
    <glyph glyph-name="Ubreve" unicode="&#x16c;" horiz-adv-x="708" 
d="M62 280v380h172v-393c0 -75 49 -121 120 -121s120 46 120 121v393h172v-380c0 -174 -125 -292 -292 -292c-169 0 -292 116 -292 292zM168 901v9h133v-9c0 -37 20 -60 53 -60s53 23 53 60v9h133v-9c0 -109 -77 -186 -186 -186s-186 77 -186 186z" />
    <glyph glyph-name="Ucircumflex" unicode="&#xdb;" horiz-adv-x="708" 
d="M62 280v380h172v-393c0 -75 49 -121 120 -121s120 46 120 121v393h172v-380c0 -174 -125 -292 -292 -292c-169 0 -292 116 -292 292zM560 724h-130l-77 64l-77 -64h-129l149 186h115z" />
    <glyph glyph-name="Udieresis" unicode="&#xdc;" horiz-adv-x="708" 
d="M62 280v380h172v-393c0 -75 49 -121 120 -121s120 46 120 121v393h172v-380c0 -174 -125 -292 -292 -292c-169 0 -292 116 -292 292zM119 817c0 26 10 48 29 66c20 19 43 28 68 28c55 0 98 -41 98 -94c0 -49 -45 -93 -98 -93c-25 0 -47 9 -67 28s-30 41 -30 65zM394 816
c0 26 10 48 29 66c20 19 43 28 68 28c55 0 98 -41 98 -94c0 -49 -45 -93 -98 -93c-25 0 -47 9 -67 28s-30 41 -30 65z" />
    <glyph glyph-name="Ugrave" unicode="&#xd9;" horiz-adv-x="708" 
d="M62 280v380h172v-393c0 -75 49 -121 120 -121s120 46 120 121v393h172v-380c0 -174 -125 -292 -292 -292c-169 0 -292 116 -292 292zM291 724l-147 156v30h207l64 -186h-124z" />
    <glyph glyph-name="Uhungarumlaut" unicode="&#x170;" horiz-adv-x="708" 
d="M62 280v380h172v-393c0 -75 49 -121 120 -121s120 46 120 121v393h172v-380c0 -174 -125 -292 -292 -292c-169 0 -292 116 -292 292zM160 724l64 186h177v-30l-127 -156h-114zM409 724l64 186h177v-30l-127 -156h-114z" />
    <glyph glyph-name="Umacron" unicode="&#x16a;" horiz-adv-x="708" 
d="M62 280v380h172v-393c0 -75 49 -121 120 -121s120 46 120 121v393h172v-380c0 -174 -125 -292 -292 -292c-169 0 -292 116 -292 292zM184 745v134h340v-134h-340z" />
    <glyph glyph-name="Uogonek" unicode="&#x172;" horiz-adv-x="708" 
d="M62 280v380h172v-393c0 -75 49 -121 120 -121s120 46 120 121v393h172v-380c0 -174 -125 -292 -292 -292c-169 0 -292 116 -292 292zM292 -84c0 47 17 70 106 139h150l-76 -74c-13 -13 -19 -23 -19 -31c0 -13 10 -22 29 -22c5 0 16 2 35 5v-108c-30 -11 -62 -17 -96 -17
c-79 0 -129 43 -129 108z" />
    <glyph glyph-name="Uring" unicode="&#x16e;" horiz-adv-x="708" 
d="M62 280v380h172v-393c0 -75 49 -121 120 -121s120 46 120 121v393h172v-380c0 -174 -125 -292 -292 -292c-169 0 -292 116 -292 292zM217 792c0 37 13 68 38 93c26 25 59 38 98 38c80 0 137 -56 137 -131c0 -37 -13 -69 -39 -94c-25 -25 -58 -38 -98 -38
c-39 0 -72 13 -98 38c-25 25 -38 57 -38 94zM389 792c0 20 -15 35 -35 35c-21 0 -35 -15 -35 -35c0 -21 15 -36 35 -36c19 0 35 16 35 36z" />
    <glyph glyph-name="Utilde" unicode="&#x168;" horiz-adv-x="708" 
d="M62 280v380h172v-393c0 -75 49 -121 120 -121s120 46 120 121v393h172v-380c0 -174 -125 -292 -292 -292c-169 0 -292 116 -292 292zM363 735l-28 14c-20 10 -35 15 -45 15c-17 0 -27 -12 -27 -31v-8h-128c-2 13 -3 26 -3 38c0 97 65 156 135 156c25 0 50 -7 77 -20
l28 -14c20 -10 35 -15 45 -15c17 0 27 12 27 31v8h128c2 -13 3 -25 3 -38c0 -97 -65 -156 -135 -156c-25 0 -50 7 -77 20z" />
    <glyph glyph-name="Wacute" unicode="&#x1e82;" horiz-adv-x="1015" 
d="M811 660h192l-272 -672h-55l-168 345l-169 -345h-55l-272 672h192l124 -317l152 329h55l152 -329zM440 724l64 186h207v-30l-147 -156h-124z" />
    <glyph glyph-name="Wcircumflex" unicode="&#x174;" horiz-adv-x="1015" 
d="M811 660h192l-272 -672h-55l-168 345l-169 -345h-55l-272 672h192l124 -317l152 329h55l152 -329zM714 724h-130l-77 64l-77 -64h-129l149 186h115z" />
    <glyph glyph-name="Wdieresis" unicode="&#x1e84;" horiz-adv-x="1015" 
d="M811 660h192l-272 -672h-55l-168 345l-169 -345h-55l-272 672h192l124 -317l152 329h55l152 -329zM273 817c0 26 10 48 29 66c20 19 43 28 68 28c55 0 98 -41 98 -94c0 -49 -45 -93 -98 -93c-25 0 -47 9 -67 28s-30 41 -30 65zM548 816c0 26 10 48 29 66
c20 19 43 28 68 28c55 0 98 -41 98 -94c0 -49 -45 -93 -98 -93c-25 0 -47 9 -67 28s-30 41 -30 65z" />
    <glyph glyph-name="Wgrave" unicode="&#x1e80;" horiz-adv-x="1015" 
d="M811 660h192l-272 -672h-55l-168 345l-169 -345h-55l-272 672h192l124 -317l152 329h55l152 -329zM445 724l-147 156v30h207l64 -186h-124z" />
    <glyph glyph-name="Yacute" unicode="&#xdd;" horiz-adv-x="629" 
d="M627 660l-226 -407v-253h-172v251l-227 409h190l123 -230l123 230h189zM247 724l64 186h207v-30l-147 -156h-124z" />
    <glyph glyph-name="Ycircumflex" unicode="&#x176;" horiz-adv-x="629" 
d="M627 660l-226 -407v-253h-172v251l-227 409h190l123 -230l123 230h189zM521 724h-130l-77 64l-77 -64h-129l149 186h115z" />
    <glyph glyph-name="Ydieresis" unicode="&#x178;" horiz-adv-x="629" 
d="M627 660l-226 -407v-253h-172v251l-227 409h190l123 -230l123 230h189zM80 817c0 26 10 48 29 66c20 19 43 28 68 28c55 0 98 -41 98 -94c0 -49 -45 -93 -98 -93c-25 0 -47 9 -67 28s-30 41 -30 65zM355 816c0 26 10 48 29 66c20 19 43 28 68 28c55 0 98 -41 98 -94
c0 -49 -45 -93 -98 -93c-25 0 -47 9 -67 28s-30 41 -30 65z" />
    <glyph glyph-name="Ygrave" unicode="&#x1ef2;" horiz-adv-x="629" 
d="M627 660l-226 -407v-253h-172v251l-227 409h190l123 -230l123 230h189zM252 724l-147 156v30h207l64 -186h-124z" />
    <glyph glyph-name="Zacute" unicode="&#x179;" horiz-adv-x="587" 
d="M273 155h291v-155h-552v45l289 460h-246v155h508v-45zM231 724l64 186h207v-30l-147 -156h-124z" />
    <glyph glyph-name="Zcaron" unicode="&#x17d;" horiz-adv-x="587" 
d="M273 155h291v-155h-552v45l289 460h-246v155h508v-45zM375 910h130l-149 -186h-115l-149 186h129l77 -64z" />
    <glyph glyph-name="Zdotaccent" unicode="&#x17b;" horiz-adv-x="587" 
d="M273 155h291v-155h-552v45l289 460h-246v155h508v-45zM193 818c0 57 46 102 105 102s106 -45 106 -102c0 -56 -47 -101 -106 -101s-105 44 -105 101z" />
    <glyph glyph-name="Iacute_J.loclNLD" horiz-adv-x="703" 
d="M66 0v660h172v-660h-172zM84 724l64 186h207v-30l-147 -156h-124zM316 0v146l63 -2c63 0 86 18 86 66v450h172v-469c0 -135 -77 -203 -220 -203c-34 0 -68 4 -101 12zM459 724l64 186h207v-30l-147 -156h-124z" />
    <glyph glyph-name="Cacute.loclPLK" horiz-adv-x="723" 
d="M32 330c-3 189 161 346 357 342c132 0 242 -65 302 -177l-131 -89c-43 72 -100 108 -172 108c-105 0 -180 -74 -180 -185c0 -55 17 -99 50 -133c34 -33 77 -50 130 -50c72 0 129 36 172 108l131 -89c-60 -112 -170 -177 -303 -177c-194 -3 -360 151 -356 342zM327 724
l24 186h207v-30l-107 -156h-124z" />
    <glyph glyph-name="Nacute.loclPLK" horiz-adv-x="717" 
d="M479 660h172v-672h-55l-358 347v-335h-172v672h55l358 -342v330zM296 724l24 186h207v-30l-107 -156h-124z" />
    <glyph glyph-name="Oacute.loclPLK" horiz-adv-x="776" 
d="M32 330c-4 189 162 346 355 342c192 4 361 -153 357 -342c4 -191 -165 -345 -357 -342c-193 -3 -359 151 -355 342zM568 330c0 109 -78 184 -180 184c-106 0 -180 -75 -180 -184c0 -55 17 -100 50 -134c33 -33 77 -50 130 -50c102 0 180 74 180 184zM325 724l24 186h207
v-30l-107 -156h-124z" />
    <glyph glyph-name="Sacute.loclPLK" 
d="M23 136l116 88c39 -52 80 -85 147 -85c45 0 68 16 68 48c0 29 -15 38 -67 61l-68 30c-109 48 -167 110 -167 199c0 117 96 195 231 195c109 0 186 -52 226 -133l-115 -88c-32 48 -62 70 -109 70c-36 0 -59 -14 -59 -42c0 -24 14 -37 57 -54l76 -32
c115 -48 169 -106 169 -199c0 -128 -105 -206 -242 -206c-119 0 -215 57 -263 148zM217 724l24 186h207v-30l-107 -156h-124z" />
    <glyph glyph-name="Zacute.loclPLK" horiz-adv-x="587" 
d="M273 155h291v-155h-552v45l289 460h-246v155h508v-45zM236 724l24 186h207v-30l-107 -156h-124z" />
    <glyph glyph-name="Idotaccent.loclTRK" horiz-adv-x="304" 
d="M66 0v660h172v-660h-172zM46 818c0 57 46 102 105 102s106 -45 106 -102c0 -56 -47 -101 -106 -101s-105 44 -105 101z" />
    <glyph glyph-name="A.ordn" horiz-adv-x="425" 
d="M288 244l-11 29h-129l-10 -29h-137l192 424h40l191 -424h-136zM181 364h63l-31 77z" />
    <glyph glyph-name="O.ordn" horiz-adv-x="502" 
d="M24 452c0 121 102 216 226 216c125 0 228 -95 228 -216s-103 -216 -228 -216c-124 0 -226 95 -226 216zM349 452c0 59 -42 99 -98 99c-57 0 -97 -40 -97 -99c0 -60 38 -99 97 -99c56 0 98 39 98 99z" />
    <glyph glyph-name="a" unicode="a" horiz-adv-x="555" 
d="M503 290v-290h-157v41c-37 -35 -85 -53 -144 -53c-109 0 -172 71 -172 155c0 93 75 149 196 149h105v8c0 39 -24 64 -76 64c-45 0 -77 -18 -125 -61l-80 109c67 68 135 100 226 100c140 0 227 -78 227 -222zM331 183v4h-81c-29 0 -46 -14 -46 -38s19 -39 51 -39
c44 0 76 28 76 73z" />
    <glyph glyph-name="b" unicode="b" horiz-adv-x="627" 
d="M596 249c0 -152 -100 -261 -240 -261c-64 0 -112 21 -143 64v-52h-157v750h172v-284c33 31 75 46 128 46c138 0 240 -111 240 -263zM420 250c0 67 -45 106 -98 106s-97 -39 -97 -107s44 -105 97 -105c55 0 98 39 98 106z" />
    <glyph glyph-name="c" unicode="c" horiz-adv-x="553" 
d="M31 250c-3 145 124 265 273 262c103 0 183 -51 224 -134l-119 -91c-27 43 -58 67 -103 67c-60 0 -99 -43 -99 -104s39 -104 99 -104c45 0 76 25 103 66l119 -90c-41 -83 -121 -134 -224 -134c-149 -3 -276 117 -273 262z" />
    <glyph glyph-name="d" unicode="d" horiz-adv-x="627" 
d="M399 750h172v-750h-157v52c-31 -43 -79 -64 -143 -64c-140 0 -240 109 -240 261s102 263 240 263c53 0 95 -15 128 -46v284zM402 249c0 68 -44 107 -97 107s-98 -39 -98 -106s43 -106 98 -106c53 0 97 37 97 105z" />
    <glyph glyph-name="e" unicode="e" horiz-adv-x="568" 
d="M526 190h-320c19 -38 56 -57 112 -57c45 0 88 13 131 39l62 -117c-59 -45 -126 -67 -199 -67c-163 0 -281 114 -281 262c0 147 118 262 267 262c144 0 239 -108 239 -237c0 -30 -4 -58 -11 -85zM200 302h174c-1 45 -38 75 -83 75c-43 0 -78 -27 -91 -75z" />
    <glyph glyph-name="f" unicode="f" horiz-adv-x="368" 
d="M258 542v-42h101v-144h-101v-356h-172v356h-70v144h70v59c0 133 78 203 210 203c33 0 60 -4 83 -12v-144c-20 1 -33 2 -39 2c-59 0 -82 -19 -82 -66z" />
    <glyph glyph-name="g" unicode="g" horiz-adv-x="627" 
d="M414 500h157v-439c0 -171 -105 -253 -268 -253c-97 0 -181 30 -252 90l87 121c51 -39 96 -57 147 -57c65 0 114 29 114 88v18c-31 -31 -75 -46 -131 -46c-137 0 -237 96 -237 246c0 151 102 244 237 244c66 0 115 -21 146 -63v51zM402 271c0 67 -44 99 -97 99
c-55 0 -98 -36 -98 -100c0 -65 45 -106 98 -106s97 40 97 107z" />
    <glyph glyph-name="h" unicode="h" horiz-adv-x="597" 
d="M545 308v-308h-172v283c0 44 -30 74 -73 74s-72 -30 -72 -74v-283h-172v750h172v-285c35 31 79 47 130 47c111 0 187 -82 187 -204z" />
    <glyph glyph-name="i" unicode="i" horiz-adv-x="284" 
d="M56 0v500h172v-500h-172zM36 677c0 57 46 102 105 102s106 -45 106 -102c0 -56 -47 -101 -106 -101s-105 44 -105 101z" />
    <glyph glyph-name="j" unicode="j" horiz-adv-x="284" 
d="M-65 -180v144c20 -1 33 -2 39 -2c59 0 82 19 82 66v472h172v-489c0 -133 -78 -203 -210 -203c-33 0 -60 4 -83 12zM36 677c0 57 46 102 105 102s106 -45 106 -102c0 -56 -47 -101 -106 -101s-105 44 -105 101z" />
    <glyph glyph-name="k" unicode="k" horiz-adv-x="595" 
d="M595 0h-189l-178 264v-264h-172v750h172v-452l156 202h199l-172 -223z" />
    <glyph glyph-name="l" unicode="l" horiz-adv-x="284" 
d="M56 0v750h172v-750h-172z" />
    <glyph glyph-name="m" unicode="m" horiz-adv-x="904" 
d="M852 308v-308h-172v283c0 47 -28 74 -71 74c-41 0 -69 -27 -69 -74v-283h-172v283c0 47 -28 74 -71 74c-41 0 -69 -27 -69 -74v-283h-172v500h157v-39c36 34 82 51 137 51c62 0 110 -21 145 -64c40 40 99 64 164 64c119 0 193 -80 193 -204z" />
    <glyph glyph-name="n" unicode="n" horiz-adv-x="597" 
d="M545 308v-308h-172v283c0 44 -30 74 -73 74s-72 -30 -72 -74v-283h-172v500h157v-41c37 35 84 53 141 53c116 0 191 -80 191 -204z" />
    <glyph glyph-name="o" unicode="o" horiz-adv-x="607" 
d="M31 250c-3 143 123 265 272 262c149 3 276 -119 273 -262c3 -143 -124 -265 -273 -262c-149 -3 -275 119 -272 262zM400 250c0 60 -41 104 -96 104c-57 0 -97 -43 -97 -104c0 -63 40 -104 97 -104c56 0 96 44 96 104z" />
    <glyph glyph-name="p" unicode="p" horiz-adv-x="627" 
d="M596 251c0 -152 -102 -263 -240 -263c-53 0 -95 15 -128 46v-214h-172v680h157v-52c31 43 79 64 143 64c140 0 240 -109 240 -261zM420 250c0 67 -43 106 -98 106c-53 0 -97 -37 -97 -105s44 -107 97 -107s98 39 98 106z" />
    <glyph glyph-name="q" unicode="q" horiz-adv-x="627" 
d="M414 500h157v-680h-172v214c-33 -31 -75 -46 -128 -46c-138 0 -240 111 -240 263s100 261 240 261c64 0 112 -21 143 -64v52zM402 251c0 68 -44 105 -97 105c-55 0 -98 -39 -98 -106s45 -106 98 -106s97 39 97 107z" />
    <glyph glyph-name="r" unicode="r" horiz-adv-x="405" 
d="M388 500v-152h-41c-79 0 -119 -36 -119 -120v-228h-172v500h157v-53c31 39 75 61 126 61c18 0 34 -3 49 -8z" />
    <glyph glyph-name="s" unicode="s" horiz-adv-x="456" 
d="M11 84l80 102c43 -41 89 -62 138 -62c29 0 44 7 44 22c0 11 -8 16 -29 25l-56 23c-99 40 -145 82 -145 161c0 99 77 157 194 157c79 0 141 -24 188 -73l-81 -105c-34 29 -69 43 -106 43c-23 0 -35 -6 -35 -19c0 -11 10 -18 34 -27l50 -20c100 -40 146 -78 146 -157
c0 -51 -19 -92 -58 -122c-39 -29 -88 -44 -149 -44c-89 0 -168 35 -215 96z" />
    <glyph glyph-name="t" unicode="t" horiz-adv-x="439" 
d="M344 142l63 2v-144c-33 -8 -67 -12 -101 -12c-141 0 -220 68 -220 203v165h-76v144h76v120h172v-120h134v-144h-134v-148c0 -48 23 -66 86 -66z" />
    <glyph glyph-name="u" unicode="u" horiz-adv-x="593" 
d="M52 233v267h172v-281c0 -43 30 -73 73 -73c41 0 72 30 72 73v281h172v-267c0 -147 -103 -245 -244 -245s-245 98 -245 245z" />
    <glyph glyph-name="v" unicode="v" horiz-adv-x="571" 
d="M387 500h182l-256 -512h-55l-256 512h182l102 -225z" />
    <glyph glyph-name="w" unicode="w" horiz-adv-x="861" 
d="M677 500h182l-246 -512h-55l-127 239l-128 -239h-55l-246 512h182l103 -233l116 245h55l119 -238z" />
    <glyph glyph-name="x" unicode="x" horiz-adv-x="553" 
d="M553 0h-191l-86 131l-85 -131h-191l181 257l-171 243h191l75 -118l76 118h191l-171 -243z" />
    <glyph glyph-name="y" unicode="y" horiz-adv-x="572" 
d="M388 500h182l-235 -527c-51 -113 -115 -165 -218 -165c-31 0 -63 4 -96 12v144c32 -1 51 -2 58 -2c47 0 77 11 98 59l8 17l-183 462h183l96 -281z" />
    <glyph glyph-name="z" unicode="z" horiz-adv-x="478" 
d="M260 144h208v-144h-458v45l210 311h-187v144h434v-45z" />
    <glyph glyph-name="aacute" unicode="&#xe1;" horiz-adv-x="555" 
d="M503 290v-290h-157v41c-37 -35 -85 -53 -144 -53c-109 0 -172 71 -172 155c0 93 75 149 196 149h105v8c0 39 -24 64 -76 64c-45 0 -77 -18 -125 -61l-80 109c67 68 135 100 226 100c140 0 227 -78 227 -222zM331 183v4h-81c-29 0 -46 -14 -46 -38s19 -39 51 -39
c44 0 76 28 76 73zM215 574l64 206h207v-30l-147 -176h-124z" />
    <glyph glyph-name="abreve" unicode="&#x103;" horiz-adv-x="555" 
d="M503 290v-290h-157v41c-37 -35 -85 -53 -144 -53c-109 0 -172 71 -172 155c0 93 75 149 196 149h105v8c0 39 -24 64 -76 64c-45 0 -77 -18 -125 -61l-80 109c67 68 135 100 226 100c140 0 227 -78 227 -222zM331 183v4h-81c-29 0 -46 -14 -46 -38s19 -39 51 -39
c44 0 76 28 76 73zM92 755v25h133v-25c0 -37 20 -60 53 -60s53 23 53 60v25h133v-25c0 -109 -77 -186 -186 -186s-186 77 -186 186z" />
    <glyph glyph-name="acircumflex" unicode="&#xe2;" horiz-adv-x="555" 
d="M503 290v-290h-157v41c-37 -35 -85 -53 -144 -53c-109 0 -172 71 -172 155c0 93 75 149 196 149h105v8c0 39 -24 64 -76 64c-45 0 -77 -18 -125 -61l-80 109c67 68 135 100 226 100c140 0 227 -78 227 -222zM331 183v4h-81c-29 0 -46 -14 -46 -38s19 -39 51 -39
c44 0 76 28 76 73zM469 574h-124l-67 72l-67 -72h-124l134 206h115z" />
    <glyph glyph-name="adieresis" unicode="&#xe4;" horiz-adv-x="555" 
d="M503 290v-290h-157v41c-37 -35 -85 -53 -144 -53c-109 0 -172 71 -172 155c0 93 75 149 196 149h105v8c0 39 -24 64 -76 64c-45 0 -77 -18 -125 -61l-80 109c67 68 135 100 226 100c140 0 227 -78 227 -222zM331 183v4h-81c-29 0 -46 -14 -46 -38s19 -39 51 -39
c44 0 76 28 76 73zM53 678c0 51 44 93 99 93c52 0 96 -42 96 -93c0 -52 -44 -94 -96 -94c-55 0 -99 42 -99 94zM308 678c0 51 44 93 99 93c52 0 96 -42 96 -93c0 -52 -44 -94 -96 -94c-55 0 -99 42 -99 94z" />
    <glyph glyph-name="agrave" unicode="&#xe0;" horiz-adv-x="555" 
d="M503 290v-290h-157v41c-37 -35 -85 -53 -144 -53c-109 0 -172 71 -172 155c0 93 75 149 196 149h105v8c0 39 -24 64 -76 64c-45 0 -77 -18 -125 -61l-80 109c67 68 135 100 226 100c140 0 227 -78 227 -222zM331 183v4h-81c-29 0 -46 -14 -46 -38s19 -39 51 -39
c44 0 76 28 76 73zM217 574l-147 176v30h207l64 -206h-124z" />
    <glyph glyph-name="amacron" unicode="&#x101;" horiz-adv-x="555" 
d="M503 290v-290h-157v41c-37 -35 -85 -53 -144 -53c-109 0 -172 71 -172 155c0 93 75 149 196 149h105v8c0 39 -24 64 -76 64c-45 0 -77 -18 -125 -61l-80 109c67 68 135 100 226 100c140 0 227 -78 227 -222zM331 183v4h-81c-29 0 -46 -14 -46 -38s19 -39 51 -39
c44 0 76 28 76 73zM118 610v134h320v-134h-320z" />
    <glyph glyph-name="aogonek" unicode="&#x105;" horiz-adv-x="555" 
d="M503 290v-290h-157v41c-37 -35 -85 -53 -144 -53c-109 0 -172 71 -172 155c0 93 75 149 196 149h105v8c0 39 -24 64 -76 64c-45 0 -77 -18 -125 -61l-80 109c67 68 135 100 226 100c140 0 227 -78 227 -222zM331 183v4h-81c-29 0 -46 -14 -46 -38s19 -39 51 -39
c44 0 76 28 76 73zM278 -84c0 64 50 110 153 150l72 -66l-34 -19c-20 -12 -30 -19 -30 -31c0 -13 10 -22 29 -22c7 0 18 2 35 5v-108c-33 -11 -65 -17 -96 -17c-81 0 -129 45 -129 108z" />
    <glyph glyph-name="aring" unicode="&#xe5;" horiz-adv-x="555" 
d="M503 290v-290h-157v41c-37 -35 -85 -53 -144 -53c-109 0 -172 71 -172 155c0 93 75 149 196 149h105v8c0 39 -24 64 -76 64c-45 0 -77 -18 -125 -61l-80 109c67 68 135 100 226 100c140 0 227 -78 227 -222zM331 183v4h-81c-29 0 -46 -14 -46 -38s19 -39 51 -39
c44 0 76 28 76 73zM141 673c0 37 13 68 39 93s58 38 97 38s72 -13 98 -38s39 -56 39 -93c0 -38 -13 -70 -39 -95s-59 -37 -98 -37c-79 0 -136 56 -136 132zM313 673c0 20 -15 35 -35 35s-35 -14 -35 -35s15 -36 35 -36s35 16 35 36z" />
    <glyph glyph-name="atilde" unicode="&#xe3;" horiz-adv-x="555" 
d="M503 290v-290h-157v41c-37 -35 -85 -53 -144 -53c-109 0 -172 71 -172 155c0 93 75 149 196 149h105v8c0 39 -24 64 -76 64c-45 0 -77 -18 -125 -61l-80 109c67 68 135 100 226 100c140 0 227 -78 227 -222zM331 183v4h-81c-29 0 -46 -14 -46 -38s19 -39 51 -39
c44 0 76 28 76 73zM288 587l-29 15c-7 4 -23 15 -39 15c-19 0 -28 -12 -28 -31v-8h-128c-2 13 -3 26 -3 38c0 98 61 156 132 156c25 0 49 -6 74 -19l29 -15c7 -4 23 -15 39 -15c19 0 28 12 28 31v8h128c2 -13 3 -25 3 -38c0 -98 -61 -156 -132 -156c-25 0 -49 6 -74 19z" />
    <glyph glyph-name="ae" unicode="&#xe6;" horiz-adv-x="868" 
d="M826 189h-319c19 -37 55 -56 110 -56c45 0 88 13 131 39l62 -117c-59 -45 -125 -67 -198 -67c-87 0 -156 32 -203 88c-41 -59 -105 -88 -191 -88c-125 0 -188 65 -188 154c0 95 75 152 196 152h105v6c0 39 -24 64 -75 64c-45 0 -78 -20 -126 -61l-80 109
c67 68 135 100 226 100c69 0 123 -18 164 -55c43 37 95 55 158 55c144 0 239 -108 239 -237c0 -31 -4 -59 -11 -86zM498 294h176c-1 51 -35 83 -82 83c-45 0 -81 -31 -94 -83zM331 183v6h-81c-29 0 -46 -15 -46 -39c0 -25 18 -40 50 -40c45 0 77 28 77 73z" />
    <glyph glyph-name="aeacute" unicode="&#x1fd;" horiz-adv-x="868" 
d="M826 189h-319c19 -37 55 -56 110 -56c45 0 88 13 131 39l62 -117c-59 -45 -125 -67 -198 -67c-87 0 -156 32 -203 88c-41 -59 -105 -88 -191 -88c-125 0 -188 65 -188 154c0 95 75 152 196 152h105v6c0 39 -24 64 -75 64c-45 0 -78 -20 -126 -61l-80 109
c67 68 135 100 226 100c69 0 123 -18 164 -55c43 37 95 55 158 55c144 0 239 -108 239 -237c0 -31 -4 -59 -11 -86zM498 294h176c-1 51 -35 83 -82 83c-45 0 -81 -31 -94 -83zM331 183v6h-81c-29 0 -46 -15 -46 -39c0 -25 18 -40 50 -40c45 0 77 28 77 73zM373 574l64 206
h207v-30l-147 -176h-124z" />
    <glyph glyph-name="cacute" unicode="&#x107;" horiz-adv-x="553" 
d="M31 250c-3 145 124 265 273 262c103 0 183 -51 224 -134l-119 -91c-27 43 -58 67 -103 67c-60 0 -99 -43 -99 -104s39 -104 99 -104c45 0 76 25 103 66l119 -90c-41 -83 -121 -134 -224 -134c-149 -3 -276 117 -273 262zM239 574l64 206h207v-30l-147 -176h-124z" />
    <glyph glyph-name="ccaron" unicode="&#x10d;" horiz-adv-x="553" 
d="M31 250c-3 145 124 265 273 262c103 0 183 -51 224 -134l-119 -91c-27 43 -58 67 -103 67c-60 0 -99 -43 -99 -104s39 -104 99 -104c45 0 76 25 103 66l119 -90c-41 -83 -121 -134 -224 -134c-149 -3 -276 117 -273 262zM369 780h124l-133 -206h-115l-134 206h124l67 -72
z" />
    <glyph glyph-name="ccedilla" unicode="&#xe7;" horiz-adv-x="553" 
d="M31 250c-3 145 124 265 273 262c103 0 183 -51 224 -134l-119 -91c-27 43 -58 67 -103 67c-60 0 -99 -43 -99 -104s39 -104 99 -104c45 0 76 25 103 66l119 -90c-41 -83 -121 -134 -224 -134c-149 -3 -276 117 -273 262zM155 -183v112c18 -1 39 -1 63 -1
c32 0 51 19 51 51v48l66 28c43 -24 68 -64 68 -112c0 -77 -66 -135 -171 -135c-26 0 -52 3 -77 9z" />
    <glyph glyph-name="ccircumflex" unicode="&#x109;" horiz-adv-x="553" 
d="M31 250c-3 145 124 265 273 262c103 0 183 -51 224 -134l-119 -91c-27 43 -58 67 -103 67c-60 0 -99 -43 -99 -104s39 -104 99 -104c45 0 76 25 103 66l119 -90c-41 -83 -121 -134 -224 -134c-149 -3 -276 117 -273 262zM493 574h-124l-67 72l-67 -72h-124l134 206h115z
" />
    <glyph glyph-name="cdotaccent" unicode="&#x10b;" horiz-adv-x="553" 
d="M31 250c-3 145 124 265 273 262c103 0 183 -51 224 -134l-119 -91c-27 43 -58 67 -103 67c-60 0 -99 -43 -99 -104s39 -104 99 -104c45 0 76 25 103 66l119 -90c-41 -83 -121 -134 -224 -134c-149 -3 -276 117 -273 262zM196 677c0 57 46 102 105 102s106 -45 106 -102
c0 -56 -47 -101 -106 -101s-105 44 -105 101z" />
    <glyph glyph-name="eth" unicode="&#xf0;" horiz-adv-x="575" 
d="M544 230c0 -141 -111 -242 -254 -242c-151 0 -259 101 -259 234c0 125 97 216 218 224l-38 53l-128 -65l-60 121l107 54l-44 59l129 94l61 -79l157 79l60 -121l-133 -67l60 -78c77 -100 124 -174 124 -266zM371 223c0 51 -33 84 -84 84c-49 0 -83 -33 -83 -84
s34 -84 83 -84c51 0 84 35 84 84z" />
    <glyph glyph-name="dcaron" unicode="&#x10f;" horiz-adv-x="826" 
d="M399 750h172v-750h-157v52c-31 -43 -79 -64 -143 -64c-140 0 -240 109 -240 261s102 263 240 263c53 0 95 -15 128 -46v284zM402 249c0 68 -44 107 -97 107s-98 -39 -98 -106s43 -106 98 -106c53 0 97 37 97 105zM651 548v202h175l-55 -202h-120z" />
    <glyph glyph-name="dslash" unicode="&#x111;" horiz-adv-x="637" 
d="M647 672v-138h-76v-534h-157v52c-33 -43 -82 -64 -147 -64c-133 0 -236 97 -236 241s103 243 235 243c55 0 100 -17 133 -50v112h-194v138h194v78h172v-78h76zM402 228c0 64 -44 101 -97 101s-98 -37 -98 -100c0 -61 43 -98 98 -98c53 0 97 33 97 97z" />
    <glyph glyph-name="eacute" unicode="&#xe9;" horiz-adv-x="568" 
d="M526 190h-320c19 -38 56 -57 112 -57c45 0 88 13 131 39l62 -117c-59 -45 -126 -67 -199 -67c-163 0 -281 114 -281 262c0 147 118 262 267 262c144 0 239 -108 239 -237c0 -30 -4 -58 -11 -85zM200 302h174c-1 45 -38 75 -83 75c-43 0 -78 -27 -91 -75zM235 574l64 206
h207v-30l-147 -176h-124z" />
    <glyph glyph-name="ebreve" unicode="&#x115;" horiz-adv-x="568" 
d="M526 190h-320c19 -38 56 -57 112 -57c45 0 88 13 131 39l62 -117c-59 -45 -126 -67 -199 -67c-163 0 -281 114 -281 262c0 147 118 262 267 262c144 0 239 -108 239 -237c0 -30 -4 -58 -11 -85zM200 302h174c-1 45 -38 75 -83 75c-43 0 -78 -27 -91 -75zM112 755v25h133
v-25c0 -37 20 -60 53 -60s53 23 53 60v25h133v-25c0 -109 -77 -186 -186 -186s-186 77 -186 186z" />
    <glyph glyph-name="ecaron" unicode="&#x11b;" horiz-adv-x="568" 
d="M526 190h-320c19 -38 56 -57 112 -57c45 0 88 13 131 39l62 -117c-59 -45 -126 -67 -199 -67c-163 0 -281 114 -281 262c0 147 118 262 267 262c144 0 239 -108 239 -237c0 -30 -4 -58 -11 -85zM200 302h174c-1 45 -38 75 -83 75c-43 0 -78 -27 -91 -75zM365 780h124
l-133 -206h-115l-134 206h124l67 -72z" />
    <glyph glyph-name="ecircumflex" unicode="&#xea;" horiz-adv-x="568" 
d="M526 190h-320c19 -38 56 -57 112 -57c45 0 88 13 131 39l62 -117c-59 -45 -126 -67 -199 -67c-163 0 -281 114 -281 262c0 147 118 262 267 262c144 0 239 -108 239 -237c0 -30 -4 -58 -11 -85zM200 302h174c-1 45 -38 75 -83 75c-43 0 -78 -27 -91 -75zM489 574h-124
l-67 72l-67 -72h-124l134 206h115z" />
    <glyph glyph-name="edieresis" unicode="&#xeb;" horiz-adv-x="568" 
d="M526 190h-320c19 -38 56 -57 112 -57c45 0 88 13 131 39l62 -117c-59 -45 -126 -67 -199 -67c-163 0 -281 114 -281 262c0 147 118 262 267 262c144 0 239 -108 239 -237c0 -30 -4 -58 -11 -85zM200 302h174c-1 45 -38 75 -83 75c-43 0 -78 -27 -91 -75zM73 678
c0 51 44 93 99 93c52 0 96 -42 96 -93c0 -52 -44 -94 -96 -94c-55 0 -99 42 -99 94zM328 678c0 51 44 93 99 93c52 0 96 -42 96 -93c0 -52 -44 -94 -96 -94c-55 0 -99 42 -99 94z" />
    <glyph glyph-name="edotaccent" unicode="&#x117;" horiz-adv-x="568" 
d="M526 190h-320c19 -38 56 -57 112 -57c45 0 88 13 131 39l62 -117c-59 -45 -126 -67 -199 -67c-163 0 -281 114 -281 262c0 147 118 262 267 262c144 0 239 -108 239 -237c0 -30 -4 -58 -11 -85zM200 302h174c-1 45 -38 75 -83 75c-43 0 -78 -27 -91 -75zM192 677
c0 57 46 102 105 102s106 -45 106 -102c0 -56 -47 -101 -106 -101s-105 44 -105 101z" />
    <glyph glyph-name="egrave" unicode="&#xe8;" horiz-adv-x="568" 
d="M526 190h-320c19 -38 56 -57 112 -57c45 0 88 13 131 39l62 -117c-59 -45 -126 -67 -199 -67c-163 0 -281 114 -281 262c0 147 118 262 267 262c144 0 239 -108 239 -237c0 -30 -4 -58 -11 -85zM200 302h174c-1 45 -38 75 -83 75c-43 0 -78 -27 -91 -75zM237 574
l-147 176v30h207l64 -206h-124z" />
    <glyph glyph-name="emacron" unicode="&#x113;" horiz-adv-x="568" 
d="M526 190h-320c19 -38 56 -57 112 -57c45 0 88 13 131 39l62 -117c-59 -45 -126 -67 -199 -67c-163 0 -281 114 -281 262c0 147 118 262 267 262c144 0 239 -108 239 -237c0 -30 -4 -58 -11 -85zM200 302h174c-1 45 -38 75 -83 75c-43 0 -78 -27 -91 -75zM138 610v134h320
v-134h-320z" />
    <glyph glyph-name="eogonek" unicode="&#x119;" horiz-adv-x="568" 
d="M526 190h-320c19 -38 56 -57 112 -57c45 0 88 13 131 39l62 -117c-59 -45 -126 -67 -199 -67c-163 0 -281 114 -281 262c0 147 118 262 267 262c144 0 239 -108 239 -237c0 -30 -4 -58 -11 -85zM200 302h174c-1 45 -38 75 -83 75c-43 0 -78 -27 -91 -75zM255 -84
c0 47 17 70 106 139h150l-76 -74c-13 -13 -19 -23 -19 -31c0 -13 10 -22 29 -22c5 0 16 2 35 5v-108c-30 -11 -62 -17 -96 -17c-79 0 -129 43 -129 108z" />
    <glyph glyph-name="uni0259" unicode="&#x259;" horiz-adv-x="568" 
d="M537 250c0 -147 -118 -262 -267 -262c-144 0 -239 108 -239 237c0 30 4 58 11 85h320c-19 38 -56 57 -112 57c-45 0 -88 -13 -131 -39l-62 117c59 45 126 67 199 67c163 0 281 -114 281 -262zM368 198h-174c1 -45 38 -75 83 -75c43 0 78 27 91 75z" />
    <glyph glyph-name="gbreve" unicode="&#x11f;" horiz-adv-x="627" 
d="M414 500h157v-439c0 -171 -105 -253 -268 -253c-97 0 -181 30 -252 90l87 121c51 -39 96 -57 147 -57c65 0 114 29 114 88v18c-31 -31 -75 -46 -131 -46c-137 0 -237 96 -237 246c0 151 102 244 237 244c66 0 115 -21 146 -63v51zM402 271c0 67 -44 99 -97 99
c-55 0 -98 -36 -98 -100c0 -65 45 -106 98 -106s97 40 97 107zM128 755v25h133v-25c0 -37 20 -60 53 -60s53 23 53 60v25h133v-25c0 -109 -77 -186 -186 -186s-186 77 -186 186z" />
    <glyph glyph-name="gcircumflex" unicode="&#x11d;" horiz-adv-x="627" 
d="M414 500h157v-439c0 -171 -105 -253 -268 -253c-97 0 -181 30 -252 90l87 121c51 -39 96 -57 147 -57c65 0 114 29 114 88v18c-31 -31 -75 -46 -131 -46c-137 0 -237 96 -237 246c0 151 102 244 237 244c66 0 115 -21 146 -63v51zM402 271c0 67 -44 99 -97 99
c-55 0 -98 -36 -98 -100c0 -65 45 -106 98 -106s97 40 97 107zM505 574h-124l-67 72l-67 -72h-124l134 206h115z" />
    <glyph glyph-name="uni0123" unicode="&#x123;" horiz-adv-x="627" 
d="M414 500h157v-439c0 -171 -105 -253 -268 -253c-97 0 -181 30 -252 90l87 121c51 -39 96 -57 147 -57c65 0 114 29 114 88v18c-31 -31 -75 -46 -131 -46c-137 0 -237 96 -237 246c0 151 102 244 237 244c66 0 115 -21 146 -63v51zM402 271c0 67 -44 99 -97 99
c-55 0 -98 -36 -98 -100c0 -65 45 -106 98 -106s97 40 97 107zM228 574l36 206h124v-206h-160z" />
    <glyph glyph-name="gdotaccent" unicode="&#x121;" horiz-adv-x="627" 
d="M414 500h157v-439c0 -171 -105 -253 -268 -253c-97 0 -181 30 -252 90l87 121c51 -39 96 -57 147 -57c65 0 114 29 114 88v18c-31 -31 -75 -46 -131 -46c-137 0 -237 96 -237 246c0 151 102 244 237 244c66 0 115 -21 146 -63v51zM402 271c0 67 -44 99 -97 99
c-55 0 -98 -36 -98 -100c0 -65 45 -106 98 -106s97 40 97 107zM208 677c0 57 46 102 105 102s106 -45 106 -102c0 -56 -47 -101 -106 -101s-105 44 -105 101z" />
    <glyph glyph-name="hbar" unicode="&#x127;" horiz-adv-x="607" 
d="M555 268v-268h-172v243c0 44 -30 74 -73 74s-72 -30 -72 -74v-243h-172v533h-76v139h76v78h172v-78h184v-139h-184v-108c35 31 79 47 130 47c111 0 187 -82 187 -204z" />
    <glyph glyph-name="hcircumflex" unicode="&#x125;" horiz-adv-x="597" 
d="M545 308v-308h-172v283c0 44 -30 74 -73 74s-72 -30 -72 -74v-283h-172v750h172v-285c35 31 79 47 130 47c111 0 187 -82 187 -204zM434 814h-130l-77 64l-77 -64h-129l149 186h115z" />
    <glyph glyph-name="dotlessi" unicode="&#x131;" horiz-adv-x="284" 
d="M56 0v500h172v-500h-172z" />
    <glyph glyph-name="iacute" unicode="&#xed;" horiz-adv-x="284" 
d="M56 0v500h172v-500h-172zM79 574l34 206h207v-30l-117 -176h-124z" />
    <glyph glyph-name="ibreve" unicode="&#x12d;" horiz-adv-x="284" 
d="M56 0v500h172v-500h-172zM-44 755v25h133v-25c0 -37 20 -60 53 -60s53 23 53 60v25h133v-25c0 -109 -77 -186 -186 -186s-186 77 -186 186z" />
    <glyph glyph-name="icircumflex" unicode="&#xee;" horiz-adv-x="284" 
d="M56 0v500h172v-500h-172zM333 574h-124l-67 72l-67 -72h-124l134 206h115z" />
    <glyph glyph-name="idieresis" unicode="&#xef;" horiz-adv-x="284" 
d="M56 0v500h172v-500h-172zM-78 677c0 26 10 48 30 66c19 19 42 28 67 28c55 0 98 -41 98 -94c0 -49 -45 -93 -98 -93c-25 0 -47 9 -67 28s-30 41 -30 65zM167 677c0 26 10 48 29 66c20 19 43 28 68 28c55 0 98 -41 98 -94c0 -49 -45 -93 -98 -93c-25 0 -47 9 -67 28
s-30 41 -30 65z" />
    <glyph glyph-name="igrave" unicode="&#xec;" horiz-adv-x="284" 
d="M56 0v500h172v-500h-172zM83 574l-117 176v30h207l34 -206h-124z" />
    <glyph glyph-name="ij" unicode="&#x133;" horiz-adv-x="568" 
d="M56 0v500h172v-500h-172zM36 677c0 57 46 102 105 102s106 -45 106 -102c0 -56 -47 -101 -106 -101s-105 44 -105 101zM219 -180v144c20 -1 33 -2 39 -2c59 0 82 19 82 66v472h172v-489c0 -133 -78 -203 -210 -203c-33 0 -60 4 -83 12zM320 677c0 57 46 102 105 102
s106 -45 106 -102c0 -56 -47 -101 -106 -101s-105 44 -105 101z" />
    <glyph glyph-name="imacron" unicode="&#x12b;" horiz-adv-x="284" 
d="M56 0v500h172v-500h-172zM2 610v134h280v-134h-280z" />
    <glyph glyph-name="iogonek" unicode="&#x12f;" horiz-adv-x="284" 
d="M56 0v500h172v-500h-172zM36 677c0 57 46 102 105 102s106 -45 106 -102c0 -56 -47 -101 -106 -101s-105 44 -105 101zM3 -84c0 64 50 110 153 150l72 -66l-34 -19c-20 -12 -30 -19 -30 -31c0 -13 10 -22 29 -22c7 0 18 2 35 5v-108c-33 -11 -65 -17 -96 -17
c-81 0 -129 45 -129 108z" />
    <glyph glyph-name="itilde" unicode="&#x129;" horiz-adv-x="284" 
d="M56 0v500h172v-500h-172zM146 592l-20 13c-13 8 -22 12 -29 12c-17 0 -26 -12 -26 -31v-8h-128c-2 13 -3 26 -3 39c0 96 56 155 129 155c27 0 46 -8 70 -24l20 -13c13 -8 22 -12 29 -12c16 0 25 12 25 31v8h128c2 -13 3 -26 3 -39c0 -96 -55 -155 -128 -155
c-27 0 -46 8 -70 24z" />
    <glyph glyph-name="uni0237" unicode="&#x237;" horiz-adv-x="284" 
d="M-65 -180v144c20 -1 33 -2 39 -2c59 0 82 19 82 66v472h172v-489c0 -133 -78 -203 -210 -203c-33 0 -60 4 -83 12z" />
    <glyph glyph-name="jcircumflex" unicode="&#x135;" horiz-adv-x="284" 
d="M-65 -180v144c20 -1 33 -2 39 -2c59 0 82 19 82 66v472h172v-489c0 -133 -78 -203 -210 -203c-33 0 -60 4 -83 12zM333 574h-124l-67 72l-67 -72h-124l134 206h115z" />
    <glyph glyph-name="uni0137" unicode="&#x137;" horiz-adv-x="595" 
d="M595 0h-189l-178 264v-264h-172v750h172v-452l156 202h199l-172 -223zM228 -220v176h156l-26 -176h-130z" />
    <glyph glyph-name="lacute" unicode="&#x13a;" horiz-adv-x="284" 
d="M56 0v750h172v-750h-172zM74 814l64 186h207v-30l-147 -156h-124z" />
    <glyph glyph-name="lcaron" unicode="&#x13e;" horiz-adv-x="483" 
d="M56 0v750h172v-750h-172zM308 548v202h175l-55 -202h-120z" />
    <glyph glyph-name="uni013C" unicode="&#x13c;" horiz-adv-x="284" 
d="M56 0v750h172v-750h-172zM66 -220v176h156l-26 -176h-130z" />
    <glyph glyph-name="ldot" unicode="&#x140;" horiz-adv-x="476" 
d="M56 0v750h172v-750h-172zM264 324c0 63 47 112 114 112c64 0 111 -49 111 -112c0 -64 -47 -112 -111 -112c-67 0 -114 48 -114 112z" />
    <glyph glyph-name="lslash" unicode="&#x142;" horiz-adv-x="308" 
d="M316 478v-159l-76 -35v-284h-172v216l-76 -35v159l76 35v375h172v-307z" />
    <glyph glyph-name="nacute" unicode="&#x144;" horiz-adv-x="597" 
d="M545 308v-308h-172v283c0 44 -30 74 -73 74s-72 -30 -72 -74v-283h-172v500h157v-41c37 35 84 53 141 53c116 0 191 -80 191 -204zM216 574l64 206h207v-30l-147 -176h-124z" />
    <glyph glyph-name="ncaron" unicode="&#x148;" horiz-adv-x="597" 
d="M545 308v-308h-172v283c0 44 -30 74 -73 74s-72 -30 -72 -74v-283h-172v500h157v-41c37 35 84 53 141 53c116 0 191 -80 191 -204zM346 780h124l-133 -206h-115l-134 206h124l67 -72z" />
    <glyph glyph-name="uni0146" unicode="&#x146;" horiz-adv-x="597" 
d="M545 308v-308h-172v283c0 44 -30 74 -73 74s-72 -30 -72 -74v-283h-172v500h157v-41c37 35 84 53 141 53c116 0 191 -80 191 -204zM229 -220v176h156l-26 -176h-130z" />
    <glyph glyph-name="eng" unicode="&#x14b;" horiz-adv-x="597" 
d="M545 308v-297c0 -133 -78 -203 -210 -203c-33 0 -60 4 -83 12v144c20 -1 33 -2 39 -2c59 0 82 19 82 66v255c0 44 -30 74 -73 74s-72 -30 -72 -74v-283h-172v500h157v-41c37 35 84 53 141 53c116 0 191 -80 191 -204z" />
    <glyph glyph-name="ntilde" unicode="&#xf1;" horiz-adv-x="597" 
d="M545 308v-308h-172v283c0 44 -30 74 -73 74s-72 -30 -72 -74v-283h-172v500h157v-41c37 35 84 53 141 53c116 0 191 -80 191 -204zM289 587l-29 15c-7 4 -23 15 -39 15c-19 0 -28 -12 -28 -31v-8h-128c-2 13 -3 26 -3 38c0 98 61 156 132 156c25 0 49 -6 74 -19l29 -15
c7 -4 23 -15 39 -15c19 0 28 12 28 31v8h128c2 -13 3 -25 3 -38c0 -98 -61 -156 -132 -156c-25 0 -49 6 -74 19z" />
    <glyph glyph-name="oacute" unicode="&#xf3;" horiz-adv-x="607" 
d="M31 250c-3 143 123 265 272 262c149 3 276 -119 273 -262c3 -143 -124 -265 -273 -262c-149 -3 -275 119 -272 262zM400 250c0 60 -41 104 -96 104c-57 0 -97 -43 -97 -104c0 -63 40 -104 97 -104c56 0 96 44 96 104zM241 574l64 206h207v-30l-147 -176h-124z" />
    <glyph glyph-name="obreve" unicode="&#x14f;" horiz-adv-x="607" 
d="M31 250c-3 143 123 265 272 262c149 3 276 -119 273 -262c3 -143 -124 -265 -273 -262c-149 -3 -275 119 -272 262zM400 250c0 60 -41 104 -96 104c-57 0 -97 -43 -97 -104c0 -63 40 -104 97 -104c56 0 96 44 96 104zM118 755v25h133v-25c0 -37 20 -60 53 -60
s53 23 53 60v25h133v-25c0 -109 -77 -186 -186 -186s-186 77 -186 186z" />
    <glyph glyph-name="ocircumflex" unicode="&#xf4;" horiz-adv-x="607" 
d="M31 250c-3 143 123 265 272 262c149 3 276 -119 273 -262c3 -143 -124 -265 -273 -262c-149 -3 -275 119 -272 262zM400 250c0 60 -41 104 -96 104c-57 0 -97 -43 -97 -104c0 -63 40 -104 97 -104c56 0 96 44 96 104zM495 574h-124l-67 72l-67 -72h-124l134 206h115z" />
    <glyph glyph-name="odieresis" unicode="&#xf6;" horiz-adv-x="607" 
d="M31 250c-3 143 123 265 272 262c149 3 276 -119 273 -262c3 -143 -124 -265 -273 -262c-149 -3 -275 119 -272 262zM400 250c0 60 -41 104 -96 104c-57 0 -97 -43 -97 -104c0 -63 40 -104 97 -104c56 0 96 44 96 104zM79 678c0 51 44 93 99 93c52 0 96 -42 96 -93
c0 -52 -44 -94 -96 -94c-55 0 -99 42 -99 94zM334 678c0 51 44 93 99 93c52 0 96 -42 96 -93c0 -52 -44 -94 -96 -94c-55 0 -99 42 -99 94z" />
    <glyph glyph-name="ograve" unicode="&#xf2;" horiz-adv-x="607" 
d="M31 250c-3 143 123 265 272 262c149 3 276 -119 273 -262c3 -143 -124 -265 -273 -262c-149 -3 -275 119 -272 262zM400 250c0 60 -41 104 -96 104c-57 0 -97 -43 -97 -104c0 -63 40 -104 97 -104c56 0 96 44 96 104zM243 574l-147 176v30h207l64 -206h-124z" />
    <glyph glyph-name="ohungarumlaut" unicode="&#x151;" horiz-adv-x="607" 
d="M31 250c-3 143 123 265 272 262c149 3 276 -119 273 -262c3 -143 -124 -265 -273 -262c-149 -3 -275 119 -272 262zM400 250c0 60 -41 104 -96 104c-57 0 -97 -43 -97 -104c0 -63 40 -104 97 -104c56 0 96 44 96 104zM129 574l64 206h177v-30l-127 -176h-114zM358 574
l64 206h177v-30l-127 -176h-114z" />
    <glyph glyph-name="omacron" unicode="&#x14d;" horiz-adv-x="607" 
d="M31 250c-3 143 123 265 272 262c149 3 276 -119 273 -262c3 -143 -124 -265 -273 -262c-149 -3 -275 119 -272 262zM400 250c0 60 -41 104 -96 104c-57 0 -97 -43 -97 -104c0 -63 40 -104 97 -104c56 0 96 44 96 104zM144 610v134h320v-134h-320z" />
    <glyph glyph-name="oslash" unicode="&#xf8;" horiz-adv-x="606" 
d="M588 433l-49 -49c25 -42 37 -87 37 -134c3 -145 -127 -265 -273 -262c-47 0 -90 10 -129 31l-54 -54l-102 102l50 50c-25 39 -37 84 -37 133c0 147 122 262 272 262c47 0 90 -10 129 -31l54 54zM192 250c0 -11 1 -21 3 -30l142 142c-11 3 -23 5 -34 5
c-67 0 -111 -46 -111 -117zM415 250c0 11 -1 21 -3 31l-144 -144c15 -3 26 -4 35 -4c67 0 112 45 112 117z" />
    <glyph glyph-name="oslashacute" unicode="&#x1ff;" horiz-adv-x="606" 
d="M588 433l-49 -49c25 -42 37 -87 37 -134c3 -145 -127 -265 -273 -262c-47 0 -90 10 -129 31l-54 -54l-102 102l50 50c-25 39 -37 84 -37 133c0 147 122 262 272 262c47 0 90 -10 129 -31l54 54zM192 250c0 -11 1 -21 3 -30l142 142c-11 3 -23 5 -34 5
c-67 0 -111 -46 -111 -117zM415 250c0 11 -1 21 -3 31l-144 -144c15 -3 26 -4 35 -4c67 0 112 45 112 117zM241 574l64 206h207v-30l-147 -176h-124z" />
    <glyph glyph-name="otilde" unicode="&#xf5;" horiz-adv-x="607" 
d="M31 250c-3 143 123 265 272 262c149 3 276 -119 273 -262c3 -143 -124 -265 -273 -262c-149 -3 -275 119 -272 262zM400 250c0 60 -41 104 -96 104c-57 0 -97 -43 -97 -104c0 -63 40 -104 97 -104c56 0 96 44 96 104zM314 587l-29 15c-7 4 -23 15 -39 15
c-19 0 -28 -12 -28 -31v-8h-128c-2 13 -3 26 -3 38c0 98 61 156 132 156c25 0 49 -6 74 -19l29 -15c7 -4 23 -15 39 -15c19 0 28 12 28 31v8h128c2 -13 3 -25 3 -38c0 -98 -61 -156 -132 -156c-25 0 -49 6 -74 19z" />
    <glyph glyph-name="oe" unicode="&#x153;" horiz-adv-x="917" 
d="M875 190h-316c17 -38 53 -57 108 -57c45 0 88 13 131 39l62 -117c-59 -45 -125 -67 -198 -67c-80 0 -144 27 -189 75c-41 -48 -102 -75 -173 -75c-143 -3 -272 117 -269 262c-3 145 126 265 269 262c71 0 131 -27 172 -74c43 47 104 74 176 74c143 0 238 -109 238 -237
c0 -30 -4 -58 -11 -85zM554 302h169c-1 45 -38 75 -83 75c-43 0 -74 -27 -86 -75zM395 250c0 61 -36 104 -92 104s-96 -43 -96 -104s40 -104 96 -104s92 43 92 104z" />
    <glyph glyph-name="thorn" unicode="&#xfe;" horiz-adv-x="627" 
d="M596 251c0 -152 -102 -263 -240 -263c-53 0 -95 15 -128 46v-214h-172v930h172v-284c32 31 75 46 128 46c140 0 240 -109 240 -261zM420 250c0 67 -43 106 -98 106c-53 0 -97 -37 -97 -105s44 -107 97 -107s98 39 98 106z" />
    <glyph glyph-name="racute" unicode="&#x155;" horiz-adv-x="405" 
d="M388 500v-152h-41c-79 0 -119 -36 -119 -120v-228h-172v500h157v-53c31 39 75 61 126 61c18 0 34 -3 49 -8zM140 574l64 206h207v-30l-147 -176h-124z" />
    <glyph glyph-name="rcaron" unicode="&#x159;" horiz-adv-x="405" 
d="M388 500v-152h-41c-79 0 -119 -36 -119 -120v-228h-172v500h157v-53c31 39 75 61 126 61c18 0 34 -3 49 -8zM270 780h124l-133 -206h-115l-134 206h124l67 -72z" />
    <glyph glyph-name="uni0157" unicode="&#x157;" horiz-adv-x="405" 
d="M388 500v-152h-41c-79 0 -119 -36 -119 -120v-228h-172v500h157v-53c31 39 75 61 126 61c18 0 34 -3 49 -8zM66 -220v176h156l-26 -176h-130z" />
    <glyph glyph-name="sacute" unicode="&#x15b;" horiz-adv-x="456" 
d="M11 84l80 102c43 -41 89 -62 138 -62c29 0 44 7 44 22c0 11 -8 16 -29 25l-56 23c-99 40 -145 82 -145 161c0 99 77 157 194 157c79 0 141 -24 188 -73l-81 -105c-34 29 -69 43 -106 43c-23 0 -35 -6 -35 -19c0 -11 10 -18 34 -27l50 -20c100 -40 146 -78 146 -157
c0 -51 -19 -92 -58 -122c-39 -29 -88 -44 -149 -44c-89 0 -168 35 -215 96zM171 574l64 206h207v-30l-147 -176h-124z" />
    <glyph glyph-name="scaron" unicode="&#x161;" horiz-adv-x="456" 
d="M11 84l80 102c43 -41 89 -62 138 -62c29 0 44 7 44 22c0 11 -8 16 -29 25l-56 23c-99 40 -145 82 -145 161c0 99 77 157 194 157c79 0 141 -24 188 -73l-81 -105c-34 29 -69 43 -106 43c-23 0 -35 -6 -35 -19c0 -11 10 -18 34 -27l50 -20c100 -40 146 -78 146 -157
c0 -51 -19 -92 -58 -122c-39 -29 -88 -44 -149 -44c-89 0 -168 35 -215 96zM301 780h124l-133 -206h-115l-134 206h124l67 -72z" />
    <glyph glyph-name="scedilla" unicode="&#x15f;" horiz-adv-x="456" 
d="M11 84l80 102c43 -41 89 -62 138 -62c29 0 44 7 44 22c0 11 -8 16 -29 25l-56 23c-99 40 -145 82 -145 161c0 99 77 157 194 157c79 0 141 -24 188 -73l-81 -105c-34 29 -69 43 -106 43c-23 0 -35 -6 -35 -19c0 -11 10 -18 34 -27l50 -20c100 -40 146 -78 146 -157
c0 -51 -19 -92 -58 -122c-39 -29 -88 -44 -149 -44c-89 0 -168 35 -215 96zM91 -183v112c18 -1 39 -1 63 -1c32 0 51 19 51 51v48l66 28c43 -24 68 -64 68 -112c0 -77 -66 -135 -171 -135c-26 0 -52 3 -77 9z" />
    <glyph glyph-name="scircumflex" unicode="&#x15d;" horiz-adv-x="456" 
d="M11 84l80 102c43 -41 89 -62 138 -62c29 0 44 7 44 22c0 11 -8 16 -29 25l-56 23c-99 40 -145 82 -145 161c0 99 77 157 194 157c79 0 141 -24 188 -73l-81 -105c-34 29 -69 43 -106 43c-23 0 -35 -6 -35 -19c0 -11 10 -18 34 -27l50 -20c100 -40 146 -78 146 -157
c0 -51 -19 -92 -58 -122c-39 -29 -88 -44 -149 -44c-89 0 -168 35 -215 96zM425 574h-124l-67 72l-67 -72h-124l134 206h115z" />
    <glyph glyph-name="uni0219" unicode="&#x219;" horiz-adv-x="456" 
d="M11 84l80 102c43 -41 89 -62 138 -62c29 0 44 7 44 22c0 11 -8 16 -29 25l-56 23c-99 40 -145 82 -145 161c0 99 77 157 194 157c79 0 141 -24 188 -73l-81 -105c-34 29 -69 43 -106 43c-23 0 -35 -6 -35 -19c0 -11 10 -18 34 -27l50 -20c100 -40 146 -78 146 -157
c0 -51 -19 -92 -58 -122c-39 -29 -88 -44 -149 -44c-89 0 -168 35 -215 96zM162 -220v176h156l-26 -176h-130z" />
    <glyph glyph-name="germandbls" unicode="&#xdf;" horiz-adv-x="675" 
d="M270 44l56 121c41 -20 90 -36 122 -36c26 0 39 10 39 30c0 8 -4 15 -12 22s-28 20 -59 39c-68 41 -99 72 -99 119c0 24 6 41 18 70l29 67c9 20 13 41 13 63c0 43 -23 68 -67 68c-49 0 -84 -30 -84 -105v-502h-170v510c0 160 96 252 261 252c143 0 232 -71 232 -172
c0 -27 -6 -56 -19 -86l-32 -75c-9 -21 -14 -36 -14 -47c-5 -39 64 -66 78 -79c60 -39 91 -75 91 -144c0 -104 -76 -171 -200 -171c-73 0 -139 24 -183 56z" />
    <glyph glyph-name="tbar" unicode="&#x167;" horiz-adv-x="455" 
d="M354 142l63 2v-144c-33 -8 -67 -12 -101 -12c-139 0 -217 66 -220 195h-76v134h76v49h-76v134h76v120h172v-120h134v-134h-134v-49h134v-134h-131c8 -29 32 -41 83 -41z" />
    <glyph glyph-name="tcaron" unicode="&#x165;" horiz-adv-x="439" 
d="M344 142l63 2v-144c-33 -8 -67 -12 -101 -12c-141 0 -220 68 -220 203v165h-76v144h76v120h172v-120h134v-144h-134v-148c0 -48 23 -66 86 -66zM338 548v202h175l-55 -202h-120z" />
    <glyph glyph-name="uni0163" unicode="&#x163;" horiz-adv-x="439" 
d="M344 142l63 2v-144c-33 -8 -67 -12 -101 -12c-141 0 -220 68 -220 203v165h-76v144h76v120h172v-120h134v-144h-134v-148c0 -48 23 -66 86 -66zM87 -183v112c18 -1 39 -1 63 -1c32 0 51 19 51 51v48l66 28c43 -24 68 -64 68 -112c0 -77 -66 -135 -171 -135
c-26 0 -52 3 -77 9z" />
    <glyph glyph-name="uni021B" unicode="&#x21b;" horiz-adv-x="439" 
d="M344 142l63 2v-144c-33 -8 -67 -12 -101 -12c-141 0 -220 68 -220 203v165h-76v144h76v120h172v-120h134v-144h-134v-148c0 -48 23 -66 86 -66zM158 -220v176h156l-26 -176h-130z" />
    <glyph glyph-name="uacute" unicode="&#xfa;" horiz-adv-x="593" 
d="M52 233v267h172v-281c0 -43 30 -73 73 -73c41 0 72 30 72 73v281h172v-267c0 -147 -103 -245 -244 -245s-245 98 -245 245zM234 574l64 206h207v-30l-147 -176h-124z" />
    <glyph glyph-name="ubreve" unicode="&#x16d;" horiz-adv-x="593" 
d="M52 233v267h172v-281c0 -43 30 -73 73 -73c41 0 72 30 72 73v281h172v-267c0 -147 -103 -245 -244 -245s-245 98 -245 245zM111 755v25h133v-25c0 -37 20 -60 53 -60s53 23 53 60v25h133v-25c0 -109 -77 -186 -186 -186s-186 77 -186 186z" />
    <glyph glyph-name="uni01D4" unicode="&#x1d4;" horiz-adv-x="593" 
d="M52 233v267h172v-281c0 -43 30 -73 73 -73c41 0 72 30 72 73v281h172v-267c0 -147 -103 -245 -244 -245s-245 98 -245 245zM364 780h124l-133 -206h-115l-134 206h124l67 -72z" />
    <glyph glyph-name="ucircumflex" unicode="&#xfb;" horiz-adv-x="593" 
d="M52 233v267h172v-281c0 -43 30 -73 73 -73c41 0 72 30 72 73v281h172v-267c0 -147 -103 -245 -244 -245s-245 98 -245 245zM488 574h-124l-67 72l-67 -72h-124l134 206h115z" />
    <glyph glyph-name="udieresis" unicode="&#xfc;" horiz-adv-x="593" 
d="M52 233v267h172v-281c0 -43 30 -73 73 -73c41 0 72 30 72 73v281h172v-267c0 -147 -103 -245 -244 -245s-245 98 -245 245zM72 678c0 51 44 93 99 93c52 0 96 -42 96 -93c0 -52 -44 -94 -96 -94c-55 0 -99 42 -99 94zM327 678c0 51 44 93 99 93c52 0 96 -42 96 -93
c0 -52 -44 -94 -96 -94c-55 0 -99 42 -99 94z" />
    <glyph glyph-name="ugrave" unicode="&#xf9;" horiz-adv-x="593" 
d="M52 233v267h172v-281c0 -43 30 -73 73 -73c41 0 72 30 72 73v281h172v-267c0 -147 -103 -245 -244 -245s-245 98 -245 245zM236 574l-147 176v30h207l64 -206h-124z" />
    <glyph glyph-name="uhungarumlaut" unicode="&#x171;" horiz-adv-x="593" 
d="M52 233v267h172v-281c0 -43 30 -73 73 -73c41 0 72 30 72 73v281h172v-267c0 -147 -103 -245 -244 -245s-245 98 -245 245zM122 574l64 206h177v-30l-127 -176h-114zM351 574l64 206h177v-30l-127 -176h-114z" />
    <glyph glyph-name="umacron" unicode="&#x16b;" horiz-adv-x="593" 
d="M52 233v267h172v-281c0 -43 30 -73 73 -73c41 0 72 30 72 73v281h172v-267c0 -147 -103 -245 -244 -245s-245 98 -245 245zM137 610v134h320v-134h-320z" />
    <glyph glyph-name="uogonek" unicode="&#x173;" horiz-adv-x="593" 
d="M389 -44c0 -16 10 -28 29 -28c7 0 18 2 35 5v-108c-33 -11 -66 -17 -99 -17c-81 0 -125 36 -125 99c0 32 12 60 35 83c-63 7 -115 33 -154 76c-39 44 -58 100 -58 167v267h172v-281c0 -43 30 -73 73 -73c41 0 72 30 72 73v281h172v-267c-4 -109 -25 -138 -130 -238
c-15 -13 -22 -26 -22 -39z" />
    <glyph glyph-name="uring" unicode="&#x16f;" horiz-adv-x="593" 
d="M52 233v267h172v-281c0 -43 30 -73 73 -73c41 0 72 30 72 73v281h172v-267c0 -147 -103 -245 -244 -245s-245 98 -245 245zM160 673c0 37 13 68 39 93s58 38 97 38s72 -13 98 -38s39 -56 39 -93c0 -38 -13 -70 -39 -95s-59 -37 -98 -37c-79 0 -136 56 -136 132zM332 673
c0 20 -15 35 -35 35s-35 -14 -35 -35s15 -36 35 -36s35 16 35 36z" />
    <glyph glyph-name="utilde" unicode="&#x169;" horiz-adv-x="593" 
d="M52 233v267h172v-281c0 -43 30 -73 73 -73c41 0 72 30 72 73v281h172v-267c0 -147 -103 -245 -244 -245s-245 98 -245 245zM307 587l-29 15c-7 4 -23 15 -39 15c-19 0 -28 -12 -28 -31v-8h-128c-2 13 -3 26 -3 38c0 98 61 156 132 156c25 0 49 -6 74 -19l29 -15
c7 -4 23 -15 39 -15c19 0 28 12 28 31v8h128c2 -13 3 -25 3 -38c0 -98 -61 -156 -132 -156c-25 0 -49 6 -74 19z" />
    <glyph glyph-name="wacute" unicode="&#x1e83;" horiz-adv-x="861" 
d="M677 500h182l-246 -512h-55l-127 239l-128 -239h-55l-246 512h182l103 -233l116 245h55l119 -238zM368 574l64 206h207v-30l-147 -176h-124z" />
    <glyph glyph-name="wcircumflex" unicode="&#x175;" horiz-adv-x="861" 
d="M677 500h182l-246 -512h-55l-127 239l-128 -239h-55l-246 512h182l103 -233l116 245h55l119 -238zM622 574h-124l-67 72l-67 -72h-124l134 206h115z" />
    <glyph glyph-name="wdieresis" unicode="&#x1e85;" horiz-adv-x="861" 
d="M677 500h182l-246 -512h-55l-127 239l-128 -239h-55l-246 512h182l103 -233l116 245h55l119 -238zM206 678c0 51 44 93 99 93c52 0 96 -42 96 -93c0 -52 -44 -94 -96 -94c-55 0 -99 42 -99 94zM461 678c0 51 44 93 99 93c52 0 96 -42 96 -93c0 -52 -44 -94 -96 -94
c-55 0 -99 42 -99 94z" />
    <glyph glyph-name="wgrave" unicode="&#x1e81;" horiz-adv-x="861" 
d="M677 500h182l-246 -512h-55l-127 239l-128 -239h-55l-246 512h182l103 -233l116 245h55l119 -238zM370 574l-147 176v30h207l64 -206h-124z" />
    <glyph glyph-name="yacute" unicode="&#xfd;" horiz-adv-x="572" 
d="M388 500h182l-235 -527c-51 -113 -115 -165 -218 -165c-31 0 -63 4 -96 12v144c32 -1 51 -2 58 -2c47 0 77 11 98 59l8 17l-183 462h183l96 -281zM224 574l64 206h207v-30l-147 -176h-124z" />
    <glyph glyph-name="ycircumflex" unicode="&#x177;" horiz-adv-x="572" 
d="M388 500h182l-235 -527c-51 -113 -115 -165 -218 -165c-31 0 -63 4 -96 12v144c32 -1 51 -2 58 -2c47 0 77 11 98 59l8 17l-183 462h183l96 -281zM478 574h-124l-67 72l-67 -72h-124l134 206h115z" />
    <glyph glyph-name="ydieresis" unicode="&#xff;" horiz-adv-x="572" 
d="M388 500h182l-235 -527c-51 -113 -115 -165 -218 -165c-31 0 -63 4 -96 12v144c32 -1 51 -2 58 -2c47 0 77 11 98 59l8 17l-183 462h183l96 -281zM62 678c0 51 44 93 99 93c52 0 96 -42 96 -93c0 -52 -44 -94 -96 -94c-55 0 -99 42 -99 94zM317 678c0 51 44 93 99 93
c52 0 96 -42 96 -93c0 -52 -44 -94 -96 -94c-55 0 -99 42 -99 94z" />
    <glyph glyph-name="ygrave" unicode="&#x1ef3;" horiz-adv-x="572" 
d="M388 500h182l-235 -527c-51 -113 -115 -165 -218 -165c-31 0 -63 4 -96 12v144c32 -1 51 -2 58 -2c47 0 77 11 98 59l8 17l-183 462h183l96 -281zM226 574l-147 176v30h207l64 -206h-124z" />
    <glyph glyph-name="zacute" unicode="&#x17a;" horiz-adv-x="478" 
d="M260 144h208v-144h-458v45l210 311h-187v144h434v-45zM176 574l64 206h207v-30l-147 -176h-124z" />
    <glyph glyph-name="zcaron" unicode="&#x17e;" horiz-adv-x="478" 
d="M260 144h208v-144h-458v45l210 311h-187v144h434v-45zM306 780h124l-133 -206h-115l-134 206h124l67 -72z" />
    <glyph glyph-name="zdotaccent" unicode="&#x17c;" horiz-adv-x="478" 
d="M260 144h208v-144h-458v45l210 311h-187v144h434v-45zM133 677c0 57 46 102 105 102s106 -45 106 -102c0 -56 -47 -101 -106 -101s-105 44 -105 101z" />
    <glyph glyph-name="iacute_j.loclNLD" horiz-adv-x="568" 
d="M56 0v500h172v-500h-172zM79 574l34 206h207v-30l-117 -176h-124zM219 -180v144c20 -1 33 -2 39 -2c59 0 82 19 82 66v472h172v-489c0 -133 -78 -203 -210 -203c-33 0 -60 4 -83 12zM363 574l34 206h207v-30l-117 -176h-124z" />
    <glyph glyph-name="cacute.loclPLK" horiz-adv-x="553" 
d="M31 250c-3 145 124 265 273 262c103 0 183 -51 224 -134l-119 -91c-27 43 -58 67 -103 67c-60 0 -99 -43 -99 -104s39 -104 99 -104c45 0 76 25 103 66l119 -90c-41 -83 -121 -134 -224 -134c-149 -3 -276 117 -273 262zM234 574l24 206h207v-30l-107 -176h-124z" />
    <glyph glyph-name="nacute.loclPLK" horiz-adv-x="597" 
d="M545 308v-308h-172v283c0 44 -30 74 -73 74s-72 -30 -72 -74v-283h-172v500h157v-41c37 35 84 53 141 53c116 0 191 -80 191 -204zM211 574l24 206h207v-30l-107 -176h-124z" />
    <glyph glyph-name="oacute.loclPLK" horiz-adv-x="607" 
d="M31 250c-3 143 123 265 272 262c149 3 276 -119 273 -262c3 -143 -124 -265 -273 -262c-149 -3 -275 119 -272 262zM400 250c0 60 -41 104 -96 104c-57 0 -97 -43 -97 -104c0 -63 40 -104 97 -104c56 0 96 44 96 104zM236 574l24 206h207v-30l-107 -176h-124z" />
    <glyph glyph-name="sacute.loclPLK" horiz-adv-x="456" 
d="M11 84l80 102c43 -41 89 -62 138 -62c29 0 44 7 44 22c0 11 -8 16 -29 25l-56 23c-99 40 -145 82 -145 161c0 99 77 157 194 157c79 0 141 -24 188 -73l-81 -105c-34 29 -69 43 -106 43c-23 0 -35 -6 -35 -19c0 -11 10 -18 34 -27l50 -20c100 -40 146 -78 146 -157
c0 -51 -19 -92 -58 -122c-39 -29 -88 -44 -149 -44c-89 0 -168 35 -215 96zM166 574l24 206h207v-30l-107 -176h-124z" />
    <glyph glyph-name="zacute.loclPLK" horiz-adv-x="478" 
d="M260 144h208v-144h-458v45l210 311h-187v144h434v-45zM171 574l24 206h207v-30l-107 -176h-124z" />
    <glyph glyph-name="i.loclTRK.loclTRK" horiz-adv-x="284" 
d="M56 0v500h172v-500h-172zM36 677c0 57 46 102 105 102s106 -45 106 -102c0 -56 -47 -101 -106 -101s-105 44 -105 101z" />
    <glyph glyph-name="a.ss01" horiz-adv-x="627" 
d="M414 500h157v-500h-157v52c-31 -43 -79 -64 -143 -64c-140 0 -240 109 -240 261s102 263 240 263c63 0 111 -21 143 -64v52zM402 249c0 68 -44 107 -97 107s-98 -39 -98 -106s43 -106 98 -106c53 0 97 37 97 105z" />
    <glyph glyph-name="y.ss01" horiz-adv-x="597" 
d="M369 500h172v-433c0 -160 -95 -259 -252 -259c-93 0 -185 36 -248 89l87 121c49 -39 88 -56 139 -56c63 0 102 28 102 89v18c-35 -31 -79 -47 -130 -47c-111 0 -187 82 -187 204v274h172v-249c0 -44 30 -74 73 -74s72 30 72 74v249z" />
    <glyph glyph-name="aacute.ss01" horiz-adv-x="627" 
d="M414 500h157v-500h-157v52c-31 -43 -79 -64 -143 -64c-140 0 -240 109 -240 261s102 263 240 263c63 0 111 -21 143 -64v52zM402 249c0 68 -44 107 -97 107s-98 -39 -98 -106s43 -106 98 -106c53 0 97 37 97 105zM251 574l64 206h207v-30l-147 -176h-124z" />
    <glyph glyph-name="abreve.ss01" horiz-adv-x="627" 
d="M414 500h157v-500h-157v52c-31 -43 -79 -64 -143 -64c-140 0 -240 109 -240 261s102 263 240 263c63 0 111 -21 143 -64v52zM402 249c0 68 -44 107 -97 107s-98 -39 -98 -106s43 -106 98 -106c53 0 97 37 97 105zM128 755v25h133v-25c0 -37 20 -60 53 -60s53 23 53 60v25
h133v-25c0 -109 -77 -186 -186 -186s-186 77 -186 186z" />
    <glyph glyph-name="acircumflex.ss01" horiz-adv-x="627" 
d="M414 500h157v-500h-157v52c-31 -43 -79 -64 -143 -64c-140 0 -240 109 -240 261s102 263 240 263c63 0 111 -21 143 -64v52zM402 249c0 68 -44 107 -97 107s-98 -39 -98 -106s43 -106 98 -106c53 0 97 37 97 105zM505 574h-124l-67 72l-67 -72h-124l134 206h115z" />
    <glyph glyph-name="adieresis.ss01" horiz-adv-x="627" 
d="M414 500h157v-500h-157v52c-31 -43 -79 -64 -143 -64c-140 0 -240 109 -240 261s102 263 240 263c63 0 111 -21 143 -64v52zM402 249c0 68 -44 107 -97 107s-98 -39 -98 -106s43 -106 98 -106c53 0 97 37 97 105zM89 678c0 51 44 93 99 93c52 0 96 -42 96 -93
c0 -52 -44 -94 -96 -94c-55 0 -99 42 -99 94zM344 678c0 51 44 93 99 93c52 0 96 -42 96 -93c0 -52 -44 -94 -96 -94c-55 0 -99 42 -99 94z" />
    <glyph glyph-name="agrave.ss01" horiz-adv-x="627" 
d="M414 500h157v-500h-157v52c-31 -43 -79 -64 -143 -64c-140 0 -240 109 -240 261s102 263 240 263c63 0 111 -21 143 -64v52zM402 249c0 68 -44 107 -97 107s-98 -39 -98 -106s43 -106 98 -106c53 0 97 37 97 105zM253 574l-147 176v30h207l64 -206h-124z" />
    <glyph glyph-name="amacron.ss01" horiz-adv-x="627" 
d="M414 500h157v-500h-157v52c-31 -43 -79 -64 -143 -64c-140 0 -240 109 -240 261s102 263 240 263c63 0 111 -21 143 -64v52zM402 249c0 68 -44 107 -97 107s-98 -39 -98 -106s43 -106 98 -106c53 0 97 37 97 105zM154 610v134h320v-134h-320z" />
    <glyph glyph-name="aogonek.ss01" horiz-adv-x="627" 
d="M414 500h157v-500h-157v52c-31 -43 -79 -64 -143 -64c-140 0 -240 109 -240 261s102 263 240 263c63 0 111 -21 143 -64v52zM402 249c0 68 -44 107 -97 107s-98 -39 -98 -106s43 -106 98 -106c53 0 97 37 97 105zM346 -84c0 64 50 110 153 150l72 -66l-34 -19
c-20 -12 -30 -19 -30 -31c0 -13 10 -22 29 -22c7 0 18 2 35 5v-108c-33 -11 -65 -17 -96 -17c-81 0 -129 45 -129 108z" />
    <glyph glyph-name="aring.ss01" horiz-adv-x="627" 
d="M414 500h157v-500h-157v52c-31 -43 -79 -64 -143 -64c-140 0 -240 109 -240 261s102 263 240 263c63 0 111 -21 143 -64v52zM402 249c0 68 -44 107 -97 107s-98 -39 -98 -106s43 -106 98 -106c53 0 97 37 97 105zM177 673c0 37 13 68 39 93s58 38 97 38s72 -13 98 -38
s39 -56 39 -93c0 -38 -13 -70 -39 -95s-59 -37 -98 -37c-79 0 -136 56 -136 132zM349 673c0 20 -15 35 -35 35s-35 -14 -35 -35s15 -36 35 -36s35 16 35 36z" />
    <glyph glyph-name="atilde.ss01" horiz-adv-x="627" 
d="M414 500h157v-500h-157v52c-31 -43 -79 -64 -143 -64c-140 0 -240 109 -240 261s102 263 240 263c63 0 111 -21 143 -64v52zM402 249c0 68 -44 107 -97 107s-98 -39 -98 -106s43 -106 98 -106c53 0 97 37 97 105zM324 587l-29 15c-7 4 -23 15 -39 15
c-19 0 -28 -12 -28 -31v-8h-128c-2 13 -3 26 -3 38c0 98 61 156 132 156c25 0 49 -6 74 -19l29 -15c7 -4 23 -15 39 -15c19 0 28 12 28 31v8h128c2 -13 3 -25 3 -38c0 -98 -61 -156 -132 -156c-25 0 -49 6 -74 19z" />
    <glyph glyph-name="yacute.ss01" horiz-adv-x="597" 
d="M369 500h172v-433c0 -160 -95 -259 -252 -259c-93 0 -185 36 -248 89l87 121c49 -39 88 -56 139 -56c63 0 102 28 102 89v18c-35 -31 -79 -47 -130 -47c-111 0 -187 82 -187 204v274h172v-249c0 -44 30 -74 73 -74s72 30 72 74v249zM234 574l64 206h207v-30l-147 -176
h-124z" />
    <glyph glyph-name="ycircumflex.ss01" horiz-adv-x="597" 
d="M369 500h172v-433c0 -160 -95 -259 -252 -259c-93 0 -185 36 -248 89l87 121c49 -39 88 -56 139 -56c63 0 102 28 102 89v18c-35 -31 -79 -47 -130 -47c-111 0 -187 82 -187 204v274h172v-249c0 -44 30 -74 73 -74s72 30 72 74v249zM488 574h-124l-67 72l-67 -72h-124
l134 206h115z" />
    <glyph glyph-name="ydieresis.ss01" horiz-adv-x="597" 
d="M369 500h172v-433c0 -160 -95 -259 -252 -259c-93 0 -185 36 -248 89l87 121c49 -39 88 -56 139 -56c63 0 102 28 102 89v18c-35 -31 -79 -47 -130 -47c-111 0 -187 82 -187 204v274h172v-249c0 -44 30 -74 73 -74s72 30 72 74v249zM72 678c0 51 44 93 99 93
c52 0 96 -42 96 -93c0 -52 -44 -94 -96 -94c-55 0 -99 42 -99 94zM327 678c0 51 44 93 99 93c52 0 96 -42 96 -93c0 -52 -44 -94 -96 -94c-55 0 -99 42 -99 94z" />
    <glyph glyph-name="ygrave.ss01" horiz-adv-x="597" 
d="M369 500h172v-433c0 -160 -95 -259 -252 -259c-93 0 -185 36 -248 89l87 121c49 -39 88 -56 139 -56c63 0 102 28 102 89v18c-35 -31 -79 -47 -130 -47c-111 0 -187 82 -187 204v274h172v-249c0 -44 30 -74 73 -74s72 30 72 74v249zM236 574l-147 176v30h207l64 -206
h-124z" />
    <glyph glyph-name="ordfeminine" unicode="&#xaa;" horiz-adv-x="373" 
d="M334 425v-181h-115v21c-23 -19 -52 -29 -87 -29c-71 0 -109 46 -109 102c0 60 48 94 128 94h56v5c0 19 -13 28 -40 28c-25 0 -49 -10 -81 -30l-47 83c40 34 88 51 143 51c95 0 152 -49 152 -144zM207 357v8h-33c-15 0 -23 -8 -23 -21c0 -15 8 -22 23 -22
c19 0 33 12 33 35z" />
    <glyph glyph-name="ordmasculine" unicode="&#xba;" horiz-adv-x="396" 
d="M23 403c0 95 79 166 175 166s175 -71 175 -166c0 -94 -79 -167 -175 -167s-175 73 -175 167zM245 403c0 31 -18 50 -47 50s-47 -19 -47 -50s18 -50 47 -50s47 19 47 50z" />
    <glyph glyph-name="ordfeminine.ss01" horiz-adv-x="414" 
d="M256 562h116v-318h-116v25c-18 -22 -45 -33 -82 -33c-89 0 -151 69 -151 166c0 49 14 89 42 120c29 31 65 47 109 47c36 0 63 -11 82 -33v26zM247 402c0 33 -22 52 -47 52s-47 -16 -47 -51s22 -52 47 -52s47 18 47 51z" />
    <glyph glyph-name="uni0410" unicode="&#x410;" horiz-adv-x="659" 
d="M472 0l-24 55h-237l-24 -55h-185l300 672h55l300 -672h-185zM387 193l-57 153l-58 -153h115z" />
    <glyph glyph-name="uni0411" unicode="&#x411;" horiz-adv-x="624" 
d="M66 0v660h473v-155h-301v-97h136c128 0 223 -76 223 -200s-96 -208 -223 -208h-308zM238 145h125c41 0 66 22 66 63s-25 62 -66 62h-125v-125z" />
    <glyph glyph-name="uni0412" unicode="&#x412;" horiz-adv-x="624" 
d="M597 196c0 -114 -96 -196 -223 -196h-308v660h238c127 0 223 -80 223 -195c0 -44 -13 -81 -40 -111c69 -28 110 -82 110 -158zM293 515h-62v-116h62c41 0 66 23 66 58s-25 58 -66 58zM429 203c0 39 -25 58 -66 58h-132v-116h132c41 0 66 19 66 58z" />
    <glyph glyph-name="uni0413" unicode="&#x413;" horiz-adv-x="535" 
d="M66 0v660h445v-155h-273v-505h-172z" />
    <glyph glyph-name="uni0403" unicode="&#x403;" horiz-adv-x="535" 
d="M66 0v660h445v-155h-273v-505h-172zM223 724l64 186h207v-30l-147 -156h-124z" />
    <glyph glyph-name="uni0490" unicode="&#x490;" horiz-adv-x="505" 
d="M66 0v660h253v141h162v-296h-243v-505h-172z" />
    <glyph glyph-name="uni0414" unicode="&#x414;" horiz-adv-x="751" 
d="M638 155h93v-296h-172v141h-367v-141h-172v296h55c47 36 66 161 66 376v129h497v-505zM259 155h207v350h-162c-1 -160 -16 -277 -45 -350z" />
    <glyph glyph-name="uni0415" unicode="&#x415;" horiz-adv-x="577" 
d="M66 0v660h458v-155h-286v-91h204v-144h-204v-115h298v-155h-470z" />
    <glyph glyph-name="uni0400" unicode="&#x400;" horiz-adv-x="577" 
d="M66 0v660h458v-155h-286v-91h204v-144h-204v-115h298v-155h-470zM226 724l-147 156v30h207l64 -186h-124z" />
    <glyph glyph-name="uni0401" unicode="&#x401;" horiz-adv-x="577" 
d="M66 0v660h458v-155h-286v-91h204v-144h-204v-115h298v-155h-470zM54 817c0 26 10 48 29 66c20 19 43 28 68 28c55 0 98 -41 98 -94c0 -49 -45 -93 -98 -93c-25 0 -47 9 -67 28s-30 41 -30 65zM329 816c0 26 10 48 29 66c20 19 43 28 68 28c55 0 98 -41 98 -94
c0 -49 -45 -93 -98 -93c-25 0 -47 9 -67 28s-30 41 -30 65z" />
    <glyph glyph-name="uni0416" unicode="&#x416;" horiz-adv-x="1006" 
d="M1004 0h-204l-211 326v-326h-172v326l-211 -326h-204l246 344l-229 316h200l198 -297v297h172v-297l198 297h200l-229 -316z" />
    <glyph glyph-name="uni0417" unicode="&#x417;" horiz-adv-x="592" 
d="M560 197c0 -128 -97 -209 -261 -209c-123 0 -220 59 -267 158l119 84c40 -60 88 -84 147 -84c55 0 94 20 94 61c0 33 -27 54 -76 54h-93v138h73c45 0 71 23 71 56c0 36 -30 59 -75 59c-51 0 -92 -28 -121 -84l-119 84c47 101 135 158 252 158c143 0 231 -72 231 -200
c0 -52 -21 -98 -60 -130c53 -29 85 -80 85 -145z" />
    <glyph glyph-name="uni0418" unicode="&#x418;" horiz-adv-x="717" 
d="M596 672h55v-672h-172v343l-358 -355h-55v672h172v-339z" />
    <glyph glyph-name="uni0419" unicode="&#x419;" horiz-adv-x="717" 
d="M596 672h55v-672h-172v343l-358 -355h-55v672h172v-339zM205 901v9h135v-14c0 -39 18 -60 51 -60s51 21 51 60v14h135v-9c0 -109 -77 -186 -186 -186s-186 77 -186 186z" />
    <glyph glyph-name="uni040D" unicode="&#x40d;" horiz-adv-x="717" 
d="M596 672h55v-672h-172v343l-358 -355h-55v672h172v-339zM328 724l-147 156v30h207l64 -186h-124z" />
    <glyph glyph-name="uni041A" unicode="&#x41a;" horiz-adv-x="695" 
d="M693 0h-204l-251 329v-329h-172v660h172v-299l218 299h200l-227 -314z" />
    <glyph glyph-name="uni040C" unicode="&#x40c;" horiz-adv-x="695" 
d="M693 0h-204l-251 329v-329h-172v660h172v-299l218 299h200l-227 -314zM280 724l64 186h207v-30l-147 -156h-124z" />
    <glyph glyph-name="uni041B" unicode="&#x41b;" horiz-adv-x="671" 
d="M123 660h482v-660h-172v505h-147c-2 -411 -76 -514 -218 -517c-23 0 -45 4 -68 12v146c5 -1 14 -2 27 -2c66 0 96 95 96 377v139z" />
    <glyph glyph-name="uni041C" unicode="&#x41c;" horiz-adv-x="804" 
d="M683 672h55v-672h-172v277l-137 -160h-55l-136 159v-276h-172v672h55l281 -343z" />
    <glyph glyph-name="uni041D" unicode="&#x41d;" horiz-adv-x="717" 
d="M66 0v660h172v-241h241v241h172v-660h-172v264h-241v-264h-172z" />
    <glyph glyph-name="uni041E" unicode="&#x41e;" horiz-adv-x="776" 
d="M32 330c-4 189 162 346 355 342c192 4 361 -153 357 -342c4 -191 -165 -345 -357 -342c-193 -3 -359 151 -355 342zM568 330c0 109 -78 184 -180 184c-106 0 -180 -75 -180 -184c0 -55 17 -100 50 -134c33 -33 77 -50 130 -50c102 0 180 74 180 184z" />
    <glyph glyph-name="uni041F" unicode="&#x41f;" horiz-adv-x="707" 
d="M66 0v660h575v-660h-172v505h-231v-505h-172z" />
    <glyph glyph-name="uni0420" unicode="&#x420;" horiz-adv-x="607" 
d="M66 0v660h259c147 0 255 -90 255 -227c0 -135 -111 -228 -255 -228h-87v-205h-172zM238 355h88c48 0 79 31 79 78s-31 77 -79 77h-88v-155z" />
    <glyph glyph-name="uni0421" unicode="&#x421;" horiz-adv-x="723" 
d="M32 330c-3 189 161 346 357 342c132 0 242 -65 302 -177l-131 -89c-43 72 -100 108 -172 108c-105 0 -180 -74 -180 -185c0 -55 17 -99 50 -133c34 -33 77 -50 130 -50c72 0 129 36 172 108l131 -89c-60 -112 -170 -177 -303 -177c-194 -3 -360 151 -356 342z" />
    <glyph glyph-name="uni0422" unicode="&#x422;" horiz-adv-x="588" 
d="M208 0v505h-198v155h568v-155h-198v-505h-172z" />
    <glyph glyph-name="uni0423" unicode="&#x423;" horiz-adv-x="639" 
d="M451 660h186l-217 -488c-55 -123 -100 -180 -236 -184c-29 0 -59 4 -90 12v146c23 -1 41 -2 54 -2c35 0 64 9 87 27l-233 489h192l134 -307z" />
    <glyph glyph-name="uni040E" unicode="&#x40e;" horiz-adv-x="639" 
d="M451 660h186l-217 -488c-55 -123 -100 -180 -236 -184c-29 0 -59 4 -90 12v146c23 -1 41 -2 54 -2c35 0 64 9 87 27l-233 489h192l134 -307zM147 901v9h135v-14c0 -39 18 -60 51 -60s51 21 51 60v14h135v-9c0 -109 -77 -186 -186 -186s-186 77 -186 186z" />
    <glyph glyph-name="uni0424" unicode="&#x424;" horiz-adv-x="866" 
d="M518 59v-79h-172v79c-95 6 -171 33 -228 80c-57 48 -86 114 -86 197s28 147 85 194s134 73 229 79v71h172v-71c95 -6 172 -33 229 -81c58 -47 87 -113 87 -196s-29 -147 -87 -194c-57 -47 -134 -73 -229 -79zM668 337c0 81 -51 120 -150 127v-260c96 7 150 52 150 133z
M346 204v260c-95 -7 -148 -53 -148 -133s51 -119 148 -127z" />
    <glyph glyph-name="uni0425" unicode="&#x425;" horiz-adv-x="623" 
d="M621 0h-194l-116 185l-115 -185h-194l215 335l-203 325h194l103 -176l103 176h194l-200 -325z" />
    <glyph glyph-name="uni0427" unicode="&#x427;" horiz-adv-x="666" 
d="M428 660h172v-660h-172v229c-38 -14 -79 -21 -124 -21c-163 0 -264 97 -264 268v184h172v-167c0 -85 36 -127 127 -127c35 0 65 5 89 14v280z" />
    <glyph glyph-name="uni0426" unicode="&#x426;" horiz-adv-x="744" 
d="M562 -141v141h-496v660h172v-505h221v505h172v-505h93v-296h-162z" />
    <glyph glyph-name="uni0428" unicode="&#x428;" horiz-adv-x="1008" 
d="M66 0v660h172v-505h180v505h172v-505h180v505h172v-660h-876z" />
    <glyph glyph-name="uni0429" unicode="&#x429;" horiz-adv-x="1055" 
d="M873 -141v141h-807v660h172v-505h180v505h172v-505h180v505h172v-505h93v-296h-162z" />
    <glyph glyph-name="uni040F" unicode="&#x40f;" horiz-adv-x="697" 
d="M631 660v-660h-201v-141h-162v141h-202v660h172v-505h221v505h172z" />
    <glyph glyph-name="uni042C" unicode="&#x42c;" horiz-adv-x="628" 
d="M66 0v660h172v-205h104c144 0 255 -93 255 -228c0 -137 -108 -227 -255 -227h-276zM238 150h105c48 0 79 30 79 77s-31 78 -79 78h-105v-155z" />
    <glyph glyph-name="uni042A" unicode="&#x42a;" horiz-adv-x="722" 
d="M160 0v505h-150v155h322v-205h104c144 0 255 -93 255 -228c0 -137 -108 -227 -255 -227h-276zM332 150h105c48 0 79 30 79 77s-31 78 -79 78h-105v-155z" />
    <glyph glyph-name="uni042B" unicode="&#x42b;" horiz-adv-x="922" 
d="M66 0v660h172v-205h104c144 0 255 -93 255 -228c0 -137 -108 -227 -255 -227h-276zM238 150h105c48 0 79 30 79 77s-31 78 -79 78h-105v-155zM684 0v660h172v-660h-172z" />
    <glyph glyph-name="uni0409" unicode="&#x409;" horiz-adv-x="975" 
d="M944 227c0 -137 -108 -227 -255 -227h-276v505h-127v-5c-2 -407 -74 -509 -218 -512c-23 0 -45 4 -68 12v146c5 -1 14 -2 27 -2c66 0 96 95 96 377v139h462v-205h104c144 0 255 -93 255 -228zM769 227c0 47 -31 78 -79 78h-105v-155h105c48 0 79 30 79 77z" />
    <glyph glyph-name="uni040A" unicode="&#x40a;" horiz-adv-x="1011" 
d="M66 0v660h172v-221h211v221h172v-221h104c144 0 255 -89 255 -220c0 -133 -108 -219 -255 -219h-276v284h-211v-284h-172zM621 150h105c48 0 79 28 79 69c0 43 -31 70 -79 70h-105v-139z" />
    <glyph glyph-name="uni0405" unicode="&#x405;" 
d="M23 136l116 88c39 -52 80 -85 147 -85c45 0 68 16 68 48c0 29 -15 38 -67 61l-68 30c-109 48 -167 110 -167 199c0 117 96 195 231 195c109 0 186 -52 226 -133l-115 -88c-32 48 -62 70 -109 70c-36 0 -59 -14 -59 -42c0 -24 14 -37 57 -54l76 -32
c115 -48 169 -106 169 -199c0 -128 -105 -206 -242 -206c-119 0 -215 57 -263 148z" />
    <glyph glyph-name="uni0404" unicode="&#x404;" horiz-adv-x="723" 
d="M560 254l131 -89c-60 -112 -170 -177 -303 -177c-194 -3 -360 151 -356 342c-3 189 161 346 357 342c132 0 242 -65 302 -177l-131 -89c-43 72 -100 108 -172 108c-79 0 -140 -42 -167 -110h253v-144h-255c24 -71 88 -114 169 -114c72 0 129 36 172 108z" />
    <glyph glyph-name="uni042D" unicode="&#x42d;" horiz-adv-x="723" 
d="M691 330c4 -191 -162 -345 -356 -342c-133 0 -243 65 -303 177l131 89c43 -72 100 -108 172 -108c81 0 145 43 169 114h-227v144h225c-27 68 -88 110 -167 110c-72 0 -129 -36 -172 -108l-131 89c60 112 170 177 302 177c196 4 360 -153 357 -342z" />
    <glyph glyph-name="uni0406" unicode="&#x406;" horiz-adv-x="304" 
d="M66 0v660h172v-660h-172z" />
    <glyph glyph-name="uni0407" unicode="&#x407;" horiz-adv-x="304" 
d="M66 0v660h172v-660h-172zM-83 817c0 26 10 48 30 66c19 19 42 28 67 28c55 0 98 -41 98 -94c0 -49 -45 -93 -98 -93c-25 0 -47 9 -67 28s-30 41 -30 65zM192 816c0 26 10 48 29 66c20 19 43 28 68 28c55 0 98 -41 98 -94c0 -49 -45 -93 -98 -93c-25 0 -47 9 -67 28
s-30 41 -30 65z" />
    <glyph glyph-name="uni0408" unicode="&#x408;" horiz-adv-x="399" 
d="M12 0v146l63 -2c63 0 86 18 86 66v450h172v-469c0 -135 -77 -203 -220 -203c-34 0 -68 4 -101 12z" />
    <glyph glyph-name="uni040B" unicode="&#x40b;" horiz-adv-x="787" 
d="M735 154v-154h-172v137c0 77 -36 117 -100 117c-34 0 -65 -7 -93 -21v-233h-172v505h-188v155h568v-155h-208v-115c35 15 72 22 111 22c149 0 254 -91 254 -258z" />
    <glyph glyph-name="uni042E" unicode="&#x42e;" horiz-adv-x="1028" 
d="M996 330c3 -189 -162 -346 -350 -342c-169 0 -308 116 -336 276h-72v-264h-172v660h172v-241h77c38 149 170 253 331 253c189 4 354 -153 350 -342zM820 330c0 109 -76 184 -174 184s-174 -75 -174 -184s76 -184 174 -184s174 75 174 184z" />
    <glyph glyph-name="uni042F" unicode="&#x42f;" horiz-adv-x="640" 
d="M333 660h241v-660h-172v194h-56l-134 -194h-182l156 226c-79 40 -126 113 -126 202c0 136 112 232 273 232zM402 344v166h-76c-53 0 -91 -34 -91 -83s38 -83 91 -83h76z" />
    <glyph glyph-name="uni0402" unicode="&#x402;" horiz-adv-x="765" 
d="M491 -22l-34 151c68 12 102 24 102 71c0 40 -27 63 -79 63c-45 0 -89 -12 -110 -24v-239h-172v505h-188v155h568v-155h-208v-115c24 12 72 23 119 23c137 0 245 -77 245 -209c0 -71 -23 -125 -69 -162c-46 -36 -104 -57 -174 -64z" />
    <glyph glyph-name="uni0462" unicode="&#x462;" horiz-adv-x="728" 
d="M166 0v473h-156v139h156v68h172v-68h194v-139h-194v-60h108c156 0 251 -80 251 -209s-96 -204 -255 -204h-276zM338 150h109c47 0 75 22 75 57s-30 58 -75 58h-109v-115z" />
    <glyph glyph-name="uni0472" unicode="&#x472;" horiz-adv-x="776" 
d="M744 330c4 -191 -165 -345 -357 -342c-193 -3 -359 151 -355 342c-4 189 162 346 355 342c192 4 361 -153 357 -342zM212 394c30 14 60 21 90 21c22 0 50 -5 85 -14c34 -10 63 -15 87 -15c29 0 58 6 86 19c-27 71 -92 114 -173 114c-85 0 -152 -48 -175 -125zM561 258
c-27 -13 -56 -20 -87 -20c-24 0 -53 5 -87 15c-35 9 -63 14 -85 14c-29 0 -57 -6 -84 -19c27 -67 90 -107 169 -107c83 0 149 44 174 117z" />
    <glyph glyph-name="uni0474" unicode="&#x474;" horiz-adv-x="675" 
d="M675 658v-147c-16 2 -29 3 -38 3c-35 0 -52 -18 -71 -58l-209 -468h-55l-300 672h195l134 -327l84 206c36 89 89 133 178 133c29 0 57 -5 82 -14z" />
    <glyph glyph-name="uni0492" unicode="&#x492;" horiz-adv-x="512" 
d="M484 505h-246v-126h146v-144h-146v-235h-172v235h-76v144h76v281h418v-155z" />
    <glyph glyph-name="uni0496" unicode="&#x496;" horiz-adv-x="1014" 
d="M890 155h114v-296h-162v141h-42l-211 326v-326h-172v326l-211 -326h-204l246 344l-229 316h200l198 -297v297h172v-297l198 297h200l-229 -316z" />
    <glyph glyph-name="uni0498" unicode="&#x498;" horiz-adv-x="592" 
d="M560 197c0 -128 -97 -209 -261 -209c-123 0 -220 59 -267 158l119 84c40 -60 88 -84 147 -84c55 0 94 20 94 61c0 33 -27 54 -76 54h-93v138h73c45 0 71 23 71 56c0 36 -30 59 -75 59c-51 0 -92 -28 -121 -84l-119 84c47 101 135 158 252 158c143 0 231 -72 231 -200
c0 -52 -21 -98 -60 -130c53 -29 85 -80 85 -145zM159 -183v112c18 -1 39 -1 63 -1c32 0 51 19 51 51v48l66 28c43 -24 68 -64 68 -112c0 -77 -66 -135 -171 -135c-26 0 -52 3 -77 9z" />
    <glyph glyph-name="uni049A" unicode="&#x49a;" horiz-adv-x="703" 
d="M575 155h118v-296h-162v141h-42l-251 329v-329h-172v660h172v-299l218 299h200l-227 -313z" />
    <glyph glyph-name="uni04A0" unicode="&#x4a0;" horiz-adv-x="865" 
d="M863 0h-204l-251 329v-329h-172v505h-226v155h398v-299l218 299h200l-227 -314z" />
    <glyph glyph-name="uni04A2" unicode="&#x4a2;" horiz-adv-x="764" 
d="M582 -141v141h-103v264h-241v-264h-172v660h172v-241h241v241h172v-505h93v-296h-162z" />
    <glyph glyph-name="uni04AA" unicode="&#x4aa;" horiz-adv-x="723" 
d="M32 330c-3 189 161 346 357 342c132 0 242 -65 302 -177l-131 -89c-43 72 -100 108 -172 108c-105 0 -180 -74 -180 -185c0 -55 17 -99 50 -133c34 -33 77 -50 130 -50c72 0 129 36 172 108l131 -89c-60 -112 -170 -177 -303 -177c-194 -3 -360 151 -356 342zM243 -183
v112c18 -1 39 -1 63 -1c32 0 51 19 51 51v48l66 28c43 -24 68 -64 68 -112c0 -77 -66 -135 -171 -135c-26 0 -52 3 -77 9z" />
    <glyph glyph-name="uni04AE" unicode="&#x4ae;" horiz-adv-x="629" 
d="M627 660l-226 -407v-253h-172v251l-227 409h190l123 -230l123 230h189z" />
    <glyph glyph-name="uni04B0" unicode="&#x4b0;" horiz-adv-x="629" 
d="M627 660l-223 -402h137v-144h-140v-114h-172v114h-140v144h136l-223 402h190l123 -230l123 230h189z" />
    <glyph glyph-name="uni04B2" unicode="&#x4b2;" horiz-adv-x="641" 
d="M523 155h108v-296h-162v141h-42l-116 185l-115 -185h-194l215 335l-203 325h194l103 -176l103 176h194l-200 -325z" />
    <glyph glyph-name="uni04B6" unicode="&#x4b6;" horiz-adv-x="713" 
d="M600 155h93v-296h-162v141h-103v229c-38 -14 -79 -21 -124 -21c-163 0 -264 97 -264 268v184h172v-167c0 -85 36 -127 127 -127c35 0 65 5 89 14v280h172v-505z" />
    <glyph glyph-name="uni04BA" unicode="&#x4ba;" horiz-adv-x="666" 
d="M626 184v-184h-172v167c0 85 -36 127 -127 127c-35 0 -65 -5 -89 -14v-280h-172v660h172v-229c38 14 79 21 124 21c163 0 264 -97 264 -268z" />
    <glyph glyph-name="uni04C0" unicode="&#x4c0;" horiz-adv-x="304" 
d="M66 0v660h172v-660h-172z" />
    <glyph glyph-name="uni04C1" unicode="&#x4c1;" horiz-adv-x="1006" 
d="M1004 0h-204l-211 326v-326h-172v326l-211 -326h-204l246 344l-229 316h200l198 -297v297h172v-297l198 297h200l-229 -316zM317 901v9h135v-14c0 -39 18 -60 51 -60s51 21 51 60v14h135v-9c0 -109 -77 -186 -186 -186s-186 77 -186 186z" />
    <glyph glyph-name="uni04D0" unicode="&#x4d0;" horiz-adv-x="659" 
d="M472 0l-24 55h-237l-24 -55h-185l300 672h55l300 -672h-185zM387 193l-57 153l-58 -153h115zM144 901v9h135v-14c0 -39 18 -60 51 -60s51 21 51 60v14h135v-9c0 -109 -77 -186 -186 -186s-186 77 -186 186z" />
    <glyph glyph-name="uni04D4" unicode="&#x4d4;" horiz-adv-x="873" 
d="M590 155h242v-155h-381l-10 55h-228l-28 -55h-185l334 660h486v-155h-287l15 -91h190v-144h-167zM383 415l-103 -222h137z" />
    <glyph glyph-name="uni04D6" unicode="&#x4d6;" horiz-adv-x="577" 
d="M66 0v660h458v-155h-286v-91h204v-144h-204v-115h298v-155h-470zM103 901v9h135v-14c0 -39 18 -60 51 -60s51 21 51 60v14h135v-9c0 -109 -77 -186 -186 -186s-186 77 -186 186z" />
    <glyph glyph-name="uni04D8" unicode="&#x4d8;" horiz-adv-x="734" 
d="M702 331c4 -191 -162 -346 -351 -343c-185 0 -319 131 -319 308c0 33 4 73 11 96h477c-20 77 -82 123 -167 123c-65 0 -121 -32 -168 -96l-116 100c65 95 162 153 283 153c197 3 353 -150 350 -341zM516 257h-318c3 -36 20 -64 50 -83c31 -19 66 -28 105 -28
c77 0 138 42 163 111z" />
    <glyph glyph-name="uni04E2" unicode="&#x4e2;" horiz-adv-x="717" 
d="M596 672h55v-672h-172v343l-358 -355h-55v672h172v-339zM221 745v134h340v-134h-340z" />
    <glyph glyph-name="uni04E6" unicode="&#x4e6;" horiz-adv-x="776" 
d="M32 330c-4 189 162 346 355 342c192 4 361 -153 357 -342c4 -191 -165 -345 -357 -342c-193 -3 -359 151 -355 342zM568 330c0 109 -78 184 -180 184c-106 0 -180 -75 -180 -184c0 -55 17 -100 50 -134c33 -33 77 -50 130 -50c102 0 180 74 180 184zM153 817
c0 26 10 48 29 66c20 19 43 28 68 28c55 0 98 -41 98 -94c0 -49 -45 -93 -98 -93c-25 0 -47 9 -67 28s-30 41 -30 65zM428 816c0 26 10 48 29 66c20 19 43 28 68 28c55 0 98 -41 98 -94c0 -49 -45 -93 -98 -93c-25 0 -47 9 -67 28s-30 41 -30 65z" />
    <glyph glyph-name="uni04E8" unicode="&#x4e8;" horiz-adv-x="776" 
d="M744 330c4 -191 -165 -345 -357 -342c-193 -3 -359 151 -355 342c-4 189 162 346 355 342c192 4 361 -153 357 -342zM219 412h338c-29 67 -93 107 -170 107c-79 0 -141 -40 -168 -107zM565 268h-354c23 -79 89 -127 176 -127s154 48 178 127z" />
    <glyph glyph-name="uni04EE" unicode="&#x4ee;" horiz-adv-x="639" 
d="M451 660h186l-217 -488c-55 -123 -100 -180 -236 -184c-29 0 -59 4 -90 12v146c23 -1 41 -2 54 -2c35 0 64 9 87 27l-233 489h192l134 -307zM163 745v134h340v-134h-340z" />
    <glyph glyph-name="uni04F2" unicode="&#x4f2;" horiz-adv-x="639" 
d="M451 660h186l-217 -488c-55 -123 -100 -180 -236 -184c-29 0 -59 4 -90 12v146c23 -1 41 -2 54 -2c35 0 64 9 87 27l-233 489h192l134 -307zM139 724l64 186h177v-30l-127 -156h-114zM388 724l64 186h177v-30l-127 -156h-114z" />
    <glyph glyph-name="uni0414.loclBGR" horiz-adv-x="781" 
d="M672 155h89v-296h-172v141h-397v-141h-172v296h89l254 517h55zM390 376l-108 -221h215z" />
    <glyph glyph-name="uni041B.loclBGR" horiz-adv-x="659" 
d="M657 0h-185l-142 326l-143 -326h-185l300 672h55z" />
    <glyph glyph-name="uni0424.loclBGR" horiz-adv-x="864" 
d="M518 16v-59h-172v59c-181 14 -314 140 -314 316c0 174 133 300 314 312v59h172v-59c181 -12 314 -135 314 -312s-133 -304 -314 -316zM346 162v336c-85 -12 -148 -79 -148 -171s61 -154 148 -165zM666 327c0 92 -63 159 -148 171v-336c87 11 148 73 148 165z" />
    <glyph glyph-name="uni0430" unicode="&#x430;" horiz-adv-x="555" 
d="M503 290v-290h-157v41c-37 -35 -85 -53 -144 -53c-109 0 -172 71 -172 155c0 93 75 149 196 149h105v8c0 39 -24 64 -76 64c-45 0 -77 -18 -125 -61l-80 109c67 68 135 100 226 100c140 0 227 -78 227 -222zM331 183v4h-81c-29 0 -46 -14 -46 -38s19 -39 51 -39
c44 0 76 28 76 73z" />
    <glyph glyph-name="uni0431" unicode="&#x431;" horiz-adv-x="619" 
d="M588 242c0 -149 -110 -253 -268 -253c-169 0 -276 119 -276 308v69c2 230 71 345 359 374c57 5 95 10 112 14c18 5 27 7 28 7v-155c-1 0 -10 -2 -29 -6s-57 -8 -116 -12c-151 -10 -194 -46 -200 -171c39 51 94 76 165 76c132 0 225 -104 225 -251zM412 241
c0 55 -41 96 -96 96s-96 -41 -96 -96c0 -53 43 -96 96 -96c55 0 96 41 96 96z" />
    <glyph glyph-name="uni0432" unicode="&#x432;" horiz-adv-x="559" 
d="M528 154c0 -91 -80 -154 -181 -154h-287v500h249c53 0 97 -13 132 -39s53 -62 53 -107c0 -35 -12 -65 -35 -88c46 -24 69 -61 69 -112zM222 379v-69h73c31 0 47 11 47 34c0 25 -15 35 -47 35h-73zM374 160c0 25 -20 40 -49 40h-103v-80h103c29 0 49 15 49 40z" />
    <glyph glyph-name="uni0433" unicode="&#x433;" horiz-adv-x="464" 
d="M60 0v500h387v-144h-215v-356h-172z" />
    <glyph glyph-name="uni0453" unicode="&#x453;" horiz-adv-x="464" 
d="M60 0v500h387v-144h-215v-356h-172zM186 574l64 206h207v-30l-147 -176h-124z" />
    <glyph glyph-name="uni0491" unicode="&#x491;" horiz-adv-x="464" 
d="M60 0v500h225v141h162v-285h-215v-356h-172z" />
    <glyph glyph-name="uni0434" unicode="&#x434;" horiz-adv-x="674" 
d="M561 144h83v-285h-162v141h-310v-141h-162v285h53c36 35 51 103 58 244l5 112h435v-356zM238 144h152v212h-114v-2c-3 -88 -15 -158 -38 -210z" />
    <glyph glyph-name="uni0435" unicode="&#x435;" horiz-adv-x="568" 
d="M526 190h-320c19 -38 56 -57 112 -57c45 0 88 13 131 39l62 -117c-59 -45 -126 -67 -199 -67c-163 0 -281 114 -281 262c0 147 118 262 267 262c144 0 239 -108 239 -237c0 -30 -4 -58 -11 -85zM200 302h174c-1 45 -38 75 -83 75c-43 0 -78 -27 -91 -75z" />
    <glyph glyph-name="uni0450" unicode="&#x450;" horiz-adv-x="568" 
d="M526 190h-320c19 -38 56 -57 112 -57c45 0 88 13 131 39l62 -117c-59 -45 -126 -67 -199 -67c-163 0 -281 114 -281 262c0 147 118 262 267 262c144 0 239 -108 239 -237c0 -30 -4 -58 -11 -85zM200 302h174c-1 45 -38 75 -83 75c-43 0 -78 -27 -91 -75zM237 574
l-147 176v30h207l64 -206h-124z" />
    <glyph glyph-name="uni0451" unicode="&#x451;" horiz-adv-x="568" 
d="M526 190h-320c19 -38 56 -57 112 -57c45 0 88 13 131 39l62 -117c-59 -45 -126 -67 -199 -67c-163 0 -281 114 -281 262c0 147 118 262 267 262c144 0 239 -108 239 -237c0 -30 -4 -58 -11 -85zM200 302h174c-1 45 -38 75 -83 75c-43 0 -78 -27 -91 -75zM73 678
c0 51 44 93 99 93c52 0 96 -42 96 -93c0 -52 -44 -94 -96 -94c-55 0 -99 42 -99 94zM328 678c0 51 44 93 99 93c52 0 96 -42 96 -93c0 -52 -44 -94 -96 -94c-55 0 -99 42 -99 94z" />
    <glyph glyph-name="uni0436" unicode="&#x436;" horiz-adv-x="886" 
d="M886 0h-202l-160 242v-242h-172v242l-160 -242h-192l173 259l-168 241h199l148 -219v219h172v-219l148 219h199l-163 -233z" />
    <glyph glyph-name="uni0437" unicode="&#x437;" horiz-adv-x="506" 
d="M471 149c0 -108 -69 -161 -216 -161c-104 0 -178 28 -230 91l92 103c33 -33 74 -49 125 -49c43 0 64 10 64 31c0 17 -17 28 -46 28h-72v120h62c21 0 36 10 36 27c0 19 -15 28 -45 28c-43 0 -81 -15 -114 -44l-92 103c53 59 130 86 217 86c129 0 201 -54 201 -153
c0 -41 -15 -75 -45 -104c41 -27 63 -65 63 -106z" />
    <glyph glyph-name="uni0438" unicode="&#x438;" horiz-adv-x="610" 
d="M495 512h55v-512h-172v225l-263 -237h-55v512h172v-225z" />
    <glyph glyph-name="uni0439" unicode="&#x439;" horiz-adv-x="610" 
d="M495 512h55v-512h-172v225l-263 -237h-55v512h172v-225zM129 755v25h135v-25c0 -43 17 -65 51 -65s51 22 51 65v25h135v-25c0 -109 -77 -186 -186 -186s-186 77 -186 186z" />
    <glyph glyph-name="uni045D" unicode="&#x45d;" horiz-adv-x="610" 
d="M495 512h55v-512h-172v225l-263 -237h-55v512h172v-225zM254 574l-147 176v30h207l64 -206h-124z" />
    <glyph glyph-name="uni043A" unicode="&#x43a;" horiz-adv-x="603" 
d="M603 0h-201l-170 250v-250h-172v500h172v-227l168 227h191l-176 -229z" />
    <glyph glyph-name="uni045C" unicode="&#x45c;" horiz-adv-x="603" 
d="M603 0h-201l-170 250v-250h-172v500h172v-227l168 227h191l-176 -229zM249 574l64 206h207v-30l-147 -176h-124z" />
    <glyph glyph-name="uni043B" unicode="&#x43b;" horiz-adv-x="598" 
d="M104 500h434v-500h-171v356h-103v-22c-4 -252 -53 -346 -182 -346c-24 0 -51 7 -67 12v141c4 -1 10 -2 19 -2c51 0 70 55 70 249v112z" />
    <glyph glyph-name="uni043C" unicode="&#x43c;" horiz-adv-x="697" 
d="M60 0v512h55l233 -251l236 251h53v-512h-172v179l-90 -95h-55l-88 94v-178h-172z" />
    <glyph glyph-name="uni043D" unicode="&#x43d;" horiz-adv-x="610" 
d="M60 0v500h172v-173h146v173h172v-500h-172v183h-146v-183h-172z" />
    <glyph glyph-name="uni043E" unicode="&#x43e;" horiz-adv-x="607" 
d="M31 250c-3 143 123 265 272 262c149 3 276 -119 273 -262c3 -143 -124 -265 -273 -262c-149 -3 -275 119 -272 262zM400 250c0 60 -41 104 -96 104c-57 0 -97 -43 -97 -104c0 -63 40 -104 97 -104c56 0 96 44 96 104z" />
    <glyph glyph-name="uni043F" unicode="&#x43f;" horiz-adv-x="602" 
d="M60 0v500h482v-500h-172v356h-138v-356h-172z" />
    <glyph glyph-name="uni0440" unicode="&#x440;" horiz-adv-x="627" 
d="M596 251c0 -152 -102 -263 -240 -263c-53 0 -95 15 -128 46v-214h-172v680h157v-52c31 43 79 64 143 64c140 0 240 -109 240 -261zM420 250c0 67 -43 106 -98 106c-53 0 -97 -37 -97 -105s44 -107 97 -107s98 39 98 106z" />
    <glyph glyph-name="uni0441" unicode="&#x441;" horiz-adv-x="553" 
d="M31 250c-3 145 124 265 273 262c103 0 183 -51 224 -134l-119 -91c-27 43 -58 67 -103 67c-60 0 -99 -43 -99 -104s39 -104 99 -104c45 0 76 25 103 66l119 -90c-41 -83 -121 -134 -224 -134c-149 -3 -276 117 -273 262z" />
    <glyph glyph-name="uni0442" unicode="&#x442;" horiz-adv-x="483" 
d="M155 0v356h-145v144h463v-144h-146v-356h-172z" />
    <glyph glyph-name="uni0443" unicode="&#x443;" horiz-adv-x="572" 
d="M388 500h182l-235 -527c-51 -113 -115 -165 -218 -165c-31 0 -63 4 -96 12v144c32 -1 51 -2 58 -2c47 0 77 11 98 59l8 17l-183 462h183l96 -281z" />
    <glyph glyph-name="uni045E" unicode="&#x45e;" horiz-adv-x="572" 
d="M388 500h182l-235 -527c-51 -113 -115 -165 -218 -165c-31 0 -63 4 -96 12v144c32 -1 51 -2 58 -2c47 0 77 11 98 59l8 17l-183 462h183l96 -281zM101 755v25h135v-25c0 -43 17 -65 51 -65s51 22 51 65v25h135v-25c0 -109 -77 -186 -186 -186s-186 77 -186 186z" />
    <glyph glyph-name="uni0444" unicode="&#x444;" horiz-adv-x="804" 
d="M488 -8v-172h-172v173c-84 6 -153 31 -206 75c-53 45 -79 106 -79 184c0 163 122 252 285 260v238h172v-239c84 -6 152 -31 205 -76c53 -44 80 -105 80 -183c0 -163 -122 -252 -285 -260zM321 136v232c-80 -5 -120 -45 -120 -118c0 -68 45 -107 120 -114zM603 254
c0 69 -47 111 -120 114v-232c80 5 120 45 120 118z" />
    <glyph glyph-name="uni0445" unicode="&#x445;" horiz-adv-x="553" 
d="M553 0h-191l-86 131l-85 -131h-191l181 257l-171 243h191l75 -118l76 118h191l-171 -243z" />
    <glyph glyph-name="uni0447" unicode="&#x447;" horiz-adv-x="570" 
d="M338 500h172v-500h-172v163c-24 -9 -56 -13 -96 -13c-135 0 -211 88 -211 232v118h172v-104c0 -61 23 -91 75 -91c23 0 43 2 60 7v188z" />
    <glyph glyph-name="uni0446" unicode="&#x446;" horiz-adv-x="644" 
d="M452 -141v141h-392v500h171v-356h129v356h171v-356h83v-285h-162z" />
    <glyph glyph-name="uni0448" unicode="&#x448;" horiz-adv-x="893" 
d="M60 0v500h171v-356h130v356h171v-356h130v356h171v-500h-773z" />
    <glyph glyph-name="uni0449" unicode="&#x449;" horiz-adv-x="946" 
d="M754 -141v141h-694v500h171v-356h130v356h171v-356h130v356h171v-356h83v-285h-162z" />
    <glyph glyph-name="uni045F" unicode="&#x45f;" horiz-adv-x="592" 
d="M532 500v-500h-155v-141h-162v141h-155v500h171v-356h130v356h171z" />
    <glyph glyph-name="uni044C" unicode="&#x44c;" horiz-adv-x="557" 
d="M60 0v500h172v-126h72c124 0 222 -67 222 -187s-98 -187 -222 -187h-244zM232 144h69c33 0 50 14 50 41c0 29 -19 45 -50 45h-69v-86z" />
    <glyph glyph-name="uni044A" unicode="&#x44a;" horiz-adv-x="633" 
d="M136 0v356h-126v144h298v-126h72c124 0 222 -67 222 -187s-98 -187 -222 -187h-244zM308 144h69c33 0 50 14 50 41c0 29 -19 45 -50 45h-69v-86z" />
    <glyph glyph-name="uni044B" unicode="&#x44b;" horiz-adv-x="805" 
d="M60 0v500h172v-126h72c124 0 222 -67 222 -187s-98 -187 -222 -187h-244zM573 0v500h172v-500h-172zM232 144h69c33 0 50 14 50 41c0 29 -19 45 -50 45h-69v-86z" />
    <glyph glyph-name="uni0459" unicode="&#x459;" horiz-adv-x="857" 
d="M826 192c0 -122 -98 -192 -222 -192h-243v356h-97v-22c-4 -252 -53 -346 -182 -346c-24 0 -51 7 -67 12v141c4 -1 10 -2 19 -2c51 0 70 55 70 249v112h428v-126h72c124 0 222 -65 222 -182zM651 190c0 25 -23 40 -50 40h-69v-86h69c28 0 50 14 50 46z" />
    <glyph glyph-name="uni045A" unicode="&#x45a;" horiz-adv-x="860" 
d="M829 177c0 -56 -21 -100 -63 -131s-95 -46 -159 -46h-244v210h-131v-210h-172v500h172v-146h131v146h172v-146h72c64 0 117 -16 159 -47s63 -74 63 -130zM654 177c0 24 -21 38 -45 38h-74v-76h74c25 0 45 13 45 38z" />
    <glyph glyph-name="uni0455" unicode="&#x455;" horiz-adv-x="456" 
d="M11 84l80 102c43 -41 89 -62 138 -62c29 0 44 7 44 22c0 11 -8 16 -29 25l-56 23c-99 40 -145 82 -145 161c0 99 77 157 194 157c79 0 141 -24 188 -73l-81 -105c-34 29 -69 43 -106 43c-23 0 -35 -6 -35 -19c0 -11 10 -18 34 -27l50 -20c100 -40 146 -78 146 -157
c0 -51 -19 -92 -58 -122c-39 -29 -88 -44 -149 -44c-89 0 -168 35 -215 96z" />
    <glyph glyph-name="uni0454" unicode="&#x454;" horiz-adv-x="553" 
d="M415 207l113 -86c-52 -89 -126 -133 -222 -133c-155 0 -275 115 -275 262s120 262 275 262c96 0 170 -44 222 -133l-113 -86c-28 41 -62 69 -110 69c-41 0 -75 -20 -92 -55h126v-113h-127c16 -35 50 -56 93 -56c47 0 81 26 110 69z" />
    <glyph glyph-name="uni044D" unicode="&#x44d;" horiz-adv-x="553" 
d="M522 250c0 -147 -120 -262 -275 -262c-96 0 -170 44 -222 133l113 86c29 -43 63 -69 110 -69c43 0 77 21 93 56h-127v113h126c-17 35 -51 55 -92 55c-48 0 -82 -28 -110 -69l-113 86c52 89 126 133 222 133c155 0 275 -115 275 -262z" />
    <glyph glyph-name="uni0456" unicode="&#x456;" horiz-adv-x="284" 
d="M36 677c0 57 46 102 105 102s106 -45 106 -102c0 -56 -47 -101 -106 -101s-105 44 -105 101zM56 0v500h172v-500h-172z" />
    <glyph glyph-name="uni0457" unicode="&#x457;" horiz-adv-x="284" 
d="M-4 677c0 65 27 102 72 102s72 -37 72 -102s-25 -101 -72 -101s-72 36 -72 101zM149 677c0 65 27 102 72 102s72 -37 72 -102s-25 -101 -72 -101s-72 36 -72 101zM56 0v500h172v-500h-172z" />
    <glyph glyph-name="uni0458" unicode="&#x458;" horiz-adv-x="284" 
d="M-65 -180v144c20 -1 33 -2 39 -2c59 0 82 19 82 66v472h172v-489c0 -133 -78 -203 -210 -203c-33 0 -60 4 -83 12zM36 677c0 57 46 102 105 102s106 -45 106 -102c0 -56 -47 -101 -106 -101s-105 44 -105 101z" />
    <glyph glyph-name="uni045B" unicode="&#x45b;" horiz-adv-x="607" 
d="M555 268v-268h-172v243c0 44 -30 74 -73 74s-72 -30 -72 -74v-243h-172v533h-76v139h76v78h172v-78h184v-139h-184v-108c35 31 79 47 130 47c111 0 187 -82 187 -204z" />
    <glyph glyph-name="uni044E" unicode="&#x44e;" horiz-adv-x="824" 
d="M793 250c0 -145 -117 -262 -262 -262c-60 0 -113 18 -158 54c-45 37 -74 84 -88 141h-53v-183h-172v500h172v-173h56c15 55 45 99 89 133c45 35 96 52 154 52c145 0 262 -117 262 -262zM621 250c0 60 -39 104 -94 104s-95 -43 -95 -104s40 -104 95 -104s94 44 94 104z
" />
    <glyph glyph-name="uni044F" unicode="&#x44f;" horiz-adv-x="575" 
d="M271 500h244v-500h-172v136h-27l-115 -136h-191l137 162c-63 31 -98 86 -98 158c0 55 20 98 60 131c41 33 95 49 162 49zM224 315c0 -27 21 -45 52 -45h67v86h-67c-32 0 -52 -16 -52 -41z" />
    <glyph glyph-name="uni0452" unicode="&#x452;" horiz-adv-x="607" 
d="M555 268v-257c0 -133 -78 -203 -210 -203c-33 0 -60 4 -83 12v144c20 -1 33 -2 39 -2c59 0 82 19 82 66v215c0 44 -30 74 -73 74s-72 -30 -72 -74v-243h-172v533h-76v139h76v78h172v-78h184v-139h-184v-108c35 31 79 47 130 47c111 0 187 -82 187 -204z" />
    <glyph glyph-name="uni0463" unicode="&#x463;" horiz-adv-x="613" 
d="M116 0v370h-126v130h126v250h172v-250h166v-130h-166v-47h92c58 0 106 -14 144 -43c39 -29 58 -68 58 -118c0 -100 -90 -162 -202 -162h-264zM288 130h79c27 0 40 11 40 32s-13 31 -40 31h-79v-63z" />
    <glyph glyph-name="uni0473" unicode="&#x473;" horiz-adv-x="607" 
d="M576 250c3 -145 -124 -265 -273 -262c-150 0 -272 115 -272 262s122 262 272 262c149 3 276 -117 273 -262zM201 300c15 7 29 11 44 11s34 -3 58 -10c25 -7 45 -10 60 -10c12 0 26 3 43 10c-17 41 -55 66 -103 66c-49 0 -86 -24 -102 -67zM407 202
c-16 -7 -31 -11 -45 -11c-15 0 -35 3 -59 10s-43 10 -58 10c-14 0 -29 -4 -45 -11c16 -43 54 -67 103 -67s88 25 104 69z" />
    <glyph glyph-name="uni0475" unicode="&#x475;" horiz-adv-x="566" 
d="M566 500v-144h-31c-31 0 -45 -12 -57 -37l-165 -331h-55l-256 512h182l102 -225l53 118c36 80 76 119 151 119c28 0 53 -4 76 -12z" />
    <glyph glyph-name="uni0493" unicode="&#x493;" horiz-adv-x="464" 
d="M447 356h-215v-71h111v-134h-111v-151h-172v151h-70v134h70v215h387v-144z" />
    <glyph glyph-name="uni0497" unicode="&#x497;" horiz-adv-x="922" 
d="M794 144h98v-285h-162v141h-29l-170 253v-253h-172v253l-170 -253h-189l178 270l-166 230h199l148 -210v210h172v-210l148 210h199l-167 -230z" />
    <glyph glyph-name="uni0499" unicode="&#x499;" horiz-adv-x="506" 
d="M471 149c0 -108 -69 -161 -216 -161c-104 0 -178 28 -230 91l92 103c33 -33 74 -49 125 -49c43 0 64 10 64 31c0 17 -17 28 -46 28h-72v120h62c21 0 36 10 36 27c0 19 -15 28 -45 28c-43 0 -81 -15 -114 -44l-92 103c53 59 130 86 217 86c129 0 201 -54 201 -153
c0 -41 -15 -75 -45 -104c41 -27 63 -65 63 -106zM118 -183v112c18 -1 39 -1 63 -1c32 0 51 19 51 51v48l66 28c43 -24 68 -64 68 -112c0 -77 -66 -135 -171 -135c-26 0 -52 3 -77 9z" />
    <glyph glyph-name="uni049B" unicode="&#x49b;" horiz-adv-x="629" 
d="M499 144h100v-285h-162v141h-29l-176 255v-255h-172v500h172v-212l164 212h191l-180 -226z" />
    <glyph glyph-name="uni04A1" unicode="&#x4a1;" horiz-adv-x="739" 
d="M739 0h-191l-180 260v-260h-172v356h-186v144h358v-218l168 218h191l-179 -226z" />
    <glyph glyph-name="uni04A3" unicode="&#x4a3;" horiz-adv-x="653" 
d="M461 -141v141h-83v183h-146v-183h-172v500h172v-173h146v173h172v-356h73v-285h-162z" />
    <glyph glyph-name="uni04AB" unicode="&#x4ab;" horiz-adv-x="553" 
d="M31 250c-3 145 124 265 273 262c103 0 183 -51 224 -134l-119 -91c-27 43 -58 67 -103 67c-60 0 -99 -43 -99 -104s39 -104 99 -104c45 0 76 25 103 66l119 -90c-41 -83 -121 -134 -224 -134c-149 -3 -276 117 -273 262zM155 -183v112c18 -1 39 -1 63 -1
c32 0 51 19 51 51v48l66 28c43 -24 68 -64 68 -112c0 -77 -66 -135 -171 -135c-26 0 -52 3 -77 9z" />
    <glyph glyph-name="uni04AF" unicode="&#x4af;" horiz-adv-x="571" 
d="M569 500l-198 -500v-180h-172v180l-197 500h182l102 -321l101 321h182z" />
    <glyph glyph-name="uni04B1" unicode="&#x4b1;" horiz-adv-x="571" 
d="M569 500l-196 -500h120v-133h-122v-47h-172v47h-121v133h120l-196 500h182l102 -321l101 321h182z" />
    <glyph glyph-name="uni04B3" unicode="&#x4b3;" horiz-adv-x="583" 
d="M451 144h102v-285h-162v141h-29l-86 131l-85 -131h-191l181 257l-171 243h191l75 -118l76 118h191l-171 -243z" />
    <glyph glyph-name="uni04B7" unicode="&#x4b7;" horiz-adv-x="624" 
d="M511 144h83v-285h-162v141h-93v170c-29 -13 -61 -20 -97 -20c-135 0 -211 88 -211 232v118h172v-104c0 -61 23 -91 75 -91c23 0 43 4 61 13v182h172v-356z" />
    <glyph glyph-name="uni04BB" unicode="&#x4bb;" horiz-adv-x="597" 
d="M545 308v-308h-172v283c0 44 -30 74 -73 74s-72 -30 -72 -74v-283h-172v750h172v-285c35 31 79 47 130 47c111 0 187 -82 187 -204z" />
    <glyph glyph-name="uni04CF" unicode="&#x4cf;" horiz-adv-x="292" 
d="M60 0v750h172v-750h-172z" />
    <glyph glyph-name="uni04C2" unicode="&#x4c2;" horiz-adv-x="886" 
d="M886 0h-202l-160 242v-242h-172v242l-160 -242h-192l173 259l-168 241h199l148 -219v219h172v-219l148 219h199l-163 -233zM252 755v25h135v-25c0 -43 17 -65 51 -65s51 22 51 65v25h135v-25c0 -109 -77 -186 -186 -186s-186 77 -186 186z" />
    <glyph glyph-name="uni04D1" unicode="&#x4d1;" horiz-adv-x="555" 
d="M503 290v-290h-157v41c-37 -35 -85 -53 -144 -53c-109 0 -172 71 -172 155c0 93 75 149 196 149h105v8c0 39 -24 64 -76 64c-45 0 -77 -18 -125 -61l-80 109c67 68 135 100 226 100c140 0 227 -78 227 -222zM331 183v4h-81c-29 0 -46 -14 -46 -38s19 -39 51 -39
c44 0 76 28 76 73zM93 755v25h135v-25c0 -43 17 -65 51 -65s51 22 51 65v25h135v-25c0 -109 -77 -186 -186 -186s-186 77 -186 186z" />
    <glyph glyph-name="uni04D5" unicode="&#x4d5;" horiz-adv-x="868" 
d="M826 189h-319c19 -37 55 -56 110 -56c45 0 88 13 131 39l62 -117c-59 -45 -125 -67 -198 -67c-87 0 -156 32 -203 88c-41 -59 -105 -88 -191 -88c-125 0 -188 65 -188 154c0 95 75 152 196 152h105v6c0 39 -24 64 -75 64c-45 0 -78 -20 -126 -61l-80 109
c67 68 135 100 226 100c69 0 123 -18 164 -55c43 37 95 55 158 55c144 0 239 -108 239 -237c0 -31 -4 -59 -11 -86zM498 294h176c-1 51 -35 83 -82 83c-45 0 -81 -31 -94 -83zM331 183v6h-81c-29 0 -46 -15 -46 -39c0 -25 18 -40 50 -40c45 0 77 28 77 73z" />
    <glyph glyph-name="uni04D7" unicode="&#x4d7;" horiz-adv-x="568" 
d="M526 190h-320c19 -38 56 -57 112 -57c45 0 88 13 131 39l62 -117c-59 -45 -126 -67 -199 -67c-163 0 -281 114 -281 262c0 147 118 262 267 262c144 0 239 -108 239 -237c0 -30 -4 -58 -11 -85zM200 302h174c-1 45 -38 75 -83 75c-43 0 -78 -27 -91 -75zM98 755v25h135
v-25c0 -43 17 -65 51 -65s51 22 51 65v25h135v-25c0 -109 -77 -186 -186 -186s-186 77 -186 186z" />
    <glyph glyph-name="uni04D9" unicode="&#x4d9;" horiz-adv-x="568" 
d="M537 250c0 -147 -118 -262 -267 -262c-144 0 -239 108 -239 237c0 30 4 58 11 85h320c-19 38 -56 57 -112 57c-45 0 -88 -13 -131 -39l-62 117c59 45 126 67 199 67c163 0 281 -114 281 -262zM368 198h-174c1 -45 38 -75 83 -75c43 0 78 27 91 75z" />
    <glyph glyph-name="uni04E3" unicode="&#x4e3;" horiz-adv-x="610" 
d="M495 512h55v-512h-172v225l-263 -237h-55v512h172v-225zM155 610v134h320v-134h-320z" />
    <glyph glyph-name="uni04E7" unicode="&#x4e7;" horiz-adv-x="607" 
d="M31 250c-3 143 123 265 272 262c149 3 276 -119 273 -262c3 -143 -124 -265 -273 -262c-149 -3 -275 119 -272 262zM400 250c0 60 -41 104 -96 104c-57 0 -97 -43 -97 -104c0 -63 40 -104 97 -104c56 0 96 44 96 104zM79 678c0 51 44 93 99 93c52 0 96 -42 96 -93
c0 -52 -44 -94 -96 -94c-55 0 -99 42 -99 94zM334 678c0 51 44 93 99 93c52 0 96 -42 96 -93c0 -52 -44 -94 -96 -94c-55 0 -99 42 -99 94z" />
    <glyph glyph-name="uni04E9" unicode="&#x4e9;" horiz-adv-x="607" 
d="M576 250c3 -145 -124 -265 -273 -262c-150 0 -272 115 -272 262s122 262 272 262c149 3 276 -117 273 -262zM203 306h201c-19 39 -54 61 -101 61s-83 -22 -100 -61zM404 194h-201c17 -39 53 -61 100 -61s84 22 101 61z" />
    <glyph glyph-name="uni04EF" unicode="&#x4ef;" horiz-adv-x="572" 
d="M388 500h182l-235 -527c-51 -113 -115 -165 -218 -165c-31 0 -63 4 -96 12v144c32 -1 51 -2 58 -2c47 0 77 11 98 59l8 17l-183 462h183l96 -281zM126 610v134h320v-134h-320z" />
    <glyph glyph-name="uni04F3" unicode="&#x4f3;" horiz-adv-x="572" 
d="M388 500h182l-235 -527c-51 -113 -115 -165 -218 -165c-31 0 -63 4 -96 12v144c32 -1 51 -2 58 -2c47 0 77 11 98 59l8 17l-183 462h183l96 -281zM111 574l64 206h177v-30l-127 -176h-114zM340 574l64 206h177v-30l-127 -176h-114z" />
    <glyph glyph-name="uni0432.loclBGR" horiz-adv-x="605" 
d="M574 221c0 -142 -110 -233 -259 -233c-159 0 -263 104 -263 252v280c0 140 96 242 245 242c172 0 241 -100 241 -205c0 -67 -28 -121 -77 -156c71 -33 113 -96 113 -180zM224 519v-64h46c61 0 95 30 95 83c0 44 -25 70 -68 70c-47 0 -73 -32 -73 -89zM401 227
c0 52 -40 91 -108 91h-69v-72c0 -67 35 -105 90 -105c52 0 87 35 87 86z" />
    <glyph glyph-name="uni0433.loclBGR" horiz-adv-x="466" 
d="M23 147c0 80 52 131 149 166l51 18c23 8 30 15 30 27c0 13 -12 19 -35 19c-37 0 -72 -14 -106 -43l-81 105c47 49 112 73 197 73c121 0 195 -55 195 -151c0 -79 -55 -137 -148 -170l-57 -20c-19 -7 -25 -13 -25 -25c0 -15 15 -22 44 -22c49 0 95 21 138 62l80 -102
c-47 -61 -125 -96 -217 -96c-63 0 -115 14 -155 42s-60 67 -60 117z" />
    <glyph glyph-name="uni0434.loclBGR" horiz-adv-x="627" 
d="M414 500h157v-439c0 -171 -105 -253 -268 -253c-97 0 -181 30 -252 90l87 121c51 -39 96 -57 147 -57c65 0 114 29 114 88v18c-31 -31 -75 -46 -131 -46c-137 0 -237 96 -237 246c0 151 102 244 237 244c66 0 115 -21 146 -63v51zM402 271c0 67 -44 99 -97 99
c-55 0 -98 -36 -98 -100c0 -65 45 -106 98 -106s97 40 97 107z" />
    <glyph glyph-name="uni0436.loclBGR" horiz-adv-x="886" 
d="M886 0h-202l-160 242v-242h-172v242l-160 -242h-192l173 259l-168 241h199l148 -219v469h172v-469l148 219h199l-163 -233z" />
    <glyph glyph-name="uni0437.loclBGR" horiz-adv-x="511" 
d="M476 20c0 -120 -78 -212 -230 -212c-85 0 -166 25 -221 89l82 116c38 -35 79 -52 123 -52c51 0 80 28 80 73s-31 71 -86 71h-64v144h60c44 0 69 19 69 54c0 36 -22 56 -66 56c-33 0 -65 -13 -94 -40l-81 116c47 48 116 77 195 77c140 0 212 -75 212 -179
c0 -62 -21 -110 -64 -144c57 -40 85 -96 85 -169z" />
    <glyph glyph-name="uni0438.loclBGR" horiz-adv-x="601" 
d="M369 500h172v-500h-157v41c-37 -35 -84 -53 -141 -53c-116 0 -191 80 -191 204v308h172v-283c0 -44 30 -74 73 -74s72 30 72 74v283z" />
    <glyph glyph-name="uni0439.loclBGR" horiz-adv-x="601" 
d="M369 500h172v-500h-157v41c-37 -35 -84 -53 -141 -53c-116 0 -191 80 -191 204v308h172v-283c0 -44 30 -74 73 -74s72 30 72 74v283zM113 755v25h135v-25c0 -43 17 -65 51 -65s51 22 51 65v25h135v-25c0 -109 -77 -186 -186 -186s-186 77 -186 186z" />
    <glyph glyph-name="uni045D.loclBGR" horiz-adv-x="601" 
d="M369 500h172v-500h-157v41c-37 -35 -84 -53 -141 -53c-116 0 -191 80 -191 204v308h172v-283c0 -44 30 -74 73 -74s72 30 72 74v283zM238 574l-147 176v30h207l64 -206h-124z" />
    <glyph glyph-name="uni043A.loclBGR" horiz-adv-x="595" 
d="M595 0h-189l-178 264v-264h-172v750h172v-452l156 202h199l-172 -223z" />
    <glyph glyph-name="uni043B.loclBGR" horiz-adv-x="571" 
d="M569 0h-182l-101 225l-102 -225h-182l256 512h55z" />
    <glyph glyph-name="uni043F.loclBGR" horiz-adv-x="597" 
d="M545 308v-308h-172v283c0 44 -30 74 -73 74s-72 -30 -72 -74v-283h-172v500h157v-41c37 35 84 53 141 53c116 0 191 -80 191 -204z" />
    <glyph glyph-name="uni0442.loclBGR" horiz-adv-x="904" 
d="M852 308v-308h-172v283c0 47 -28 74 -71 74c-41 0 -69 -27 -69 -74v-283h-172v283c0 47 -28 74 -71 74c-41 0 -69 -27 -69 -74v-283h-172v500h157v-39c36 34 82 51 137 51c62 0 110 -21 145 -64c40 40 99 64 164 64c119 0 193 -80 193 -204z" />
    <glyph glyph-name="uni0446.loclBGR" horiz-adv-x="654" 
d="M541 144h83v-285h-162v141h-78v41c-37 -35 -84 -53 -141 -53c-116 0 -191 80 -191 204v308h172v-283c0 -44 30 -74 73 -74s72 30 72 74v283h172v-356z" />
    <glyph glyph-name="uni0448.loclBGR" horiz-adv-x="908" 
d="M676 500h172v-500h-157v39c-36 -34 -82 -51 -137 -51c-62 0 -110 21 -145 64c-40 -40 -99 -64 -164 -64c-119 0 -193 80 -193 204v308h172v-283c0 -45 30 -74 71 -74s69 27 69 74v283h172v-283c0 -45 30 -74 71 -74s69 27 69 74v283z" />
    <glyph glyph-name="uni0449.loclBGR" horiz-adv-x="961" 
d="M848 144h83v-285h-162v141h-78v39c-36 -34 -82 -51 -137 -51c-62 0 -110 21 -145 64c-40 -40 -99 -64 -164 -64c-119 0 -193 80 -193 204v308h172v-283c0 -45 30 -74 71 -74s69 27 69 74v283h172v-283c0 -45 30 -74 71 -74s69 27 69 74v283h172v-356z" />
    <glyph glyph-name="uni044C.loclBGR" horiz-adv-x="549" 
d="M518 192c0 -65 -22 -116 -65 -151s-99 -53 -168 -53c-132 0 -233 85 -233 225v287h172v-115h53c148 0 241 -66 241 -193zM343 185c0 36 -25 56 -64 56h-55v-49c0 -36 25 -60 62 -60c33 0 57 18 57 53z" />
    <glyph glyph-name="uni044A.loclBGR" horiz-adv-x="617" 
d="M120 213v143h-110v144h282v-115h53c148 0 241 -66 241 -193c0 -65 -22 -116 -65 -151s-99 -53 -168 -53c-132 0 -233 85 -233 225zM411 185c0 36 -25 56 -64 56h-55v-49c0 -36 25 -60 62 -60c33 0 57 18 57 53z" />
    <glyph glyph-name="uni044E.loclBGR" horiz-adv-x="824" 
d="M793 250c0 -145 -117 -262 -262 -262c-60 0 -113 18 -158 54c-45 37 -74 84 -88 141h-53v-183h-172v750h172v-423h56c15 55 45 99 89 133c45 35 96 52 154 52c145 0 262 -117 262 -262zM621 250c0 60 -39 104 -94 104s-95 -43 -95 -104s40 -104 95 -104s94 44 94 104z
" />
    <glyph glyph-name="uni0431.loclSRB" horiz-adv-x="607" 
d="M576 240c3 -140 -127 -255 -273 -252c-148 -3 -274 112 -272 252c0 93 52 168 132 205c-67 36 -102 82 -102 147c0 96 71 158 203 158h255v-144h-249c-25 0 -40 -12 -40 -32c0 -19 10 -33 57 -50l79 -30c79 -30 133 -66 164 -109c31 -42 46 -90 46 -145zM400 240
c0 55 -41 94 -96 94c-57 0 -97 -39 -97 -94c0 -56 40 -94 97 -94c55 0 96 39 96 94z" />
    <glyph glyph-name="uni0430.ss01" horiz-adv-x="627" 
d="M414 500h157v-500h-157v52c-31 -43 -79 -64 -143 -64c-140 0 -240 109 -240 261s102 263 240 263c63 0 111 -21 143 -64v52zM402 249c0 68 -44 107 -97 107s-98 -39 -98 -106s43 -106 98 -106c53 0 97 37 97 105z" />
    <glyph glyph-name="uni0434.ss01" horiz-adv-x="674" 
d="M570 144h84v-285h-162v141h-310v-141h-162v285h85l201 368h64zM338 269l-60 -125h121z" />
    <glyph glyph-name="uni0443.ss01" horiz-adv-x="597" 
d="M369 500h172v-433c0 -160 -95 -259 -252 -259c-93 0 -185 36 -248 89l87 121c49 -39 88 -56 139 -56c63 0 102 28 102 89v18c-35 -31 -79 -47 -130 -47c-111 0 -187 82 -187 204v274h172v-249c0 -44 30 -74 73 -74s72 30 72 74v249z" />
    <glyph glyph-name="uni045E.ss01" horiz-adv-x="597" 
d="M369 500h172v-433c0 -160 -95 -259 -252 -259c-93 0 -185 36 -248 89l87 121c49 -39 88 -56 139 -56c63 0 102 28 102 89v18c-35 -31 -79 -47 -130 -47c-111 0 -187 82 -187 204v274h172v-249c0 -44 30 -74 73 -74s72 30 72 74v249zM117 755v25h135v-25
c0 -43 17 -65 51 -65s51 22 51 65v25h135v-25c0 -109 -77 -186 -186 -186s-186 77 -186 186z" />
    <glyph glyph-name="uni0444.ss01" horiz-adv-x="970" 
d="M939 251c0 -152 -102 -263 -240 -263c-53 0 -95 15 -128 46v-214h-172v214c-33 -31 -75 -46 -128 -46c-138 0 -240 111 -240 263s100 261 240 261c53 0 96 -15 128 -46v284h172v-284c32 31 75 46 128 46c140 0 240 -109 240 -261zM402 251c0 68 -44 105 -97 105
c-55 0 -98 -39 -98 -106s45 -106 98 -106s97 39 97 107zM763 250c0 67 -43 106 -98 106c-53 0 -97 -37 -97 -105s44 -107 97 -107s98 39 98 106z" />
    <glyph glyph-name="uni04EF.ss01" horiz-adv-x="597" 
d="M369 500h172v-433c0 -160 -95 -259 -252 -259c-93 0 -185 36 -248 89l87 121c49 -39 88 -56 139 -56c63 0 102 28 102 89v18c-35 -31 -79 -47 -130 -47c-111 0 -187 82 -187 204v274h172v-249c0 -44 30 -74 73 -74s72 30 72 74v249zM143 610v134h320v-134h-320z" />
    <glyph glyph-name="uni04F3.ss01" horiz-adv-x="597" 
d="M369 500h172v-433c0 -160 -95 -259 -252 -259c-93 0 -185 36 -248 89l87 121c49 -39 88 -56 139 -56c63 0 102 28 102 89v18c-35 -31 -79 -47 -130 -47c-111 0 -187 82 -187 204v274h172v-249c0 -44 30 -74 73 -74s72 30 72 74v249zM128 574l64 206h177v-30l-127 -176
h-114zM357 574l64 206h177v-30l-127 -176h-114z" />
    <glyph glyph-name="Alpha" unicode="&#x391;" horiz-adv-x="659" 
d="M472 0l-24 55h-237l-24 -55h-185l300 672h55l300 -672h-185zM387 193l-57 153l-58 -153h115z" />
    <glyph glyph-name="Beta" unicode="&#x392;" horiz-adv-x="624" 
d="M597 196c0 -114 -96 -196 -223 -196h-308v660h238c127 0 223 -80 223 -195c0 -44 -13 -81 -40 -111c69 -28 110 -82 110 -158zM293 515h-62v-116h62c41 0 66 23 66 58s-25 58 -66 58zM429 203c0 39 -25 58 -66 58h-132v-116h132c41 0 66 19 66 58z" />
    <glyph glyph-name="Gamma" unicode="&#x393;" horiz-adv-x="535" 
d="M66 0v660h445v-155h-273v-505h-172z" />
    <glyph glyph-name="uni0394" unicode="&#x394;" horiz-adv-x="659" 
d="M357 672l280 -627v-45h-615v45l280 627h55zM405 155l-74 170l-76 -170h150z" />
    <glyph glyph-name="Epsilon" unicode="&#x395;" horiz-adv-x="577" 
d="M66 0v660h458v-155h-286v-91h204v-144h-204v-115h298v-155h-470z" />
    <glyph glyph-name="Zeta" unicode="&#x396;" horiz-adv-x="587" 
d="M273 155h291v-155h-552v45l289 460h-246v155h508v-45z" />
    <glyph glyph-name="Eta" unicode="&#x397;" horiz-adv-x="717" 
d="M66 0v660h172v-241h241v241h172v-660h-172v264h-241v-264h-172z" />
    <glyph glyph-name="Theta" unicode="&#x398;" horiz-adv-x="776" 
d="M32 330c-4 189 162 346 355 342c192 4 361 -153 357 -342c4 -191 -165 -345 -357 -342c-193 -3 -359 151 -355 342zM579 329c0 115 -82 195 -192 195c-111 0 -190 -79 -190 -195c0 -115 80 -193 190 -193c109 0 192 78 192 193zM258 260v138h260v-138h-260z" />
    <glyph glyph-name="Iota" unicode="&#x399;" horiz-adv-x="304" 
d="M66 0v660h172v-660h-172z" />
    <glyph glyph-name="Kappa" unicode="&#x39a;" horiz-adv-x="695" 
d="M693 0h-204l-251 329v-329h-172v660h172v-299l218 299h200l-227 -314z" />
    <glyph glyph-name="Lambda" unicode="&#x39b;" horiz-adv-x="659" 
d="M657 0h-185l-142 326l-143 -326h-185l300 672h55z" />
    <glyph glyph-name="Mu" unicode="&#x39c;" horiz-adv-x="804" 
d="M683 672h55v-672h-172v277l-137 -160h-55l-136 159v-276h-172v672h55l281 -343z" />
    <glyph glyph-name="Nu" unicode="&#x39d;" horiz-adv-x="717" 
d="M479 660h172v-672h-55l-358 347v-335h-172v672h55l358 -342v330z" />
    <glyph glyph-name="Xi" unicode="&#x39e;" horiz-adv-x="640" 
d="M41 505v155h558v-155h-558zM113 245v155h414v-155h-414zM41 0v155h558v-155h-558z" />
    <glyph glyph-name="Omicron" unicode="&#x39f;" horiz-adv-x="776" 
d="M32 330c-4 189 162 346 355 342c192 4 361 -153 357 -342c4 -191 -165 -345 -357 -342c-193 -3 -359 151 -355 342zM568 330c0 109 -78 184 -180 184c-106 0 -180 -75 -180 -184c0 -55 17 -100 50 -134c33 -33 77 -50 130 -50c102 0 180 74 180 184z" />
    <glyph glyph-name="Pi" unicode="&#x3a0;" horiz-adv-x="697" 
d="M66 0v660h565v-660h-172v505h-221v-505h-172z" />
    <glyph glyph-name="Rho" unicode="&#x3a1;" horiz-adv-x="607" 
d="M66 0v660h259c147 0 255 -90 255 -227c0 -135 -111 -228 -255 -228h-87v-205h-172zM238 355h88c48 0 79 31 79 78s-31 77 -79 77h-88v-155z" />
    <glyph glyph-name="Sigma" unicode="&#x3a3;" horiz-adv-x="566" 
d="M271 155h254v-155h-510v45l195 293l-195 277v45h498v-155h-237l110 -156v-21z" />
    <glyph glyph-name="Tau" unicode="&#x3a4;" horiz-adv-x="588" 
d="M208 0v505h-198v155h568v-155h-198v-505h-172z" />
    <glyph glyph-name="Upsilon" unicode="&#x3a5;" horiz-adv-x="629" 
d="M627 660l-226 -407v-253h-172v251l-227 409h190l123 -230l123 230h189z" />
    <glyph glyph-name="Phi" unicode="&#x3a6;" horiz-adv-x="864" 
d="M518 16v-59h-172v59c-181 14 -314 140 -314 316c0 174 133 300 314 312v59h172v-59c181 -12 314 -135 314 -312s-133 -304 -314 -316zM346 162v336c-85 -12 -148 -79 -148 -171s61 -154 148 -165zM666 327c0 92 -63 159 -148 171v-336c87 11 148 73 148 165z" />
    <glyph glyph-name="Chi" unicode="&#x3a7;" horiz-adv-x="623" 
d="M621 0h-194l-116 185l-115 -185h-194l215 335l-203 325h194l103 -176l103 176h194l-200 -325z" />
    <glyph glyph-name="Psi" unicode="&#x3a8;" horiz-adv-x="838" 
d="M333 0v140c-168 0 -271 102 -271 270v250h172v-234c0 -81 39 -131 99 -131v365h172v-365c60 0 99 50 99 131v234h172v-250c0 -168 -103 -270 -271 -270v-140h-172z" />
    <glyph glyph-name="uni03A9" unicode="&#x3a9;" horiz-adv-x="786" 
d="M659 155h80v-155h-294v155c83 40 128 105 128 185c0 102 -75 174 -182 174s-178 -69 -178 -172c0 -83 44 -147 128 -187v-155h-294v155h73c-55 53 -83 118 -83 194c-4 177 162 326 355 323c192 3 361 -149 357 -323c0 -76 -30 -141 -90 -194z" />
    <glyph glyph-name="Alphatonos" unicode="&#x386;" horiz-adv-x="659" 
d="M472 0l-24 55h-237l-24 -55h-185l300 672h55l300 -672h-185zM387 193l-57 153l-58 -153h115zM-37 458v202h175l-55 -202h-120z" />
    <glyph glyph-name="Epsilontonos" unicode="&#x388;" horiz-adv-x="577" 
d="M66 0v660h458v-155h-286v-91h204v-144h-204v-115h298v-155h-470zM-175 458v202h175l-55 -202h-120z" />
    <glyph glyph-name="Etatonos" unicode="&#x389;" horiz-adv-x="717" 
d="M66 0v660h172v-241h241v241h172v-660h-172v264h-241v-264h-172zM-175 458v202h175l-55 -202h-120z" />
    <glyph glyph-name="Iotatonos" unicode="&#x38a;" horiz-adv-x="304" 
d="M66 0v660h172v-660h-172zM-175 458v202h175l-55 -202h-120z" />
    <glyph glyph-name="Omicrontonos" unicode="&#x38c;" horiz-adv-x="776" 
d="M32 330c-4 189 162 346 355 342c192 4 361 -153 357 -342c4 -191 -165 -345 -357 -342c-193 -3 -359 151 -355 342zM568 330c0 109 -78 184 -180 184c-106 0 -180 -75 -180 -184c0 -55 17 -100 50 -134c33 -33 77 -50 130 -50c102 0 180 74 180 184zM-145 458v202h175
l-55 -202h-120z" />
    <glyph glyph-name="Upsilontonos" unicode="&#x38e;" horiz-adv-x="629" 
d="M627 660l-226 -407v-253h-172v251l-227 409h190l123 -230l123 230h189zM-196 458v202h175l-55 -202h-120z" />
    <glyph glyph-name="Omegatonos" unicode="&#x38f;" horiz-adv-x="786" 
d="M659 155h80v-155h-294v155c83 40 128 105 128 185c0 102 -75 174 -182 174s-178 -69 -178 -172c0 -83 44 -147 128 -187v-155h-294v155h73c-55 53 -83 118 -83 194c-4 177 162 326 355 323c192 3 361 -149 357 -323c0 -76 -30 -141 -90 -194zM-104 458v202h175l-55 -202
h-120z" />
    <glyph glyph-name="Iotadieresis" unicode="&#x3aa;" horiz-adv-x="304" 
d="M66 0v660h172v-660h-172zM-83 817c0 26 10 48 30 66c19 19 42 28 67 28c55 0 98 -41 98 -94c0 -49 -45 -93 -98 -93c-25 0 -47 9 -67 28s-30 41 -30 65zM192 816c0 26 10 48 29 66c20 19 43 28 68 28c55 0 98 -41 98 -94c0 -49 -45 -93 -98 -93c-25 0 -47 9 -67 28
s-30 41 -30 65z" />
    <glyph glyph-name="Upsilondieresis" unicode="&#x3ab;" horiz-adv-x="629" 
d="M627 660l-226 -407v-253h-172v251l-227 409h190l123 -230l123 230h189zM80 817c0 26 10 48 29 66c20 19 43 28 68 28c55 0 98 -41 98 -94c0 -49 -45 -93 -98 -93c-25 0 -47 9 -67 28s-30 41 -30 65zM355 816c0 26 10 48 29 66c20 19 43 28 68 28c55 0 98 -41 98 -94
c0 -49 -45 -93 -98 -93c-25 0 -47 9 -67 28s-30 41 -30 65z" />
    <glyph glyph-name="Xi.ss01" horiz-adv-x="670" 
d="M629 505h-200v-105h128v-155h-128v-90h200v-155h-588v155h210v90h-138v155h138v105h-210v155h588v-155z" />
    <glyph glyph-name="alpha" unicode="&#x3b1;" horiz-adv-x="644" 
d="M602 142l27 1v-143c-23 -7 -57 -12 -86 -12c-63 0 -106 25 -129 75c-31 -50 -80 -75 -148 -75c-137 0 -235 110 -235 261s98 263 235 263c67 0 118 -26 147 -73l3 61h157c-7 -117 -10 -194 -10 -231v-71c0 -37 11 -56 39 -56zM394 249c0 68 -43 107 -95 107
s-92 -39 -92 -106s39 -106 92 -106c52 0 95 37 95 105z" />
    <glyph glyph-name="beta" unicode="&#x3b2;" horiz-adv-x="627" 
d="M596 230c0 -138 -105 -242 -245 -242c-45 0 -86 12 -123 35v-203h-172v695c0 144 104 247 254 247c136 0 238 -84 238 -198c0 -59 -23 -108 -66 -140c72 -36 114 -105 114 -194zM423 236c0 57 -36 94 -93 94h-60v144h32c39 0 65 24 65 64s-24 66 -65 66
c-47 0 -74 -32 -74 -89v-335c33 -23 66 -34 100 -34c59 0 95 35 95 90z" />
    <glyph glyph-name="gamma" unicode="&#x3b3;" horiz-adv-x="561" 
d="M559 500l-192 -498v-182h-172v179l-193 501h182l97 -308l96 308h182z" />
    <glyph glyph-name="delta" unicode="&#x3b4;" horiz-adv-x="610" 
d="M579 253c2 -148 -121 -268 -274 -265c-158 0 -274 108 -274 256c0 64 19 119 57 164c39 45 90 74 153 86l-197 211v45h522v-154h-210l116 -121c73 -76 107 -147 107 -222zM403 250c0 60 -42 105 -98 105s-98 -45 -98 -105s41 -103 98 -104c57 1 98 44 98 104z" />
    <glyph glyph-name="epsilon" unicode="&#x3b5;" horiz-adv-x="517" 
d="M400 182l92 -103c-51 -61 -126 -91 -227 -91c-141 0 -230 58 -230 150c0 47 29 86 84 113c-44 29 -66 65 -66 108c0 93 87 153 220 153c95 0 171 -30 219 -86l-92 -103c-27 27 -75 44 -126 44c-36 0 -54 -9 -54 -28c0 -17 15 -28 36 -28h83v-120h-93
c-31 0 -46 -9 -46 -27c0 -21 21 -31 64 -31c56 0 105 18 136 49z" />
    <glyph glyph-name="zeta" unicode="&#x3b6;" horiz-adv-x="486" 
d="M501 706l-238 -355l-11 -17c-36 -52 -48 -73 -48 -101c0 -43 23 -63 95 -86l56 -18c87 -28 131 -88 131 -171c0 -47 -11 -93 -33 -138h-168c17 29 27 65 27 93c0 47 -18 69 -69 86l-56 20c-104 37 -156 101 -156 189c0 29 7 59 22 91s41 77 80 134l110 163h-190v154h448
v-44z" />
    <glyph glyph-name="eta" unicode="&#x3b7;" horiz-adv-x="622" 
d="M570 308v-488h-172v463c0 44 -30 74 -73 74s-72 -30 -72 -74v-283h-172v302c0 39 -11 56 -39 56l-27 -1v143c25 8 54 12 86 12c59 0 96 -16 119 -53c40 33 94 53 153 53s107 -19 143 -56s54 -86 54 -148z" />
    <glyph glyph-name="theta" unicode="&#x3b8;" horiz-adv-x="656" 
d="M611 379c0 -248 -104 -391 -283 -391s-283 143 -283 391c0 244 103 383 283 383s283 -139 283 -383zM223 443h210c-7 115 -37 161 -105 161s-98 -46 -105 -161zM432 299h-208c9 -108 40 -153 104 -153s95 45 104 153z" />
    <glyph glyph-name="iota" unicode="&#x3b9;" horiz-adv-x="332" 
d="M54 181v319h172v-292c0 -47 15 -66 52 -66c6 0 19 1 39 2v-144c-23 -8 -50 -12 -83 -12c-120 0 -180 64 -180 193z" />
    <glyph glyph-name="kappa" unicode="&#x3ba;" horiz-adv-x="595" 
d="M595 0h-189l-178 245v-245h-172v500h172v-222l166 222h199l-181 -240z" />
    <glyph glyph-name="lambda" unicode="&#x3bb;" horiz-adv-x="587" 
d="M560 144h27v-144c-26 -8 -51 -12 -75 -12c-75 0 -117 35 -145 119l-67 200l-134 -307h-182l230 505l-11 35c-15 48 -36 68 -87 68l-55 -2v144c23 8 51 12 85 12c113 0 171 -61 210 -165l155 -416c9 -25 26 -37 49 -37z" />
    <glyph glyph-name="uni03BC" unicode="&#x3bc;" horiz-adv-x="626" 
d="M584 142l27 1v-143c-23 -7 -57 -12 -86 -12c-52 0 -90 17 -113 50c-24 -32 -59 -50 -98 -50c-34 0 -63 12 -86 37v-205h-172v680h172v-281c0 -45 29 -76 72 -76c44 0 73 31 73 76v281h172v-304c0 -37 12 -54 39 -54z" />
    <glyph glyph-name="nu" unicode="&#x3bd;" horiz-adv-x="571" 
d="M387 500h182l-256 -512h-55l-256 512h182l102 -225z" />
    <glyph glyph-name="xi" unicode="&#x3be;" horiz-adv-x="498" 
d="M473 -42c0 -46 -11 -92 -32 -138h-168c16 31 26 65 26 93c0 49 -17 70 -65 82l-28 7c-108 27 -170 101 -170 201c0 75 34 139 91 178c-48 27 -72 67 -72 121c0 35 17 67 50 94h-64v154h428v-154h-163c-51 0 -80 -33 -80 -72c0 -40 29 -73 80 -73h118v-144h-127
c-53 0 -86 -29 -86 -76c0 -49 27 -73 104 -93l27 -7c89 -23 131 -88 131 -173z" />
    <glyph glyph-name="omicron" unicode="&#x3bf;" horiz-adv-x="607" 
d="M31 250c-3 143 123 265 272 262c149 3 276 -119 273 -262c3 -143 -124 -265 -273 -262c-149 -3 -275 119 -272 262zM400 250c0 60 -41 104 -96 104c-57 0 -97 -43 -97 -104c0 -63 40 -104 97 -104c56 0 96 44 96 104z" />
    <glyph glyph-name="pi" unicode="&#x3c0;" horiz-adv-x="593" 
d="M64 0v346h-64v154h593v-154h-64v-346h-172v346h-121v-346h-172z" />
    <glyph glyph-name="rho" unicode="&#x3c1;" horiz-adv-x="615" 
d="M584 249c0 -152 -98 -261 -236 -261c-53 0 -94 15 -124 45v-213h-172v424c0 162 104 268 266 268c159 0 266 -104 266 -263zM408 250c0 64 -37 106 -94 106c-56 0 -93 -41 -93 -105s37 -107 93 -107s94 43 94 106z" />
    <glyph glyph-name="uni03C2" unicode="&#x3c2;" horiz-adv-x="535" 
d="M321 -87c0 47 -16 69 -63 86l-38 14c-133 49 -189 119 -189 236c0 156 109 263 264 263c101 0 182 -47 225 -134l-119 -91c-29 45 -62 67 -102 67c-55 0 -92 -39 -92 -96c0 -63 32 -81 110 -110l54 -19c81 -29 124 -88 124 -171c0 -43 -10 -89 -31 -138h-168
c17 33 25 64 25 93z" />
    <glyph glyph-name="sigma" unicode="&#x3c3;" horiz-adv-x="654" 
d="M632 500v-154h-105c27 -33 41 -71 41 -113c0 -140 -116 -245 -270 -245c-151 0 -267 112 -267 259c0 152 109 253 277 253h324zM392 250c0 61 -38 104 -93 104s-92 -41 -92 -104s37 -104 92 -104s93 43 93 104z" />
    <glyph glyph-name="tau" unicode="&#x3c4;" horiz-adv-x="510" 
d="M478 346h-159v-138c0 -48 23 -66 86 -66l63 2v-144c-33 -8 -67 -12 -101 -12c-143 0 -220 71 -220 203v155h-137v154h468v-154z" />
    <glyph glyph-name="upsilon" unicode="&#x3c5;" horiz-adv-x="602" 
d="M52 233v267h172v-284c0 -43 32 -73 77 -73s77 30 77 73v284h172v-267c0 -144 -102 -245 -249 -245s-249 101 -249 245z" />
    <glyph glyph-name="phi" unicode="&#x3c6;" horiz-adv-x="790" 
d="M482 -12v-168h-172v168c-165 8 -279 113 -279 264s111 252 279 260v148h172v-148c166 -8 277 -109 277 -260c0 -152 -112 -256 -277 -264zM315 132v236c-73 -4 -117 -46 -117 -118s42 -114 117 -118zM593 250c0 71 -43 114 -116 118v-236c75 4 116 46 116 118z" />
    <glyph glyph-name="chi" unicode="&#x3c7;" horiz-adv-x="569" 
d="M538 -36h41v-144c-23 -8 -52 -12 -87 -12c-64 0 -105 29 -146 105l-57 108l-101 -201h-191l197 353l-80 146c-15 27 -32 37 -63 37h-39v144c23 8 52 12 87 12c68 0 107 -32 146 -105l47 -88l91 181h191l-187 -335l90 -164c15 -27 32 -37 61 -37z" />
    <glyph glyph-name="psi" unicode="&#x3c8;" horiz-adv-x="830" 
d="M329 -180v168c-165 0 -277 103 -277 262v250h172v-236c0 -72 45 -121 105 -121v517h172v-517c60 0 105 49 105 121v236h172v-250c0 -159 -112 -262 -277 -262v-168h-172z" />
    <glyph glyph-name="omega" unicode="&#x3c9;" horiz-adv-x="810" 
d="M779 247c0 -156 -92 -259 -229 -259c-61 0 -109 20 -145 59c-36 -39 -84 -59 -145 -59c-137 0 -229 103 -229 259c0 135 69 233 182 260l56 -146c-44 -25 -66 -64 -66 -119c0 -61 27 -99 68 -99c33 0 53 25 53 68v142h162v-142c0 -43 20 -68 53 -68c41 0 68 38 68 99
c0 55 -22 94 -66 119l56 146c113 -27 182 -125 182 -260z" />
    <glyph glyph-name="iotatonos" unicode="&#x3af;" horiz-adv-x="332" 
d="M54 181v319h172v-292c0 -47 15 -66 52 -66c6 0 19 1 39 2v-144c-23 -8 -50 -12 -83 -12c-120 0 -180 64 -180 193zM53 574l40 206h204v-30l-119 -176h-125z" />
    <glyph glyph-name="iotadieresis" unicode="&#x3ca;" horiz-adv-x="332" 
d="M54 181v319h172v-292c0 -47 15 -66 52 -66c6 0 19 1 39 2v-144c-23 -8 -50 -12 -83 -12c-120 0 -180 64 -180 193zM-80 677c0 26 10 48 30 66c19 19 42 28 67 28c55 0 98 -41 98 -94c0 -49 -45 -93 -98 -93c-25 0 -47 9 -67 28s-30 41 -30 65zM165 677c0 26 10 48 29 66
c20 19 43 28 68 28c55 0 98 -41 98 -94c0 -49 -45 -93 -98 -93c-25 0 -47 9 -67 28s-30 41 -30 65z" />
    <glyph glyph-name="iotadieresistonos" unicode="&#x390;" horiz-adv-x="332" 
d="M54 181v319h172v-292c0 -47 15 -66 52 -66c6 0 19 1 39 2v-144c-23 -8 -50 -12 -83 -12c-120 0 -180 64 -180 193zM52 574l40 206h194v-30l-119 -176h-115zM-152 677c0 52 46 94 95 94c53 0 96 -41 96 -94c0 -49 -44 -93 -96 -93c-24 0 -46 9 -65 28
c-20 19 -30 41 -30 65zM279 677c0 52 46 94 95 94c53 0 96 -41 96 -94c0 -49 -44 -93 -96 -93c-24 0 -46 9 -66 28c-19 19 -29 41 -29 65z" />
    <glyph glyph-name="upsilontonos" unicode="&#x3cd;" horiz-adv-x="602" 
d="M52 233v267h172v-284c0 -43 32 -73 77 -73s77 30 77 73v284h172v-267c0 -144 -102 -245 -249 -245s-249 101 -249 245zM214 574l40 206h204v-30l-119 -176h-125z" />
    <glyph glyph-name="upsilondieresis" unicode="&#x3cb;" horiz-adv-x="602" 
d="M52 233v267h172v-284c0 -43 32 -73 77 -73s77 30 77 73v284h172v-267c0 -144 -102 -245 -249 -245s-249 101 -249 245zM76 678c0 51 44 93 99 93c52 0 96 -42 96 -93c0 -52 -44 -94 -96 -94c-55 0 -99 42 -99 94zM331 678c0 51 44 93 99 93c52 0 96 -42 96 -93
c0 -52 -44 -94 -96 -94c-55 0 -99 42 -99 94z" />
    <glyph glyph-name="upsilondieresistonos" unicode="&#x3b0;" horiz-adv-x="602" 
d="M52 233v267h172v-284c0 -43 32 -73 77 -73s77 30 77 73v284h172v-267c0 -144 -102 -245 -249 -245s-249 101 -249 245zM213 574l40 206h194v-30l-119 -176h-115zM9 677c0 52 46 94 95 94c53 0 96 -41 96 -94c0 -49 -44 -93 -96 -93c-24 0 -46 9 -66 28
c-19 19 -29 41 -29 65zM440 677c0 52 46 94 95 94c53 0 96 -41 96 -94c0 -49 -44 -93 -96 -93c-24 0 -46 9 -66 28c-19 19 -29 41 -29 65z" />
    <glyph glyph-name="omicrontonos" unicode="&#x3cc;" horiz-adv-x="607" 
d="M31 250c-3 143 123 265 272 262c149 3 276 -119 273 -262c3 -143 -124 -265 -273 -262c-149 -3 -275 119 -272 262zM400 250c0 60 -41 104 -96 104c-57 0 -97 -43 -97 -104c0 -63 40 -104 97 -104c56 0 96 44 96 104zM217 574l40 206h204v-30l-119 -176h-125z" />
    <glyph glyph-name="omegatonos" unicode="&#x3ce;" horiz-adv-x="810" 
d="M779 247c0 -156 -92 -259 -229 -259c-61 0 -109 20 -145 59c-36 -39 -84 -59 -145 -59c-137 0 -229 103 -229 259c0 135 69 233 182 260l56 -146c-44 -25 -66 -64 -66 -119c0 -61 27 -99 68 -99c33 0 53 25 53 68v142h162v-142c0 -43 20 -68 53 -68c41 0 68 38 68 99
c0 55 -22 94 -66 119l56 146c113 -27 182 -125 182 -260zM318 574l40 206h204v-30l-119 -176h-125z" />
    <glyph glyph-name="alphatonos" unicode="&#x3ac;" horiz-adv-x="644" 
d="M602 142l27 1v-143c-23 -7 -57 -12 -86 -12c-63 0 -106 25 -129 75c-31 -50 -80 -75 -148 -75c-137 0 -235 110 -235 261s98 263 235 263c67 0 118 -26 147 -73l3 61h157c-7 -117 -10 -194 -10 -231v-71c0 -37 11 -56 39 -56zM394 249c0 68 -43 107 -95 107
s-92 -39 -92 -106s39 -106 92 -106c52 0 95 37 95 105zM212 574l40 206h204v-30l-119 -176h-125z" />
    <glyph glyph-name="epsilontonos" unicode="&#x3ad;" horiz-adv-x="517" 
d="M400 182l92 -103c-51 -61 -126 -91 -227 -91c-141 0 -230 58 -230 150c0 47 29 86 84 113c-44 29 -66 65 -66 108c0 93 87 153 220 153c95 0 171 -30 219 -86l-92 -103c-27 27 -75 44 -126 44c-36 0 -54 -9 -54 -28c0 -17 15 -28 36 -28h83v-120h-93
c-31 0 -46 -9 -46 -27c0 -21 21 -31 64 -31c56 0 105 18 136 49zM184 574l40 206h204v-30l-119 -176h-125z" />
    <glyph glyph-name="etatonos" unicode="&#x3ae;" horiz-adv-x="622" 
d="M570 308v-488h-172v463c0 44 -30 74 -73 74s-72 -30 -72 -74v-283h-172v302c0 39 -11 56 -39 56l-27 -1v143c25 8 54 12 86 12c59 0 96 -16 119 -53c40 33 94 53 153 53s107 -19 143 -56s54 -86 54 -148zM238 574l40 206h204v-30l-119 -176h-125z" />
    <glyph glyph-name="xi.ss01" horiz-adv-x="543" 
d="M473 -42c0 -46 -11 -92 -32 -138h-168c16 31 26 65 26 93c0 49 -17 70 -65 82l-28 7c-108 27 -170 101 -170 201c0 77 37 145 98 182c-53 39 -79 94 -79 167c0 120 100 209 238 209c103 0 187 -49 231 -134l-119 -91c-29 47 -59 67 -96 67c-51 0 -79 -25 -79 -73
s31 -79 80 -79h114v-144h-127c-53 0 -86 -29 -86 -76c0 -49 27 -73 104 -93l27 -7c89 -23 131 -88 131 -173z" />
    <glyph glyph-name="zero" unicode="0" horiz-adv-x="648" 
d="M50 335c0 195 94 337 274 337s274 -142 274 -337c0 -197 -95 -347 -274 -347s-274 150 -274 347zM422 334c0 124 -31 180 -98 180s-98 -56 -98 -180c0 -125 33 -188 98 -188s98 63 98 188z" />
    <glyph glyph-name="one" unicode="1" horiz-adv-x="415" 
d="M280 660h55v-660h-172v456l-112 -37l-41 152z" />
    <glyph glyph-name="two" unicode="2" horiz-adv-x="599" 
d="M344 144h204v-144l-505 -1v35l237 259c56 61 79 103 79 146c0 47 -28 75 -69 75c-40 0 -68 -28 -68 -79c0 -13 1 -27 4 -44h-173c-5 19 -7 37 -7 56c-2 112 101 228 247 225c137 0 242 -92 242 -217c0 -91 -49 -162 -144 -262z" />
    <glyph glyph-name="three" unicode="3" horiz-adv-x="557" 
d="M517 220c0 -133 -113 -232 -258 -232c-115 0 -206 61 -251 158l119 84c39 -59 74 -84 125 -84c52 0 89 26 89 73s-37 68 -114 68h-94v44l117 174h-188v155h445v-45l-131 -195c81 -31 141 -103 141 -200z" />
    <glyph glyph-name="four" unicode="4" horiz-adv-x="596" 
d="M587 242v-144h-77v-98h-172v98h-326v45l197 517h177l-161 -418h113v162h172v-162h77z" />
    <glyph glyph-name="five" unicode="5" horiz-adv-x="570" 
d="M530 222c0 -135 -115 -234 -264 -234c-117 0 -211 61 -256 158l119 84c39 -59 75 -84 130 -84c56 0 95 27 95 74s-37 67 -114 67h-157v373h409v-155h-246v-77c25 5 46 7 63 7c108 2 224 -83 221 -213z" />
    <glyph glyph-name="six" unicode="6" horiz-adv-x="570" 
d="M539 232c3 -139 -124 -246 -254 -244c-135 0 -254 103 -254 246c0 36 7 69 21 98c15 29 38 65 69 107l165 221h203l-147 -199c102 -14 197 -103 197 -229zM369 233c0 49 -37 85 -84 85s-84 -36 -84 -85s37 -87 84 -87s84 38 84 87z" />
    <glyph glyph-name="seven" unicode="7" horiz-adv-x="540" 
d="M40 660h478v-45l-281 -615h-187l240 505h-250v155z" />
    <glyph glyph-name="eight" unicode="8" horiz-adv-x="595" 
d="M555 181c0 -121 -110 -193 -257 -193c-148 0 -258 72 -258 193c0 73 38 126 114 160c-57 39 -85 89 -85 150c0 57 21 101 64 133s98 48 165 48s121 -16 164 -48s64 -76 64 -133c0 -61 -28 -111 -85 -150c76 -34 114 -87 114 -160zM226 483c0 -29 23 -48 72 -72
c49 24 71 44 71 73c0 32 -31 53 -71 53c-41 0 -72 -22 -72 -54zM385 188c0 37 -29 61 -88 82c-57 -21 -87 -45 -87 -82s29 -63 88 -63c57 0 87 26 87 63z" />
    <glyph glyph-name="nine" unicode="9" horiz-adv-x="570" 
d="M539 426c0 -36 -7 -69 -22 -98c-14 -29 -37 -65 -68 -107l-165 -221h-203l147 199c-102 14 -197 103 -197 229c-3 139 124 246 254 244c135 0 254 -103 254 -246zM369 427c0 49 -37 87 -84 87s-84 -38 -84 -87s37 -85 84 -85c48 0 84 37 84 85z" />
    <glyph glyph-name="uni2780" unicode="&#x2780;" horiz-adv-x="978" 
d="M57 330c-5 234 198 436 432 432c232 5 437 -200 432 -432c5 -233 -200 -437 -432 -432c-234 -5 -437 198 -432 432zM788 330c3 173 -134 307 -299 304c-165 3 -302 -131 -299 -304c-3 -173 134 -307 299 -304c165 -3 302 131 299 304zM337 105v114h88v221h-82v114h219
v-335h80v-114h-305z" />
    <glyph glyph-name="uni2781" unicode="&#x2781;" horiz-adv-x="978" 
d="M57 330c-5 234 198 436 432 432c232 5 437 -200 432 -432c5 -233 -200 -437 -432 -432c-234 -5 -437 198 -432 432zM788 330c3 173 -134 307 -299 304c-165 3 -302 -131 -299 -304c-3 -173 134 -307 299 -304c165 -3 302 131 299 304zM315 104v27l155 178
c37 44 50 62 50 87c0 27 -16 41 -40 41c-27 0 -42 -18 -42 -46c0 -3 1 -11 2 -24h-124c-3 13 -4 24 -4 35c0 84 72 160 175 160c99 0 173 -64 173 -152c0 -55 -25 -91 -77 -152l-33 -39h118v-115h-353z" />
    <glyph glyph-name="uni2782" unicode="&#x2782;" horiz-adv-x="978" 
d="M57 330c-5 234 198 436 432 432c232 5 437 -200 432 -432c5 -233 -200 -437 -432 -432c-234 -5 -437 198 -432 432zM788 330c3 173 -134 307 -299 304c-165 3 -302 -131 -299 -304c-3 -173 134 -307 299 -304c165 -3 302 131 299 304zM301 209l94 66
c27 -40 47 -53 76 -53c28 0 47 11 47 34c0 24 -19 32 -66 32h-70v34l68 108h-110v124h312v-35l-81 -128c51 -24 87 -73 87 -134c0 -90 -78 -160 -181 -160c-80 0 -145 41 -176 112z" />
    <glyph glyph-name="uni2783" unicode="&#x2783;" horiz-adv-x="978" 
d="M57 330c-5 234 198 436 432 432c232 5 437 -200 432 -432c5 -233 -200 -437 -432 -432c-234 -5 -437 198 -432 432zM788 330c3 173 -134 307 -299 304c-165 3 -302 -131 -299 -304c-3 -173 134 -307 299 -304c165 -3 302 131 299 304zM499 105v60h-225v37l119 352h146
l-100 -270h60v84h137v-84h48v-119h-48v-60h-137z" />
    <glyph glyph-name="uni2784" unicode="&#x2784;" horiz-adv-x="978" 
d="M57 330c-5 234 198 436 432 432c232 5 437 -200 432 -432c5 -233 -200 -437 -432 -432c-234 -5 -437 198 -432 432zM788 330c3 173 -134 307 -299 304c-165 3 -302 -131 -299 -304c-3 -173 134 -307 299 -304c165 -3 302 131 299 304zM301 209l94 66
c27 -39 48 -53 80 -53c31 0 52 11 52 35c0 23 -19 31 -66 31h-109v266h293v-124h-163v-29c11 3 22 4 35 4c73 0 150 -56 150 -146c0 -93 -79 -162 -186 -162c-83 0 -149 41 -180 112z" />
    <glyph glyph-name="uni2785" unicode="&#x2785;" horiz-adv-x="978" 
d="M57 330c-5 234 198 436 432 432c232 5 437 -200 432 -432c5 -233 -200 -437 -432 -432c-234 -5 -437 198 -432 432zM788 330c3 173 -134 307 -299 304c-165 3 -302 -131 -299 -304c-3 -173 134 -307 299 -304c165 -3 302 131 299 304zM300 268c0 48 18 83 61 139l112 147
h162l-100 -131c13 -3 33 -11 42 -16c48 -28 81 -79 81 -140c0 -99 -87 -170 -180 -170s-178 72 -178 171zM523 268c0 27 -20 44 -45 44c-24 0 -43 -18 -43 -43c0 -27 19 -47 44 -47c24 0 44 19 44 46z" />
    <glyph glyph-name="uni2786" unicode="&#x2786;" horiz-adv-x="978" 
d="M57 330c-5 234 198 436 432 432c232 5 437 -200 432 -432c5 -233 -200 -437 -432 -432c-234 -5 -437 198 -432 432zM788 330c3 173 -134 307 -299 304c-165 3 -302 -131 -299 -304c-3 -173 134 -307 299 -304c165 -3 302 131 299 304zM337 105l148 325h-152v124h333v-35
l-180 -414h-149z" />
    <glyph glyph-name="uni2787" unicode="&#x2787;" horiz-adv-x="978" 
d="M57 330c-5 234 198 436 432 432c232 5 437 -200 432 -432c5 -233 -200 -437 -432 -432c-234 -5 -437 198 -432 432zM788 330c3 173 -134 307 -299 304c-165 3 -302 -131 -299 -304c-3 -173 134 -307 299 -304c165 -3 302 131 299 304zM309 231c0 49 24 84 71 105
c-35 26 -52 59 -52 99c0 80 67 127 162 127s161 -47 161 -126c0 -39 -17 -73 -52 -100c47 -21 71 -56 71 -104c0 -84 -75 -135 -180 -135s-181 50 -181 134zM526 426c0 19 -15 30 -36 30s-36 -11 -36 -31c0 -17 11 -28 35 -40c25 12 37 24 37 41zM536 241
c0 23 -16 37 -47 50c-31 -13 -46 -26 -46 -49c0 -24 15 -39 47 -39c31 0 46 15 46 38z" />
    <glyph glyph-name="uni2788" unicode="&#x2788;" horiz-adv-x="978" 
d="M57 330c-5 232 199 437 432 432c234 4 436 -198 432 -432c4 -234 -198 -437 -432 -432c-233 -5 -437 199 -432 432zM788 330c3 173 -134 307 -299 304c-165 3 -302 -131 -299 -304c-3 -173 134 -307 299 -304c165 -3 302 131 299 304zM343 106l100 131
c-13 3 -33 11 -42 16c-48 28 -81 79 -81 140c0 99 87 170 180 170s178 -72 178 -171c0 -48 -18 -83 -61 -139l-112 -147h-162zM543 391c0 27 -19 47 -44 47c-24 0 -44 -19 -44 -46s20 -44 45 -44c24 0 43 18 43 43z" />
    <glyph glyph-name="uni24FF" unicode="&#x24ff;" horiz-adv-x="978" 
d="M57 330c-5 234 198 436 432 432c232 5 437 -200 432 -432c5 -233 -200 -437 -432 -432c-234 -5 -437 198 -432 432zM682 333c0 67 -17 122 -50 165s-81 64 -143 64s-110 -21 -143 -64s-50 -98 -50 -165c0 -69 17 -126 50 -170s81 -66 143 -66s110 22 143 66
s50 101 50 170zM436 332c0 76 17 105 53 105s54 -30 54 -105c0 -77 -18 -110 -54 -110c-35 0 -53 33 -53 110z" />
    <glyph glyph-name="uni2776" unicode="&#x2776;" horiz-adv-x="978" 
d="M57 330c-5 234 198 436 432 432c232 5 437 -200 432 -432c5 -233 -200 -437 -432 -432c-234 -5 -437 198 -432 432zM337 105h305v114h-80v335h-219v-114h82v-221h-88v-114z" />
    <glyph glyph-name="uni2777" unicode="&#x2777;" horiz-adv-x="978" 
d="M57 330c-5 234 198 436 432 432c232 5 437 -200 432 -432c5 -233 -200 -437 -432 -432c-234 -5 -437 198 -432 432zM315 104h353v115h-118l33 39c52 61 77 97 77 152c0 88 -74 152 -173 152c-103 0 -175 -76 -175 -160c0 -11 1 -22 4 -35h124c-1 13 -2 21 -2 24
c0 28 15 46 42 46c24 0 40 -14 40 -41c0 -25 -13 -43 -50 -87l-155 -178v-27z" />
    <glyph glyph-name="uni2778" unicode="&#x2778;" horiz-adv-x="978" 
d="M57 330c-5 234 198 436 432 432c232 5 437 -200 432 -432c5 -233 -200 -437 -432 -432c-234 -5 -437 198 -432 432zM658 257c0 61 -36 110 -87 134l81 128v35h-312v-124h110l-68 -108v-34h70c47 0 66 -8 66 -32c0 -23 -19 -34 -47 -34c-29 0 -49 13 -76 53l-94 -66
c31 -71 96 -112 176 -112c103 0 181 70 181 160z" />
    <glyph glyph-name="uni2779" unicode="&#x2779;" horiz-adv-x="978" 
d="M57 330c-5 234 198 436 432 432c232 5 437 -200 432 -432c5 -233 -200 -437 -432 -432c-234 -5 -437 198 -432 432zM499 105h137v60h48v119h-48v84h-137v-84h-60l100 270h-146l-119 -352v-37h225v-60z" />
    <glyph glyph-name="uni277A" unicode="&#x277a;" horiz-adv-x="978" 
d="M57 330c-5 234 198 436 432 432c232 5 437 -200 432 -432c5 -233 -200 -437 -432 -432c-234 -5 -437 198 -432 432zM666 259c0 90 -77 146 -150 146c-13 0 -24 -1 -35 -4v29h163v124h-293v-266h109c47 0 66 -8 66 -31c0 -24 -21 -35 -52 -35c-32 0 -53 14 -80 53l-94 -66
c31 -71 97 -112 180 -112c107 0 186 69 186 162z" />
    <glyph glyph-name="uni277B" unicode="&#x277b;" horiz-adv-x="978" 
d="M57 330c-5 234 198 436 432 432c232 5 437 -200 432 -432c5 -233 -200 -437 -432 -432c-234 -5 -437 198 -432 432zM658 267c0 61 -33 112 -81 140c-15 8 -29 13 -42 16l100 131h-162l-112 -147c-43 -56 -61 -91 -61 -139c0 -99 85 -171 178 -171s180 71 180 170z
M435 269c0 25 19 43 43 43c25 0 45 -17 45 -44s-20 -46 -44 -46c-25 0 -44 20 -44 47z" />
    <glyph glyph-name="uni277C" unicode="&#x277c;" horiz-adv-x="978" 
d="M57 330c-5 234 198 436 432 432c232 5 437 -200 432 -432c5 -233 -200 -437 -432 -432c-234 -5 -437 198 -432 432zM337 105h149l180 414v35h-333v-124h152z" />
    <glyph glyph-name="uni277D" unicode="&#x277d;" horiz-adv-x="978" 
d="M57 330c-5 234 198 436 432 432c232 5 437 -200 432 -432c5 -233 -200 -437 -432 -432c-234 -5 -437 198 -432 432zM670 232c0 48 -24 83 -71 104c35 27 52 61 52 100c0 79 -66 126 -161 126s-162 -47 -162 -127c0 -40 17 -73 52 -99c-47 -21 -71 -56 -71 -105
c0 -84 76 -134 181 -134s180 51 180 135zM454 425c0 20 15 31 36 31s36 -11 36 -30c0 -17 -12 -29 -37 -41c-24 12 -35 23 -35 40zM443 242c0 23 15 36 46 49c31 -13 47 -27 47 -50s-15 -38 -46 -38c-32 0 -47 15 -47 39z" />
    <glyph glyph-name="uni277E" unicode="&#x277e;" horiz-adv-x="978" 
d="M57 330c-5 232 199 437 432 432c234 4 436 -198 432 -432c4 -234 -198 -437 -432 -432c-233 -5 -437 199 -432 432zM343 106h162l112 147c43 56 61 91 61 139c0 99 -85 171 -178 171s-180 -71 -180 -170c0 -61 33 -112 81 -140c15 -8 29 -13 42 -16zM455 392
c0 27 20 46 44 46c25 0 44 -20 44 -47c0 -25 -19 -43 -43 -43c-25 0 -45 17 -45 44z" />
    <glyph glyph-name="uni24EA" unicode="&#x24ea;" horiz-adv-x="978" 
d="M57 330c-5 234 198 436 432 432c232 5 437 -200 432 -432c5 -233 -200 -437 -432 -432c-234 -5 -437 198 -432 432zM788 330c3 173 -134 307 -299 304c-165 3 -302 -131 -299 -304c-3 -173 134 -307 299 -304c165 -3 302 131 299 304zM296 333c0 67 17 122 50 165
s81 64 143 64s110 -21 143 -64s50 -98 50 -165c0 -69 -17 -126 -50 -170s-81 -66 -143 -66s-110 22 -143 66s-50 101 -50 170zM543 332c0 75 -18 105 -54 105s-53 -29 -53 -105c0 -77 18 -110 53 -110c36 0 54 33 54 110z" />
    <glyph glyph-name="zero.osf" horiz-adv-x="656" 
d="M36 270c-3 157 132 285 291 282c158 3 296 -127 293 -282c3 -156 -135 -286 -293 -282c-159 -3 -294 125 -291 282zM443 270c0 72 -50 124 -115 124c-68 0 -116 -52 -116 -124c0 -73 47 -124 116 -124c65 0 115 52 115 124z" />
    <glyph glyph-name="one.osf" horiz-adv-x="531" 
d="M65 0v144h135v242h-126v154h298v-396h123v-144h-430z" />
    <glyph glyph-name="two.osf" horiz-adv-x="599" 
d="M411 144h137v-144h-511v35l215 162c75 56 106 86 106 130c0 37 -29 67 -70 67s-67 -28 -67 -69c0 -7 1 -19 3 -35h-169c-5 19 -7 36 -7 53c0 107 98 209 245 209c139 0 241 -90 241 -207c0 -75 -40 -133 -123 -201z" />
    <glyph glyph-name="three.osf" horiz-adv-x="549" 
d="M509 99c0 -133 -113 -232 -258 -232c-115 0 -206 61 -251 158l119 84c39 -59 74 -84 125 -84c52 0 89 26 89 73s-38 70 -114 70h-94v44l117 174h-188v154h445v-45l-130 -194c79 -32 140 -106 140 -202z" />
    <glyph glyph-name="four.osf" horiz-adv-x="598" 
d="M588 144v-144h-77v-121h-172v121h-326v45l189 495h177l-153 -396h113v162h172v-162h77z" />
    <glyph glyph-name="five.osf" horiz-adv-x="561" 
d="M521 101c0 -135 -115 -234 -264 -234c-117 0 -211 61 -256 158l119 84c39 -59 75 -84 130 -84c56 0 95 27 95 74c0 46 -38 69 -114 69h-157v372h409v-154h-246v-77c25 5 46 7 63 7c108 2 224 -85 221 -215z" />
    <glyph glyph-name="six.osf" horiz-adv-x="570" 
d="M539 232c3 -139 -124 -246 -254 -244c-135 0 -254 103 -254 246c0 36 7 69 21 98c15 29 38 65 69 107l165 221h203l-147 -199c102 -14 197 -103 197 -229zM369 233c0 49 -37 85 -84 85s-84 -36 -84 -85s37 -87 84 -87s84 38 84 87z" />
    <glyph glyph-name="seven.osf" horiz-adv-x="540" 
d="M40 540h478v-45l-282 -616h-187l241 507h-250v154z" />
    <glyph glyph-name="eight.osf" horiz-adv-x="595" 
d="M555 181c0 -121 -110 -193 -257 -193c-148 0 -258 72 -258 193c0 73 38 126 114 160c-57 39 -85 89 -85 150c0 57 21 101 64 133s98 48 165 48s121 -16 164 -48s64 -76 64 -133c0 -61 -28 -111 -85 -150c76 -34 114 -87 114 -160zM226 483c0 -29 23 -48 72 -72
c49 24 71 44 71 73c0 32 -31 53 -71 53c-41 0 -72 -22 -72 -54zM385 188c0 37 -29 61 -88 82c-57 -21 -87 -45 -87 -82s29 -63 88 -63c57 0 87 26 87 63z" />
    <glyph glyph-name="nine.osf" horiz-adv-x="570" 
d="M539 306c0 -35 -7 -68 -22 -98c-14 -29 -37 -65 -68 -107l-165 -222h-203l147 200c-102 14 -197 103 -197 229c-3 139 123 246 255 244c131 2 256 -105 253 -246zM369 307c0 49 -37 87 -84 87s-84 -38 -84 -87s37 -85 84 -85c48 0 84 37 84 85z" />
    <glyph glyph-name="zero.osf.zero" horiz-adv-x="656" 
d="M620 269c3 -155 -135 -284 -293 -281c-159 -3 -294 126 -291 281c-3 157 132 285 291 282c158 3 296 -127 293 -282zM201 269c0 -13 1 -25 4 -35l164 164c-13 4 -26 6 -41 6c-73 0 -127 -55 -127 -135zM456 269c0 17 -2 32 -6 46l-171 -171c15 -6 32 -9 49 -9
c73 0 128 51 128 134z" />
    <glyph glyph-name="zero.tf" 
d="M29 335c0 208 86 337 251 337s251 -129 251 -337c0 -105 -21 -190 -64 -253s-105 -94 -187 -94s-144 31 -187 94s-64 148 -64 253zM355 334c0 129 -22 180 -75 180s-75 -51 -75 -180c0 -132 23 -188 75 -188s75 56 75 188z" />
    <glyph glyph-name="one.tf" 
d="M395 144h143v-144h-480v144h165v315l-142 -40l-41 152l300 89h55v-516z" />
    <glyph glyph-name="two.tf" 
d="M330 144h204v-144l-505 -1v35l237 259c56 61 79 103 79 146c0 47 -28 75 -69 75c-40 0 -68 -28 -68 -79c0 -13 1 -27 4 -44h-173c-5 19 -7 37 -7 56c-2 112 101 228 247 225c137 0 242 -92 242 -217c0 -91 -49 -162 -144 -262z" />
    <glyph glyph-name="three.tf" 
d="M515 220c0 -133 -113 -232 -258 -232c-115 0 -206 61 -251 158l119 84c39 -59 74 -84 125 -84c52 0 89 26 89 73s-37 68 -114 68h-94v44l117 174h-188v155h445v-45l-131 -195c81 -31 141 -103 141 -200z" />
    <glyph glyph-name="four.tf" 
d="M550 242v-144h-57v-98h-172v98h-316v45l156 517h179l-126 -418h107v162h172v-162h57z" />
    <glyph glyph-name="five.tf" 
d="M531 222c0 -135 -115 -234 -264 -234c-117 0 -211 61 -256 158l119 84c39 -59 75 -84 130 -84c56 0 95 27 95 74s-37 67 -114 67h-157v373h409v-155h-246v-77c25 5 46 7 63 7c108 2 224 -83 221 -213z" />
    <glyph glyph-name="six.tf" 
d="M534 232c3 -139 -124 -246 -254 -244c-135 0 -254 103 -254 246c0 36 7 69 21 98c15 29 38 65 69 107l165 221h203l-147 -199c102 -14 197 -103 197 -229zM364 233c0 49 -37 85 -84 85s-84 -36 -84 -85s37 -87 84 -87s84 38 84 87z" />
    <glyph glyph-name="seven.tf" 
d="M58 660h478v-45l-281 -615h-187l240 505h-250v155z" />
    <glyph glyph-name="eight.tf" 
d="M537 181c0 -121 -110 -193 -257 -193c-148 0 -258 72 -258 193c0 73 38 126 114 160c-57 39 -85 89 -85 150c0 57 21 101 64 133s98 48 165 48s121 -16 164 -48s64 -76 64 -133c0 -61 -28 -111 -85 -150c76 -34 114 -87 114 -160zM208 483c0 -29 23 -48 72 -72
c49 24 71 44 71 73c0 32 -31 53 -71 53c-41 0 -72 -22 -72 -54zM367 188c0 37 -29 61 -88 82c-57 -21 -87 -45 -87 -82s29 -63 88 -63c57 0 87 26 87 63z" />
    <glyph glyph-name="nine.tf" 
d="M534 426c0 -36 -7 -69 -22 -98c-14 -29 -37 -65 -68 -107l-165 -221h-203l147 199c-102 14 -197 103 -197 229c-3 139 124 246 254 244c135 0 254 -103 254 -246zM364 427c0 49 -37 87 -84 87s-84 -38 -84 -87s37 -85 84 -85c48 0 84 37 84 85z" />
    <glyph glyph-name="zero.tf.zero" 
d="M531 335c0 -105 -21 -190 -64 -253s-105 -94 -187 -94s-144 31 -187 94s-64 148 -64 253c0 208 86 337 251 337s251 -129 251 -337zM191 334v-2l153 154c-13 27 -35 41 -64 41c-60 0 -89 -58 -89 -193zM369 326l-152 -151c15 -28 36 -42 63 -42c59 0 88 62 89 193z" />
    <glyph glyph-name="zero.tosf" 
d="M18 269c-3 165 118 284 261 282c143 2 266 -117 263 -282c0 -168 -116 -281 -263 -281c-143 -2 -264 115 -261 281zM365 269c0 80 -34 124 -86 124s-85 -43 -85 -124s33 -123 85 -123s86 43 86 123z" />
    <glyph glyph-name="one.tosf" 
d="M53 0v144h165v242h-156v154h328v-396h153v-144h-490z" />
    <glyph glyph-name="two.tosf" 
d="M397 144h137v-144h-511v35l215 162c73 55 106 87 106 130c0 37 -29 67 -70 67s-67 -28 -67 -69c0 -7 1 -19 3 -35h-169c-5 19 -7 36 -7 53c0 107 98 209 245 209c139 0 241 -90 241 -207c0 -75 -40 -133 -123 -201z" />
    <glyph glyph-name="three.tosf" 
d="M515 99c0 -133 -113 -232 -258 -232c-115 0 -206 61 -251 158l119 84c39 -59 74 -84 125 -84c52 0 89 26 89 73s-38 70 -114 70h-94v44l117 174h-188v154h445v-45l-131 -194c81 -31 141 -105 141 -202z" />
    <glyph glyph-name="four.tosf" 
d="M552 144v-144h-57v-121h-172v121h-316v45l149 495h179l-119 -396h107v162h172v-162h57z" />
    <glyph glyph-name="five.tosf" 
d="M531 101c0 -135 -115 -234 -264 -234c-117 0 -211 61 -256 158l119 84c39 -59 75 -84 130 -84c56 0 95 27 95 74c0 46 -38 69 -114 69h-157v372h409v-154h-246v-77c25 5 46 7 63 7c108 2 224 -85 221 -215z" />
    <glyph glyph-name="six.tosf" 
d="M534 232c3 -139 -124 -246 -254 -244c-135 0 -254 103 -254 246c0 36 7 69 21 98c15 29 38 65 69 107l165 221h203l-147 -199c102 -14 197 -103 197 -229zM364 233c0 49 -37 85 -84 85s-84 -36 -84 -85s37 -87 84 -87s84 38 84 87z" />
    <glyph glyph-name="seven.tosf" 
d="M58 540h478v-45l-282 -616h-187l241 507h-250v154z" />
    <glyph glyph-name="eight.tosf" 
d="M537 181c0 -121 -110 -193 -257 -193c-148 0 -258 72 -258 193c0 73 38 126 114 160c-57 39 -85 89 -85 150c0 57 21 101 64 133s98 48 165 48s121 -16 164 -48s64 -76 64 -133c0 -61 -28 -111 -85 -150c76 -34 114 -87 114 -160zM208 483c0 -29 23 -48 72 -72
c49 24 71 44 71 73c0 32 -31 53 -71 53c-41 0 -72 -22 -72 -54zM367 188c0 37 -29 61 -88 82c-57 -21 -87 -45 -87 -82s29 -63 88 -63c57 0 87 26 87 63z" />
    <glyph glyph-name="nine.tosf" 
d="M534 306c0 -35 -7 -68 -22 -98c-14 -29 -37 -65 -68 -107l-165 -222h-203l147 200c-102 14 -197 103 -197 229c-3 139 123 246 255 244c131 2 256 -105 253 -246zM364 307c0 49 -37 87 -84 87s-84 -38 -84 -87s37 -85 84 -85c48 0 84 37 84 85z" />
    <glyph glyph-name="zero.tosf.zero" 
d="M542 269c0 -168 -116 -281 -263 -281c-143 -2 -264 115 -261 281c-3 165 118 284 261 282c143 2 266 -117 263 -282zM180 269v-14l142 142c-13 6 -27 9 -42 9c-61 0 -100 -50 -100 -137zM380 269c0 11 0 19 -1 24l-147 -147c13 -9 29 -13 48 -13c61 0 100 51 100 136z
" />
    <glyph glyph-name="zero.zero" horiz-adv-x="648" 
d="M598 335c0 -197 -95 -347 -274 -347s-274 150 -274 347c0 195 94 337 274 337s274 -142 274 -337zM212 334v-23l185 183c-18 22 -42 33 -73 33c-75 0 -112 -64 -112 -193zM436 334v17l-184 -183c18 -23 42 -35 72 -35c73 0 112 70 112 201z" />
    <glyph glyph-name="uni2080" unicode="&#x2080;" horiz-adv-x="429" 
d="M37 91c0 125 64 213 177 213c57 0 101 -20 132 -60c31 -39 46 -90 46 -153c0 -64 -16 -116 -47 -157s-74 -62 -131 -62s-100 21 -131 62s-46 93 -46 157zM267 90c0 73 -17 102 -53 102c-35 0 -52 -29 -52 -102s17 -106 52 -106c36 0 53 33 53 106z" />
    <glyph glyph-name="uni2081" unicode="&#x2081;" horiz-adv-x="382" 
d="M39 -120v110h102v196h-91v110h213v-306h83v-110h-307z" />
    <glyph glyph-name="uni2082" unicode="&#x2082;" horiz-adv-x="395" 
d="M253 -10h104v-110l-325 -1v25l149 164c33 37 45 61 45 85c0 25 -14 39 -35 39c-20 0 -34 -13 -34 -41c0 -2 1 -11 2 -27h-122c-3 11 -4 23 -4 35c0 75 64 145 160 145c45 0 82 -13 112 -40c31 -26 46 -59 46 -100c0 -57 -32 -106 -91 -167z" />
    <glyph glyph-name="uni2083" unicode="&#x2083;" horiz-adv-x="364" 
d="M334 20c0 -83 -73 -148 -166 -148c-75 0 -134 39 -162 103l84 59c24 -37 44 -50 73 -50c28 0 46 12 46 36s-19 33 -64 33h-53v30l66 103h-117v110h288v-32l-77 -119c47 -21 82 -66 82 -125z" />
    <glyph glyph-name="uni2084" unicode="&#x2084;" horiz-adv-x="388" 
d="M381 38v-100h-45v-58h-112v58h-215v32l121 326h126l-97 -258h66l2 95h109v-95h45z" />
    <glyph glyph-name="uni2085" unicode="&#x2085;" horiz-adv-x="373" 
d="M343 22c0 -85 -73 -150 -170 -150c-76 0 -138 39 -166 103l84 59c25 -36 45 -50 76 -50c29 0 51 12 51 36s-19 33 -64 33h-100v243h268v-110h-152v-33c11 3 22 4 35 4c67 0 138 -53 138 -135z" />
    <glyph glyph-name="uni2086" unicode="&#x2086;" horiz-adv-x="374" 
d="M351 29c0 -91 -79 -157 -164 -157c-86 0 -164 66 -164 159c0 44 16 75 57 128l104 137h143l-92 -122c31 -7 58 -23 81 -49s35 -58 35 -96zM231 29c0 25 -20 45 -44 45s-44 -20 -44 -45s20 -45 44 -45s44 20 44 45z" />
    <glyph glyph-name="uni2087" unicode="&#x2087;" horiz-adv-x="352" 
d="M30 296h306v-32l-169 -384h-132l141 306h-146v110z" />
    <glyph glyph-name="uni2088" unicode="&#x2088;" horiz-adv-x="392" 
d="M362 -4c0 -77 -70 -124 -166 -124s-166 47 -166 124c0 45 22 77 67 98c-33 24 -49 55 -49 93c0 73 61 117 148 117s148 -44 148 -117c0 -37 -16 -68 -49 -93c45 -21 67 -53 67 -98zM159 181c0 -15 10 -24 37 -37c25 12 37 22 37 37c0 16 -16 27 -37 27s-37 -11 -37 -27z
M241 1c0 19 -14 31 -45 43c-31 -12 -46 -24 -46 -43s14 -32 46 -32c31 0 45 13 45 32z" />
    <glyph glyph-name="uni2089" unicode="&#x2089;" horiz-adv-x="374" 
d="M351 145c0 -44 -16 -75 -57 -128l-104 -137h-143l92 122c-31 7 -58 23 -81 49s-35 58 -35 96c0 91 79 157 164 157c86 0 164 -66 164 -159zM231 147c0 25 -20 45 -44 45s-44 -20 -44 -45s20 -45 44 -45s44 20 44 45z" />
    <glyph glyph-name="zero.dnom" horiz-adv-x="429" 
d="M37 211c0 125 64 213 177 213c57 0 101 -20 132 -60c31 -39 46 -90 46 -153c0 -64 -16 -117 -47 -158s-74 -61 -131 -61s-100 20 -131 61s-46 94 -46 158zM267 210c0 73 -17 102 -53 102c-35 0 -52 -29 -52 -102s17 -106 52 -106c36 0 53 33 53 106z" />
    <glyph glyph-name="one.dnom" horiz-adv-x="382" 
d="M39 0v110h102v196h-91v110h213v-306h83v-110h-307z" />
    <glyph glyph-name="two.dnom" horiz-adv-x="395" 
d="M253 110h104v-110l-325 -1v25l149 164c33 37 45 61 45 85c0 25 -14 39 -35 39c-20 0 -34 -13 -34 -41c0 -2 1 -11 2 -27h-122c-3 11 -4 23 -4 35c0 75 64 145 160 145c45 0 82 -13 112 -40c31 -26 46 -59 46 -100c0 -57 -32 -106 -91 -167z" />
    <glyph glyph-name="three.dnom" horiz-adv-x="364" 
d="M334 140c0 -83 -73 -148 -166 -148c-75 0 -134 39 -162 103l84 59c24 -37 44 -50 73 -50c28 0 46 12 46 36s-19 33 -64 33h-53v30l66 103h-117v110h288v-32l-77 -119c47 -21 82 -66 82 -125z" />
    <glyph glyph-name="four.dnom" horiz-adv-x="388" 
d="M381 158v-100h-45v-58h-112v58h-215v32l121 326h126l-97 -258h66l2 95h109v-95h45z" />
    <glyph glyph-name="five.dnom" horiz-adv-x="373" 
d="M343 142c0 -85 -73 -150 -170 -150c-76 0 -138 39 -166 103l84 59c25 -36 45 -50 76 -50c29 0 51 12 51 36s-19 33 -64 33h-100v243h268v-110h-152v-33c11 3 22 4 35 4c67 0 138 -53 138 -135z" />
    <glyph glyph-name="six.dnom" horiz-adv-x="374" 
d="M351 149c0 -91 -79 -157 -164 -157c-86 0 -164 66 -164 159c0 44 16 75 57 128l104 137h143l-92 -122c31 -7 58 -23 81 -49s35 -58 35 -96zM231 149c0 25 -20 45 -44 45s-44 -20 -44 -45s20 -45 44 -45s44 20 44 45z" />
    <glyph glyph-name="seven.dnom" horiz-adv-x="352" 
d="M30 416h306v-32l-169 -384h-132l141 306h-146v110z" />
    <glyph glyph-name="eight.dnom" horiz-adv-x="392" 
d="M362 116c0 -77 -70 -124 -166 -124s-166 47 -166 124c0 45 22 77 67 98c-33 24 -49 55 -49 93c0 73 61 117 148 117s148 -44 148 -117c0 -37 -16 -68 -49 -93c45 -21 67 -53 67 -98zM159 301c0 -15 10 -24 37 -37c25 12 37 22 37 37c0 16 -16 27 -37 27s-37 -11 -37 -27z
M241 121c0 19 -14 31 -45 43c-31 -12 -46 -24 -46 -43s14 -32 46 -32c31 0 45 13 45 32z" />
    <glyph glyph-name="nine.dnom" horiz-adv-x="374" 
d="M351 265c0 -44 -16 -75 -57 -128l-104 -137h-143l92 122c-31 7 -58 23 -81 49s-35 58 -35 96c0 91 79 157 164 157c86 0 164 -66 164 -159zM231 267c0 25 -20 45 -44 45s-44 -20 -44 -45s20 -45 44 -45s44 20 44 45z" />
    <glyph glyph-name="zero.numr" horiz-adv-x="429" 
d="M37 455c0 125 64 213 177 213c57 0 101 -20 132 -60c31 -39 46 -90 46 -153c0 -64 -16 -117 -47 -158s-74 -61 -131 -61s-100 20 -131 61s-46 94 -46 158zM267 454c0 73 -17 102 -53 102c-35 0 -52 -29 -52 -102s17 -106 52 -106c36 0 53 33 53 106z" />
    <glyph glyph-name="one.numr" horiz-adv-x="382" 
d="M39 244v110h102v196h-91v110h213v-306h83v-110h-307z" />
    <glyph glyph-name="two.numr" horiz-adv-x="395" 
d="M253 354h104v-110l-325 -1v25l149 164c33 37 45 61 45 85c0 25 -14 39 -35 39c-20 0 -34 -13 -34 -41c0 -2 1 -11 2 -27h-122c-3 11 -4 23 -4 35c0 75 64 145 160 145c45 0 82 -13 112 -40c31 -26 46 -59 46 -100c0 -57 -32 -106 -91 -167z" />
    <glyph glyph-name="three.numr" horiz-adv-x="364" 
d="M334 384c0 -83 -73 -148 -166 -148c-75 0 -134 39 -162 103l84 59c24 -37 44 -50 73 -50c28 0 46 12 46 36s-19 33 -64 33h-53v30l66 103h-117v110h288v-32l-77 -119c47 -21 82 -66 82 -125z" />
    <glyph glyph-name="four.numr" horiz-adv-x="388" 
d="M381 402v-100h-45v-58h-112v58h-215v32l121 326h126l-97 -258h66l2 95h109v-95h45z" />
    <glyph glyph-name="five.numr" horiz-adv-x="373" 
d="M343 386c0 -85 -73 -150 -170 -150c-76 0 -138 39 -166 103l84 59c25 -36 45 -50 76 -50c29 0 51 12 51 36s-19 33 -64 33h-100v243h268v-110h-152v-33c11 3 22 4 35 4c67 0 138 -53 138 -135z" />
    <glyph glyph-name="six.numr" horiz-adv-x="374" 
d="M351 393c0 -91 -79 -157 -164 -157c-86 0 -164 66 -164 159c0 44 16 75 57 128l104 137h143l-92 -122c31 -7 58 -23 81 -49s35 -58 35 -96zM231 393c0 25 -20 45 -44 45s-44 -20 -44 -45s20 -45 44 -45s44 20 44 45z" />
    <glyph glyph-name="seven.numr" horiz-adv-x="352" 
d="M30 660h306v-32l-169 -384h-132l141 306h-146v110z" />
    <glyph glyph-name="eight.numr" horiz-adv-x="392" 
d="M362 360c0 -77 -70 -124 -166 -124s-166 47 -166 124c0 45 22 77 67 98c-33 24 -49 55 -49 93c0 73 61 117 148 117s148 -44 148 -117c0 -37 -16 -68 -49 -93c45 -21 67 -53 67 -98zM159 545c0 -15 10 -24 37 -37c25 12 37 22 37 37c0 16 -16 27 -37 27s-37 -11 -37 -27z
M241 365c0 19 -14 31 -45 43c-31 -12 -46 -24 -46 -43s14 -32 46 -32c31 0 45 13 45 32z" />
    <glyph glyph-name="nine.numr" horiz-adv-x="374" 
d="M351 509c0 -44 -16 -75 -57 -128l-104 -137h-143l92 122c-31 7 -58 23 -81 49s-35 58 -35 96c0 91 79 157 164 157c86 0 164 -66 164 -159zM231 511c0 25 -20 45 -44 45s-44 -20 -44 -45s20 -45 44 -45s44 20 44 45z" />
    <glyph glyph-name="uni2070" unicode="&#x2070;" horiz-adv-x="429" 
d="M37 575c0 125 64 213 177 213c57 0 101 -20 132 -60c31 -39 46 -90 46 -153c0 -64 -16 -117 -47 -158s-74 -61 -131 -61s-100 20 -131 61s-46 94 -46 158zM267 574c0 73 -17 102 -53 102c-35 0 -52 -29 -52 -102s17 -106 52 -106c36 0 53 33 53 106z" />
    <glyph glyph-name="uni00B9" unicode="&#xb9;" horiz-adv-x="382" 
d="M39 364v110h102v196h-91v110h213v-306h83v-110h-307z" />
    <glyph glyph-name="uni00B2" unicode="&#xb2;" horiz-adv-x="395" 
d="M253 474h104v-110l-325 -1v25l149 164c33 37 45 61 45 85c0 25 -14 39 -35 39c-20 0 -34 -13 -34 -41c0 -2 1 -11 2 -27h-122c-3 11 -4 23 -4 35c0 75 64 145 160 145c45 0 82 -13 112 -40c31 -26 46 -59 46 -100c0 -57 -32 -106 -91 -167z" />
    <glyph glyph-name="uni00B3" unicode="&#xb3;" horiz-adv-x="364" 
d="M334 504c0 -83 -73 -148 -166 -148c-75 0 -134 39 -162 103l84 59c24 -37 44 -50 73 -50c28 0 46 12 46 36s-19 33 -64 33h-53v30l66 103h-117v110h288v-32l-77 -119c47 -21 82 -66 82 -125z" />
    <glyph glyph-name="uni2074" unicode="&#x2074;" horiz-adv-x="388" 
d="M381 522v-100h-45v-58h-112v58h-215v32l121 326h126l-97 -258h66l2 95h109v-95h45z" />
    <glyph glyph-name="uni2075" unicode="&#x2075;" horiz-adv-x="373" 
d="M343 506c0 -85 -73 -150 -170 -150c-76 0 -138 39 -166 103l84 59c25 -36 45 -50 76 -50c29 0 51 12 51 36s-19 33 -64 33h-100v243h268v-110h-152v-33c11 3 22 4 35 4c67 0 138 -53 138 -135z" />
    <glyph glyph-name="uni2076" unicode="&#x2076;" horiz-adv-x="374" 
d="M351 513c0 -91 -79 -157 -164 -157c-86 0 -164 66 -164 159c0 44 16 75 57 128l104 137h143l-92 -122c31 -7 58 -23 81 -49s35 -58 35 -96zM231 513c0 25 -20 45 -44 45s-44 -20 -44 -45s20 -45 44 -45s44 20 44 45z" />
    <glyph glyph-name="uni2077" unicode="&#x2077;" horiz-adv-x="352" 
d="M30 780h306v-32l-169 -384h-132l141 306h-146v110z" />
    <glyph glyph-name="uni2078" unicode="&#x2078;" horiz-adv-x="392" 
d="M362 480c0 -77 -70 -124 -166 -124s-166 47 -166 124c0 45 22 77 67 98c-33 24 -49 55 -49 93c0 73 61 117 148 117s148 -44 148 -117c0 -37 -16 -68 -49 -93c45 -21 67 -53 67 -98zM159 665c0 -15 10 -24 37 -37c25 12 37 22 37 37c0 16 -16 27 -37 27s-37 -11 -37 -27z
M241 485c0 19 -14 31 -45 43c-31 -12 -46 -24 -46 -43s14 -32 46 -32c31 0 45 13 45 32z" />
    <glyph glyph-name="uni2079" unicode="&#x2079;" horiz-adv-x="374" 
d="M351 629c0 -44 -16 -75 -57 -128l-104 -137h-143l92 122c-31 7 -58 23 -81 49s-35 58 -35 96c0 91 79 157 164 157c86 0 164 -66 164 -159zM231 631c0 25 -20 45 -44 45s-44 -20 -44 -45s20 -45 44 -45s44 20 44 45z" />
    <glyph glyph-name="fraction" unicode="&#x2044;" horiz-adv-x="260" 
d="M-128 0l381 660h135l-382 -660h-134z" />
    <glyph glyph-name="onehalf" unicode="&#xbd;" horiz-adv-x="1002" 
d="M39 244v110h102v196h-91v110h213v-306h83v-110h-307zM254 0l381 660h135l-382 -660h-134zM860 110h104v-110l-325 -1v25l149 164c33 37 45 61 45 85c0 25 -14 39 -35 39c-20 0 -34 -13 -34 -41c0 -2 1 -11 2 -27h-122c-3 11 -4 23 -4 35c0 75 64 145 160 145
c45 0 82 -13 112 -40c31 -26 46 -59 46 -100c0 -57 -32 -106 -91 -167z" />
    <glyph glyph-name="uni2153" unicode="&#x2153;" horiz-adv-x="1006" 
d="M39 244v110h102v196h-91v110h213v-306h83v-110h-307zM254 0l381 660h135l-382 -660h-134zM976 140c0 -83 -73 -148 -166 -148c-75 0 -134 39 -162 103l84 59c24 -37 44 -50 73 -50c28 0 46 12 46 36s-19 33 -64 33h-53v30l66 103h-117v110h288v-32l-77 -119
c47 -21 82 -66 82 -125z" />
    <glyph glyph-name="uni2154" unicode="&#x2154;" horiz-adv-x="1019" 
d="M253 354h104v-110l-325 -1v25l149 164c33 37 45 61 45 85c0 25 -14 39 -35 39c-20 0 -34 -13 -34 -41c0 -2 1 -11 2 -27h-122c-3 11 -4 23 -4 35c0 75 64 145 160 145c45 0 82 -13 112 -40c31 -26 46 -59 46 -100c0 -57 -32 -106 -91 -167zM267 0l381 660h135l-382 -660
h-134zM989 140c0 -83 -73 -148 -166 -148c-75 0 -134 39 -162 103l84 59c24 -37 44 -50 73 -50c28 0 46 12 46 36s-19 33 -64 33h-53v30l66 103h-117v110h288v-32l-77 -119c47 -21 82 -66 82 -125z" />
    <glyph glyph-name="onequarter" unicode="&#xbc;" horiz-adv-x="970" 
d="M39 244v110h102v196h-91v110h213v-306h83v-110h-307zM254 0l381 660h135l-382 -660h-134zM963 158v-100h-45v-58h-112v58h-215v32l121 326h126l-97 -258h66l2 95h109v-95h45z" />
    <glyph glyph-name="threequarters" unicode="&#xbe;" horiz-adv-x="917" 
d="M334 384c0 -83 -73 -148 -166 -148c-75 0 -134 39 -162 103l84 59c24 -37 44 -50 73 -50c28 0 46 12 46 36s-19 33 -64 33h-53v30l66 103h-117v110h288v-32l-77 -119c47 -21 82 -66 82 -125zM201 0l381 660h135l-382 -660h-134zM910 158v-100h-45v-58h-112v58h-215v32
l121 326h126l-97 -258h66l2 95h109v-95h45z" />
    <glyph glyph-name="uni2155" unicode="&#x2155;" horiz-adv-x="1007" 
d="M39 244v110h102v196h-91v110h213v-306h83v-110h-307zM254 0l381 660h135l-382 -660h-134zM977 142c0 -85 -73 -150 -170 -150c-76 0 -138 39 -166 103l84 59c25 -36 45 -50 76 -50c29 0 51 12 51 36s-19 33 -64 33h-100v243h268v-110h-152v-33c11 3 22 4 35 4
c67 0 138 -53 138 -135z" />
    <glyph glyph-name="uni2156" unicode="&#x2156;" horiz-adv-x="1020" 
d="M253 354h104v-110l-325 -1v25l149 164c33 37 45 61 45 85c0 25 -14 39 -35 39c-20 0 -34 -13 -34 -41c0 -2 1 -11 2 -27h-122c-3 11 -4 23 -4 35c0 75 64 145 160 145c45 0 82 -13 112 -40c31 -26 46 -59 46 -100c0 -57 -32 -106 -91 -167zM267 0l381 660h135l-382 -660
h-134zM990 142c0 -85 -73 -150 -170 -150c-76 0 -138 39 -166 103l84 59c25 -36 45 -50 76 -50c29 0 51 12 51 36s-19 33 -64 33h-100v243h268v-110h-152v-33c11 3 22 4 35 4c67 0 138 -53 138 -135z" />
    <glyph glyph-name="uni2157" unicode="&#x2157;" horiz-adv-x="954" 
d="M334 384c0 -83 -73 -148 -166 -148c-75 0 -134 39 -162 103l84 59c24 -37 44 -50 73 -50c28 0 46 12 46 36s-19 33 -64 33h-53v30l66 103h-117v110h288v-32l-77 -119c47 -21 82 -66 82 -125zM201 0l381 660h135l-382 -660h-134zM924 142c0 -85 -73 -150 -170 -150
c-76 0 -138 39 -166 103l84 59c25 -36 45 -50 76 -50c29 0 51 12 51 36s-19 33 -64 33h-100v243h268v-110h-152v-33c11 3 22 4 35 4c67 0 138 -53 138 -135z" />
    <glyph glyph-name="uni2158" unicode="&#x2158;" horiz-adv-x="1023" 
d="M381 402v-100h-45v-58h-112v58h-215v32l121 326h126l-97 -258h66l2 95h109v-95h45zM270 0l381 660h135l-382 -660h-134zM993 142c0 -85 -73 -150 -170 -150c-76 0 -138 39 -166 103l84 59c25 -36 45 -50 76 -50c29 0 51 12 51 36s-19 33 -64 33h-100v243h268v-110h-152
v-33c11 3 22 4 35 4c67 0 138 -53 138 -135z" />
    <glyph glyph-name="uni2159" unicode="&#x2159;" horiz-adv-x="936" 
d="M39 244v110h102v196h-91v110h213v-306h83v-110h-307zM254 0l381 660h135l-382 -660h-134zM913 149c0 -91 -79 -157 -164 -157c-86 0 -164 66 -164 159c0 44 16 75 57 128l104 137h143l-92 -122c31 -7 58 -23 81 -49s35 -58 35 -96zM793 149c0 25 -20 45 -44 45
s-44 -20 -44 -45s20 -45 44 -45s44 20 44 45z" />
    <glyph glyph-name="uni215A" unicode="&#x215a;" horiz-adv-x="892" 
d="M343 386c0 -85 -73 -150 -170 -150c-76 0 -138 39 -166 103l84 59c25 -36 45 -50 76 -50c29 0 51 12 51 36s-19 33 -64 33h-100v243h268v-110h-152v-33c11 3 22 4 35 4c67 0 138 -53 138 -135zM210 0l381 660h135l-382 -660h-134zM869 149c0 -91 -79 -157 -164 -157
c-86 0 -164 66 -164 159c0 44 16 75 57 128l104 137h143l-92 -122c31 -7 58 -23 81 -49s35 -58 35 -96zM749 149c0 25 -20 45 -44 45s-44 -20 -44 -45s20 -45 44 -45s44 20 44 45z" />
    <glyph glyph-name="uni2150" unicode="&#x2150;" horiz-adv-x="994" 
d="M39 244v110h102v196h-91v110h213v-306h83v-110h-307zM254 0l381 660h135l-382 -660h-134zM672 416h306v-32l-169 -384h-132l141 306h-146v110z" />
    <glyph glyph-name="oneeighth" unicode="&#x215b;" horiz-adv-x="989" 
d="M39 244v110h102v196h-91v110h213v-306h83v-110h-307zM254 0l381 660h135l-382 -660h-134zM959 116c0 -77 -70 -124 -166 -124s-166 47 -166 124c0 45 22 77 67 98c-33 24 -49 55 -49 93c0 73 61 117 148 117s148 -44 148 -117c0 -37 -16 -68 -49 -93
c45 -21 67 -53 67 -98zM756 301c0 -15 10 -24 37 -37c25 12 37 22 37 37c0 16 -16 27 -37 27s-37 -11 -37 -27zM838 121c0 19 -14 31 -45 43c-31 -12 -46 -24 -46 -43s14 -32 46 -32c31 0 45 13 45 32z" />
    <glyph glyph-name="threeeighths" unicode="&#x215c;" horiz-adv-x="936" 
d="M334 384c0 -83 -73 -148 -166 -148c-75 0 -134 39 -162 103l84 59c24 -37 44 -50 73 -50c28 0 46 12 46 36s-19 33 -64 33h-53v30l66 103h-117v110h288v-32l-77 -119c47 -21 82 -66 82 -125zM201 0l381 660h135l-382 -660h-134zM906 116c0 -77 -70 -124 -166 -124
s-166 47 -166 124c0 45 22 77 67 98c-33 24 -49 55 -49 93c0 73 61 117 148 117s148 -44 148 -117c0 -37 -16 -68 -49 -93c45 -21 67 -53 67 -98zM703 301c0 -15 10 -24 37 -37c25 12 37 22 37 37c0 16 -16 27 -37 27s-37 -11 -37 -27zM785 121c0 19 -14 31 -45 43
c-31 -12 -46 -24 -46 -43s14 -32 46 -32c31 0 45 13 45 32z" />
    <glyph glyph-name="fiveeighths" unicode="&#x215d;" horiz-adv-x="945" 
d="M343 386c0 -85 -73 -150 -170 -150c-76 0 -138 39 -166 103l84 59c25 -36 45 -50 76 -50c29 0 51 12 51 36s-19 33 -64 33h-100v243h268v-110h-152v-33c11 3 22 4 35 4c67 0 138 -53 138 -135zM210 0l381 660h135l-382 -660h-134zM915 116c0 -77 -70 -124 -166 -124
s-166 47 -166 124c0 45 22 77 67 98c-33 24 -49 55 -49 93c0 73 61 117 148 117s148 -44 148 -117c0 -37 -16 -68 -49 -93c45 -21 67 -53 67 -98zM712 301c0 -15 10 -24 37 -37c25 12 37 22 37 37c0 16 -16 27 -37 27s-37 -11 -37 -27zM794 121c0 19 -14 31 -45 43
c-31 -12 -46 -24 -46 -43s14 -32 46 -32c31 0 45 13 45 32z" />
    <glyph glyph-name="seveneighths" unicode="&#x215e;" horiz-adv-x="861" 
d="M30 660h306v-32l-169 -384h-132l141 306h-146v110zM126 0l381 660h135l-382 -660h-134zM831 116c0 -77 -70 -124 -166 -124s-166 47 -166 124c0 45 22 77 67 98c-33 24 -49 55 -49 93c0 73 61 117 148 117s148 -44 148 -117c0 -37 -16 -68 -49 -93c45 -21 67 -53 67 -98z
M628 301c0 -15 10 -24 37 -37c25 12 37 22 37 37c0 16 -16 27 -37 27s-37 -11 -37 -27zM710 121c0 19 -14 31 -45 43c-31 -12 -46 -24 -46 -43s14 -32 46 -32c31 0 45 13 45 32z" />
    <glyph glyph-name="uni2151" unicode="&#x2151;" horiz-adv-x="986" 
d="M39 244v110h102v196h-91v110h213v-306h83v-110h-307zM254 0l381 660h135l-382 -660h-134zM963 265c0 -44 -16 -75 -57 -128l-104 -137h-143l92 122c-31 7 -58 23 -81 49s-35 58 -35 96c0 91 79 157 164 157c86 0 164 -66 164 -159zM843 267c0 25 -20 45 -44 45
s-44 -20 -44 -45s20 -45 44 -45s44 20 44 45z" />
    <glyph glyph-name="uni2152" unicode="&#x2152;" horiz-adv-x="1453" 
d="M39 244v110h102v196h-91v110h213v-306h83v-110h-307zM254 0l381 660h135l-382 -660h-134zM681 0v110h102v196h-91v110h213v-306h83v-110h-307zM1061 211c0 125 64 213 177 213c57 0 101 -20 132 -60c31 -39 46 -90 46 -153c0 -64 -16 -117 -47 -158s-74 -61 -131 -61
s-100 20 -131 61s-46 94 -46 158zM1291 210c0 73 -17 102 -53 102c-35 0 -52 -29 -52 -102s17 -106 52 -106c36 0 53 33 53 106z" />
    <glyph glyph-name="period" unicode="." horiz-adv-x="280" 
d="M28 100c0 63 47 112 114 112c64 0 111 -49 111 -112c0 -64 -47 -112 -111 -112c-67 0 -114 48 -114 112z" />
    <glyph glyph-name="comma" unicode="," horiz-adv-x="280" 
d="M48 -177v322h195l-60 -322h-135z" />
    <glyph glyph-name="colon" unicode=":" horiz-adv-x="280" 
d="M28 400c0 63 47 112 114 112c64 0 111 -49 111 -112c0 -64 -47 -112 -111 -112c-67 0 -114 48 -114 112zM28 100c0 63 47 112 114 112c64 0 111 -49 111 -112c0 -64 -47 -112 -111 -112c-67 0 -114 48 -114 112z" />
    <glyph glyph-name="semicolon" unicode=";" horiz-adv-x="280" 
d="M28 400c0 63 47 112 114 112c64 0 111 -49 111 -112c0 -64 -47 -112 -111 -112c-67 0 -114 48 -114 112zM48 -177v322h195l-60 -322h-135z" />
    <glyph glyph-name="ellipsis" unicode="&#x2026;" horiz-adv-x="810" 
d="M293 100c0 63 47 112 114 112c64 0 111 -49 111 -112c0 -64 -47 -112 -111 -112c-67 0 -114 48 -114 112zM28 100c0 63 47 112 114 112c64 0 111 -49 111 -112c0 -64 -47 -112 -111 -112c-67 0 -114 48 -114 112zM558 100c0 63 47 112 114 112c64 0 111 -49 111 -112
c0 -64 -47 -112 -111 -112c-67 0 -114 48 -114 112z" />
    <glyph glyph-name="exclam" unicode="!" horiz-adv-x="375" 
d="M117 264l-33 396h205l-32 -396h-140zM75 100c0 63 47 112 114 112c64 0 111 -49 111 -112c0 -64 -47 -112 -111 -112c-67 0 -114 48 -114 112z" />
    <glyph glyph-name="exclamdown" unicode="&#xa1;" horiz-adv-x="375" 
d="M75 400c0 64 47 112 114 112c64 0 111 -48 111 -112c0 -63 -47 -112 -111 -112c-67 0 -114 49 -114 112zM85 -180l33 416h140l32 -416h-205z" />
    <glyph glyph-name="question" unicode="?" horiz-adv-x="456" 
d="M129 314c0 33 23 66 78 106c37 28 46 39 46 59s-17 35 -40 35c-27 0 -44 -20 -63 -63l-140 62c29 107 106 159 209 159c117 0 210 -71 210 -180c0 -53 -20 -88 -75 -135l-19 -16c-35 -28 -50 -44 -50 -64v-13h-144c-8 19 -12 35 -12 50zM103 100c0 63 47 112 114 112
c64 0 111 -49 111 -112c0 -64 -47 -112 -111 -112c-67 0 -114 48 -114 112z" />
    <glyph glyph-name="questiondown" unicode="&#xbf;" horiz-adv-x="456" 
d="M128 400c0 64 47 112 111 112c67 0 114 -48 114 -112c0 -63 -47 -112 -114 -112c-64 0 -111 49 -111 112zM27 -4c0 65 27 100 75 141c53 45 69 62 69 86v13h144c8 -19 12 -35 12 -50c0 -57 -73 -107 -78 -112c-35 -29 -46 -45 -46 -66c0 -25 19 -41 42 -41
c25 0 42 18 61 62l140 -62c-29 -107 -107 -159 -207 -159c-119 0 -212 76 -212 188z" />
    <glyph glyph-name="middot" unicode="&#xb7;" horiz-adv-x="280" 
d="M28 324c0 63 47 112 114 112c64 0 111 -49 111 -112c0 -64 -47 -112 -111 -112c-67 0 -114 48 -114 112z" />
    <glyph glyph-name="bullet" unicode="&#x2022;" horiz-adv-x="459" 
d="M47 274c0 99 82 177 183 177c102 0 182 -78 182 -177s-80 -177 -182 -177c-101 0 -183 78 -183 177z" />
    <glyph glyph-name="asterisk" unicode="*" horiz-adv-x="504" 
d="M469 596l-90 -70l90 -70l-48 -83l-106 43l-15 -113h-96l-15 113l-106 -43l-48 83l90 70l-90 70l48 83l106 -43l15 113h96l15 -113l106 43z" />
    <glyph glyph-name="numbersign" unicode="#" horiz-adv-x="654" 
d="M628 378h-96l-12 -96h88v-144h-108l-18 -138h-139l18 138h-120l-18 -138h-139l18 138h-76v144h96l12 96h-88v144h108l18 138h139l-18 -138h120l18 138h139l-18 -138h76v-144zM259 272h120l16 116h-120z" />
    <glyph glyph-name="slash" unicode="/" horiz-adv-x="700" 
d="M0 -121l523 901h177l-523 -901h-177z" />
    <glyph glyph-name="backslash" unicode="\" horiz-adv-x="700" 
d="M523 -121l-523 901h177l523 -901h-177z" />
    <glyph glyph-name="exclamdown.case" horiz-adv-x="375" 
d="M75 560c0 64 47 112 114 112c64 0 111 -48 111 -112c0 -63 -47 -112 -111 -112c-67 0 -114 49 -114 112zM85 0l33 396h140l32 -396h-205z" />
    <glyph glyph-name="questiondown.case" horiz-adv-x="456" 
d="M128 560c0 64 47 112 111 112c67 0 114 -48 114 -112c0 -63 -47 -112 -114 -112c-64 0 -111 49 -111 112zM27 168c0 59 24 92 75 135l19 16c35 28 50 44 50 64v13h144c8 -19 12 -35 12 -50c0 -41 -27 -66 -78 -106c-21 -16 -34 -27 -39 -33c-5 -5 -7 -13 -7 -22
c0 -25 17 -39 40 -39c27 0 44 20 63 63l140 -62c-29 -107 -106 -159 -209 -159c-118 0 -210 71 -210 180z" />
    <glyph glyph-name="periodcentered.case" horiz-adv-x="280" 
d="M28 344c0 63 47 112 114 112c64 0 111 -49 111 -112c0 -64 -47 -112 -111 -112c-67 0 -114 48 -114 112z" />
    <glyph glyph-name="bullet.case" horiz-adv-x="459" 
d="M47 294c0 99 82 177 183 177c102 0 182 -78 182 -177s-80 -177 -182 -177c-101 0 -183 78 -183 177z" />
    <glyph glyph-name="slash.case" horiz-adv-x="677" 
d="M0 -100l500 861h177l-500 -861h-177z" />
    <glyph glyph-name="backslash.case" horiz-adv-x="677" 
d="M500 -100l-500 861h177l500 -861h-177z" />
    <glyph glyph-name="uni208D" unicode="&#x208d;" horiz-adv-x="289" 
d="M42 87c0 172 72 285 179 332l52 -77c-79 -53 -119 -138 -119 -255c0 -129 46 -208 119 -257l-52 -75c-107 44 -179 161 -179 332z" />
    <glyph glyph-name="uni208E" unicode="&#x208e;" horiz-adv-x="289" 
d="M68 -245l-52 75c72 49 119 125 119 257c0 128 -44 206 -119 255l52 77c105 -45 179 -160 179 -332c0 -173 -74 -288 -179 -332z" />
    <glyph glyph-name="parenleft" unicode="(" horiz-adv-x="386" 
d="M62 305c0 114 22 208 65 281c43 74 99 126 168 156l67 -98c-96 -64 -156 -164 -156 -339s60 -275 156 -339l-67 -98c-69 30 -125 82 -168 155c-43 74 -65 168 -65 282z" />
    <glyph glyph-name="parenright" unicode=")" horiz-adv-x="386" 
d="M91 -132l-67 98c96 64 156 164 156 339s-60 275 -156 339l67 98c69 -30 125 -82 168 -156c43 -73 65 -167 65 -281s-22 -208 -65 -282c-43 -73 -99 -125 -168 -155z" />
    <glyph glyph-name="braceleft" unicode="{" horiz-adv-x="423" 
d="M278 543c0 -13 3 -35 9 -68l6 -37c3 -20 5 -37 5 -51c0 -51 -24 -77 -77 -88c53 -9 77 -35 77 -86c0 -14 -2 -31 -5 -51l-6 -37c-6 -33 -9 -55 -9 -68c0 -35 20 -53 53 -53h62v-134h-92c-110 0 -165 49 -165 146c0 19 4 52 11 97c6 30 9 52 9 66c0 35 -15 49 -51 49h-65
v144h65c36 0 51 14 51 49c0 14 -3 36 -9 66c-7 45 -11 78 -11 97c0 97 55 146 165 146h92v-134h-62c-33 0 -53 -18 -53 -53z" />
    <glyph glyph-name="braceright" unicode="}" horiz-adv-x="423" 
d="M318 372h65v-144h-65c-36 0 -51 -14 -51 -49c0 -14 3 -36 9 -66c7 -45 11 -78 11 -97c0 -97 -55 -146 -165 -146h-92v134h62c33 0 53 18 53 53c0 13 -3 35 -9 68l-6 37c-3 20 -5 37 -5 51c0 51 24 77 77 86c-53 11 -77 37 -77 88c0 14 2 31 5 51l6 37c6 33 9 55 9 68
c0 35 -20 53 -53 53h-62v134h92c110 0 165 -49 165 -146c0 -19 -4 -52 -11 -97c-6 -30 -9 -52 -9 -66c0 -35 15 -49 51 -49z" />
    <glyph glyph-name="bracketleft" unicode="[" horiz-adv-x="367" 
d="M82 -130v860h255v-134h-113v-592h113v-134h-255z" />
    <glyph glyph-name="bracketright" unicode="]" horiz-adv-x="367" 
d="M30 -130v134h113v592h-113v134h255v-860h-255z" />
    <glyph glyph-name="uni207D" unicode="&#x207d;" horiz-adv-x="289" 
d="M42 572c0 172 72 285 179 332l52 -77c-79 -53 -119 -138 -119 -255c0 -129 46 -208 119 -257l-52 -75c-107 44 -179 161 -179 332z" />
    <glyph glyph-name="uni207E" unicode="&#x207e;" horiz-adv-x="289" 
d="M68 240l-52 75c72 49 119 125 119 257c0 128 -44 206 -119 255l52 77c105 -45 179 -160 179 -332c0 -173 -74 -288 -179 -332z" />
    <glyph glyph-name="parenleft.case" horiz-adv-x="386" 
d="M62 330c0 114 22 208 65 281c43 74 99 126 168 156l67 -98c-96 -64 -156 -164 -156 -339s60 -275 156 -339l-67 -98c-69 30 -125 82 -168 155c-43 74 -65 168 -65 282z" />
    <glyph glyph-name="parenright.case" horiz-adv-x="386" 
d="M91 -107l-67 98c96 64 156 164 156 339s-60 275 -156 339l67 98c69 -30 125 -82 168 -156c43 -73 65 -167 65 -281s-22 -208 -65 -282c-43 -73 -99 -125 -168 -155z" />
    <glyph glyph-name="braceleft.case" horiz-adv-x="423" 
d="M278 573c0 -13 3 -35 9 -68l6 -37c3 -20 5 -37 5 -51c0 -51 -24 -77 -77 -88c53 -9 77 -35 77 -86c0 -14 -2 -31 -5 -51l-6 -37c-6 -33 -9 -55 -9 -68c0 -35 20 -53 53 -53h62v-134h-92c-110 0 -165 49 -165 146c0 19 4 52 11 97c6 30 9 52 9 66c0 35 -15 49 -51 49h-65
v144h65c36 0 51 14 51 49c0 14 -3 36 -9 66c-7 45 -11 78 -11 97c0 97 55 146 165 146h92v-134h-62c-33 0 -53 -18 -53 -53z" />
    <glyph glyph-name="braceright.case" horiz-adv-x="423" 
d="M318 402h65v-144h-65c-36 0 -51 -14 -51 -49c0 -14 3 -36 9 -66c7 -45 11 -78 11 -97c0 -97 -55 -146 -165 -146h-92v134h62c33 0 53 18 53 53c0 13 -3 35 -9 68l-6 37c-3 20 -5 37 -5 51c0 51 24 77 77 86c-53 11 -77 37 -77 88c0 14 2 31 5 51l6 37c6 33 9 55 9 68
c0 35 -20 53 -53 53h-62v134h92c110 0 165 -49 165 -146c0 -19 -4 -52 -11 -97c-6 -30 -9 -52 -9 -66c0 -35 15 -49 51 -49z" />
    <glyph glyph-name="bracketleft.case" horiz-adv-x="367" 
d="M82 -100v860h255v-134h-113v-592h113v-134h-255z" />
    <glyph glyph-name="bracketright.case" horiz-adv-x="367" 
d="M30 -100v134h113v592h-113v134h255v-860h-255z" />
    <glyph glyph-name="hyphen" unicode="-" horiz-adv-x="340" 
d="M40 253v144h260v-144h-260z" />
    <glyph glyph-name="uni00AD" unicode="&#xad;" horiz-adv-x="340" 
d="M40 253v144h260v-144h-260z" />
    <glyph glyph-name="endash" unicode="&#x2013;" horiz-adv-x="500" 
d="M30 253v144h440v-144h-440z" />
    <glyph glyph-name="emdash" unicode="&#x2014;" horiz-adv-x="1000" 
d="M50 253v144h900v-144h-900z" />
    <glyph glyph-name="uni2015" unicode="&#x2015;" horiz-adv-x="1000" 
d="M50 253v144h900v-144h-900z" />
    <glyph glyph-name="underscore" unicode="_" horiz-adv-x="500" 
d="M30 -192v134h440v-134h-440z" />
    <glyph glyph-name="hyphen.case" horiz-adv-x="340" 
d="M40 273v144h260v-144h-260z" />
    <glyph glyph-name="uni00AD.case" horiz-adv-x="340" 
d="M40 273v144h260v-144h-260z" />
    <glyph glyph-name="endash.case" horiz-adv-x="500" 
d="M30 273v144h440v-144h-440z" />
    <glyph glyph-name="emdash.case" horiz-adv-x="1000" 
d="M50 273v144h900v-144h-900z" />
    <glyph glyph-name="uni2015.case" horiz-adv-x="1000" 
d="M50 273v144h900v-144h-900z" />
    <glyph glyph-name="quotesinglbase" unicode="&#x201a;" horiz-adv-x="315" 
d="M76 -147v292h195l-65 -292h-130z" />
    <glyph glyph-name="quotedblbase" unicode="&#x201e;" horiz-adv-x="587" 
d="M76 -147v292h195l-65 -292h-130zM348 -147v292h195l-65 -292h-130z" />
    <glyph glyph-name="quotedblleft" unicode="&#x201c;" horiz-adv-x="587" 
d="M44 368l65 292h130v-292h-195zM316 368l65 292h130v-292h-195z" />
    <glyph glyph-name="quotedblright" unicode="&#x201d;" horiz-adv-x="587" 
d="M76 368v292h195l-65 -292h-130zM348 368v292h195l-65 -292h-130z" />
    <glyph glyph-name="quoteleft" unicode="&#x2018;" horiz-adv-x="315" 
d="M44 368l65 292h130v-292h-195z" />
    <glyph glyph-name="quoteright" unicode="&#x2019;" horiz-adv-x="315" 
d="M76 368v292h195l-65 -292h-130z" />
    <glyph glyph-name="guillemotleft" unicode="&#xab;" horiz-adv-x="658" 
d="M229 29l-206 222v45l206 223l109 -95l-130 -150l130 -150zM524 29l-206 222v45l206 223l109 -95l-130 -150l130 -150z" />
    <glyph glyph-name="guillemotright" unicode="&#xbb;" horiz-adv-x="658" 
d="M134 29l-109 95l130 150l-130 150l109 95l206 -223v-45zM429 29l-109 95l130 150l-130 150l109 95l206 -223v-45z" />
    <glyph glyph-name="guilsinglleft" unicode="&#x2039;" horiz-adv-x="363" 
d="M229 29l-206 222v45l206 223l109 -95l-130 -150l130 -150z" />
    <glyph glyph-name="guilsinglright" unicode="&#x203a;" horiz-adv-x="363" 
d="M134 29l-109 95l130 150l-130 150l109 95l206 -223v-45z" />
    <glyph glyph-name="quotedbl" unicode="&#x22;" horiz-adv-x="587" 
d="M76 368v292h195l-65 -292h-130zM348 368v292h195l-65 -292h-130z" />
    <glyph glyph-name="quotesingle" unicode="'" horiz-adv-x="315" 
d="M76 368v292h195l-65 -292h-130z" />
    <glyph glyph-name="guillemotleft.case" horiz-adv-x="658" 
d="M229 59l-206 222v45l206 223l109 -95l-130 -150l130 -150zM524 59l-206 222v45l206 223l109 -95l-130 -150l130 -150z" />
    <glyph glyph-name="guillemotright.case" horiz-adv-x="658" 
d="M134 59l-109 95l130 150l-130 150l109 95l206 -223v-45zM429 59l-109 95l130 150l-130 150l109 95l206 -223v-45z" />
    <glyph glyph-name="guilsinglleft.case" horiz-adv-x="363" 
d="M229 59l-206 222v45l206 223l109 -95l-130 -150l130 -150z" />
    <glyph glyph-name="guilsinglright.case" horiz-adv-x="363" 
d="M134 59l-109 95l130 150l-130 150l109 95l206 -223v-45z" />
    <glyph glyph-name="period.subs" horiz-adv-x="210" 
d="M17 -42c0 48 38 87 89 87c48 0 86 -39 86 -87c0 -49 -37 -87 -86 -87c-52 0 -89 38 -89 87z" />
    <glyph glyph-name="comma.subs" horiz-adv-x="210" 
d="M28 -256v247h152l-46 -247h-106z" />
    <glyph glyph-name="period.sups" horiz-adv-x="210" 
d="M17 442c0 49 38 87 89 87c48 0 86 -39 86 -87c0 -49 -37 -87 -86 -87c-52 0 -89 38 -89 87z" />
    <glyph glyph-name="comma.sups" horiz-adv-x="210" 
d="M28 228v247h152l-46 -247h-106z" />
    <glyph glyph-name="anoteleia" unicode="&#x387;" horiz-adv-x="280" 
d="M28 324c0 63 47 112 114 112c64 0 111 -49 111 -112c0 -64 -47 -112 -111 -112c-67 0 -114 48 -114 112z" />
    <glyph glyph-name="uni00A0" unicode="&#xa0;" horiz-adv-x="280" 
 />
    <glyph glyph-name="uni2009" unicode="&#x2009;" horiz-adv-x="140" 
 />
    <glyph glyph-name="uni20BF" unicode="&#x20bf;" horiz-adv-x="579" 
d="M415 45v-144h-119v133h-49v-133h-119v133h-62v592h62v122h119v-122h49v122h119v-151c53 -31 85 -83 85 -146c0 -43 -14 -78 -42 -106c53 -27 84 -74 84 -135c0 -79 -50 -141 -127 -165zM290 496h-76v-104h76c36 0 59 20 59 52s-23 52 -59 52zM392 216c0 33 -22 52 -59 52
h-119v-104h119c37 0 59 19 59 52z" />
    <glyph glyph-name="cent" unicode="&#xa2;" horiz-adv-x="559" 
d="M409 287l119 -90c-35 -69 -96 -117 -176 -130v-166h-144v178c-53 18 -95 49 -128 93c-33 45 -49 96 -49 153s16 108 49 152c33 45 75 76 128 94v177h144v-165c80 -13 141 -61 176 -130l-119 -91c-27 43 -58 67 -103 67c-60 0 -99 -43 -99 -104s39 -104 99 -104
c45 0 76 25 103 66z" />
    <glyph glyph-name="currency" unicode="&#xa4;" horiz-adv-x="667" 
d="M549 210l107 -111l-102 -102l-113 118c-34 -16 -71 -24 -112 -24c-39 0 -75 7 -110 22l-106 -116l-102 102l99 108c-23 37 -34 78 -34 123c0 41 11 81 34 118l-99 103l102 102l104 -109c35 17 72 25 111 25c43 0 81 -9 116 -26l110 110l102 -102l-105 -104
c21 -35 31 -74 31 -117s-11 -83 -33 -120zM406 330c0 48 -32 81 -77 81c-48 0 -77 -33 -77 -81c0 -49 30 -81 78 -81c44 0 76 33 76 81z" />
    <glyph glyph-name="dollar" unicode="$" horiz-adv-x="539" 
d="M340 26v-125h-144v128c-76 19 -134 66 -169 133l114 87c35 -53 80 -79 135 -79c37 0 62 12 62 36c0 21 -17 31 -60 46l-67 22c-100 35 -155 99 -155 182s55 146 140 170v122h144v-120c65 -16 113 -55 146 -118l-114 -87c-28 41 -62 62 -101 62c-28 0 -47 -10 -47 -30
c0 -17 15 -29 50 -41l75 -23c108 -37 157 -97 157 -182c0 -96 -66 -162 -166 -183z" />
    <glyph glyph-name="Euro" unicode="&#x20ac;" horiz-adv-x="673" 
d="M522 213l119 -91c-44 -81 -141 -134 -254 -134c-140 0 -248 79 -293 204h-94v114h71c-1 5 -1 14 -1 25v19h-70v114h92c44 127 152 208 295 208c113 0 210 -53 254 -134l-119 -91c-29 40 -75 67 -130 67c-45 0 -80 -17 -106 -50h192l-32 -114h-199c-1 -5 -1 -11 -1 -20
c0 -11 0 -19 1 -24h187l-32 -114h-113c27 -31 61 -46 103 -46c55 0 101 27 130 67z" />
    <glyph glyph-name="florin" unicode="&#x192;" horiz-adv-x="456" 
d="M464 660v-144l-46 2c-52 0 -77 -21 -82 -66l-5 -42h84v-144h-101l-24 -196c-16 -133 -91 -203 -216 -203c-32 0 -59 4 -81 12l-1 144l46 -2c52 0 77 21 82 66l22 179h-80v144h97l7 59c16 133 91 203 216 203c33 0 60 -4 82 -12z" />
    <glyph glyph-name="uni20B4" unicode="&#x20b4;" horiz-adv-x="539" 
d="M490 464h49v-114h-539v114h313c1 2 1 5 1 10c0 27 -19 40 -56 40c-39 0 -84 -16 -120 -41l-82 118c48 52 120 81 203 81c139 0 231 -79 231 -197v-11zM0 192v114h539v-114h-331c0 -32 21 -46 66 -46c52 0 112 15 156 40l72 -122c-61 -49 -141 -76 -228 -76
c-149 0 -241 77 -242 204h-32z" />
    <glyph glyph-name="lira" unicode="&#x20a4;" horiz-adv-x="595" 
d="M311 134h241v-134h-520v35c64 52 103 90 120 131h-110v104h113c-5 15 -11 29 -20 44h-93v104h46c-4 16 -6 33 -6 51c0 124 103 203 235 203c120 0 212 -64 245 -192l-141 -51c-18 57 -49 85 -92 85c-45 0 -73 -30 -73 -75c0 -5 1 -12 2 -21h163v-104h-111
c9 -19 15 -33 18 -44h93v-104h-95c-4 -12 -9 -23 -15 -32z" />
    <glyph glyph-name="uni20BA" unicode="&#x20ba;" horiz-adv-x="551" 
d="M529 249c0 -167 -133 -260 -369 -260h-79v207l-77 -35v139l77 35v44l-77 -35v139l77 35v142h172v-74l157 72v-139l-157 -72v-44l157 72v-139l-157 -72v-113c80 13 130 53 130 113c0 17 0 30 -1 40h140c5 -16 7 -34 7 -55z" />
    <glyph glyph-name="peseta" unicode="&#x20a7;" horiz-adv-x="649" 
d="M649 465v-134h-76c-15 -60 -48 -108 -101 -144c-52 -36 -114 -54 -186 -54h-28v-133h-172v331h-76v134h76v195h200c72 0 134 -17 186 -52s86 -82 101 -143h76zM287 520h-29v-66h148c-19 44 -62 66 -119 66zM407 342h-149v-69h29c59 0 101 22 120 69z" />
    <glyph glyph-name="uni20BD" unicode="&#x20bd;" horiz-adv-x="613" 
d="M86 0v82h-76v134h76v44h-76v144h76v256h273c124 0 222 -72 222 -199s-98 -201 -222 -201h-101v-44h244v-134h-244v-82h-172zM258 404h88c32 0 60 19 60 55s-27 57 -60 57h-88v-112z" />
    <glyph glyph-name="uni20B9" unicode="&#x20b9;" horiz-adv-x="552" 
d="M479 546h-98c9 -16 16 -34 21 -54h77v-114h-77c-16 -75 -65 -127 -140 -154l217 -224h-214l-198 205v124h68c41 0 70 16 86 49h-154v114h154c-16 31 -47 48 -86 48h-68v120h412v-114z" />
    </font>
</defs>
</svg>
